<svg id="Layer_1" data-name="Layer 1" xmlns="http://www.w3.org/2000/svg" viewBox="0 0 994.96 187.09"><defs><style>.cls-1{fill:#010101;}</style></defs><title>Fremtind Logo</title><polygon class="cls-1" points="113.91 1.73 0.91 1.73 0.91 182.11 14.84 182.11 14.84 97.43 99.52 97.43 99.52 84.01 14.84 84.01 14.84 15.14 113.91 15.14 113.91 1.73"/><path class="cls-1" d="M193.54,53.69c-17.62,0-34.85,11.82-41,27.83l-.28-26.19V55H140.31V182.11h13.42V121.06c0-20.34,5.17-54.46,39.81-54.46a50.28,50.28,0,0,1,12.28,1.25l.48.12V54.51l-.32-.06A68.18,68.18,0,0,0,193.54,53.69Z"/><path class="cls-1" d="M278.94,51.66c-17.64,0-32.6,7.66-43.28,22.15-8.49,11.55-12.45,25.92-12.45,45.22,0,19.13,5.63,35.82,16.27,48.28,10.52,12,24.14,18.08,40.48,18.08a51,51,0,0,0,36.42-14.77,47,47,0,0,0,14.26-26.76l.08-.45H316.79l-.07.31a34.83,34.83,0,0,1-9.49,17.76c-6.84,7.09-16.53,11-27.27,11-12.65,0-22.84-4.46-30.29-13.25-8-9.45-12.71-23-13-37.26h96.54v-.39c0-1.52.06-2.87.13-4.17s.13-2.66.13-4.18c0-16.29-5.09-31.48-14.34-42.78C309,58.15,295.15,51.66,278.94,51.66Zm-42.06,57.88c.17-26.22,17.81-45.21,42.06-45.21,26,0,40.18,22.67,40.81,45.21Z"/><path class="cls-1" d="M502.34,51.66c-18.68,0-33.07,9.43-40.63,26.58-4.1-12.36-14.39-26.58-40-26.58-16.57,0-30.72,8.9-38.14,23.91l-1.4-20.26,0-.36H370.26V182.11h13.42V118.52c0-21,5.06-36.39,15.05-45.71,5.9-5.63,13.38-8.48,22.22-8.48,20.43,0,29.95,11,29.95,34.74v83h13.67V110.19c0-15.27,5.11-28.19,14.78-37.37a31.17,31.17,0,0,1,22.24-8.49c20.25,0,29.68,11,29.68,34.74v83H544.7V98.3C544.7,68.22,529.65,51.66,502.34,51.66Z"/><path class="cls-1" d="M609.84,16.92l-13.42,3.23V55H571.14V67.36h25.28v79.23c0,24.39,11.41,37.29,33,37.29,6.84,0,13.33-1.39,20.22-2.86l1.15-.24V168.86l-.46.08a108.6,108.6,0,0,1-19.91,2.27c-14.42,0-20.58-7.51-20.58-25.13V67.36h75.09V182.11h14.18V55H609.84Z"/><path class="cls-1" d="M804.14,51.66c-17.88,0-35.08,10.26-42.43,25.14L760.28,55H748.39V182.11h13.42V118.52c0-10.44,1.61-25.35,9.26-37.06,7.21-11,18.08-16.63,32.31-16.63,21.68,0,32.21,11.2,32.21,34.24v83H849V98.3C849,68.66,832.66,51.66,804.14,51.66Z"/><path class="cls-1" d="M691.89,1.2a10.17,10.17,0,1,0,10.17,10.16A10.18,10.18,0,0,0,691.89,1.2Z"/><path class="cls-1" d="M980.63-1.16V74.93c-7.35-13.78-24.28-23.27-41.81-23.27-13.93,0-25.58,4.46-34.64,13.25-12.61,11.9-19.84,31.53-19.84,53.87,0,23.46,7.41,42.87,20.86,54.64,9,7.94,20.42,12,33.88,12,17.44,0,34.68-10.17,41.66-24.37l1.44,21.09h11.87V-1.16ZM964.84,162.22a35.6,35.6,0,0,1-25.52,10c-10,0-18.06-2.86-24.76-8.75C903.89,154,898,138,898,118.52c0-17.78,5-32.94,14-42.69,7.13-7.4,15.89-11,26.77-11,10.7,0,19.53,3.28,26.27,9.75,10.78,10.09,15.8,24,15.8,43.94C980.89,137.09,975.49,151.8,964.84,162.22Z"/></svg>