<svg width="395" height="350" viewBox="0 0 395 350" fill="none" xmlns="http://www.w3.org/2000/svg">
<rect width="395" height="350" fill="white"/>
<path d="M28.96 101H30.24V94.18H36.4V93.02H30.24V87.16H37.12V86H28.96V101ZM43.8617 101.3C46.5817 101.3 49.0617 99.18 49.0617 95.64C49.0617 92.02 46.5817 89.96 43.8617 89.96C41.1217 89.96 38.6617 92.06 38.6617 95.64C38.6617 99.22 41.1017 101.3 43.8617 101.3ZM43.8617 100.14C41.7017 100.14 39.9017 98.56 39.9017 95.64C39.9017 92.72 41.6617 91.1 43.8617 91.1C46.0217 91.1 47.8217 92.7 47.8217 95.64C47.8217 98.58 46.0417 100.14 43.8617 100.14ZM53.0892 95.14C53.0892 93 54.3292 91.36 56.4092 91.36C56.6892 91.36 56.9692 91.38 57.2492 91.44V90.16C57.0092 90.1 56.7092 90.08 56.4892 90.08C54.5492 90.08 53.4692 91.58 53.0892 92.84V90.26H51.8292V101H53.0892V95.14ZM64.2902 101H65.5502V97.26L67.2302 95.62L71.4102 101H72.9102L68.0702 94.8L72.7102 90.26H71.1902L65.5502 95.78V85.6H64.2902V101ZM75.5142 87.66C76.0542 87.66 76.4342 87.34 76.4342 86.78C76.4342 86.24 76.0542 85.9 75.5142 85.9C74.9942 85.9 74.6342 86.24 74.6342 86.78C74.6342 87.34 74.9942 87.66 75.5142 87.66ZM72.8142 104.94C73.1542 104.98 73.4542 105 73.6742 105C75.4342 105 76.2142 103.96 76.2142 102.52V90.26H74.9542V102.5C74.9542 103.4 74.4942 103.84 73.5742 103.84C73.3742 103.84 73.1342 103.82 72.8142 103.76V104.94ZM79.0938 101.3H80.2938L81.0938 100.3C81.9738 100.96 83.0538 101.32 84.1938 101.32C86.9138 101.32 89.3937 99.2 89.3937 95.66C89.3937 93.94 88.8338 92.56 87.9338 91.6L89.2738 89.9H88.0738L87.2338 90.96C86.3538 90.32 85.2938 89.98 84.1938 89.98C81.4538 89.98 78.9938 92.08 78.9938 95.66C78.9938 97.34 79.5338 98.7 80.3938 99.66L79.0938 101.3ZM80.2338 95.66C80.2338 92.74 81.9938 91.12 84.1938 91.12C85.0538 91.12 85.8738 91.38 86.5138 91.88L81.1338 98.7C80.5738 97.96 80.2338 96.94 80.2338 95.66ZM84.1938 100.16C83.3138 100.16 82.4738 99.9 81.8138 99.38L87.1938 92.54C87.7938 93.3 88.1538 94.34 88.1538 95.66C88.1538 98.6 86.3738 100.16 84.1938 100.16ZM96.9213 100.16C95.1613 100.16 93.3413 98.88 93.3413 96.4V94.54C93.3413 92.24 95.3813 91.1 96.9413 91.1C99.0413 91.1 100.781 92.42 100.781 95.38C100.781 98.58 99.0613 100.16 96.9213 100.16ZM97.0613 101.3C99.7813 101.3 102.021 99 102.021 95.32C102.021 91.98 99.6613 89.96 97.2013 89.96C95.2613 89.96 93.8613 91.06 93.3413 92.22V90.26H92.1013V105H93.3413V99.04C93.9613 100.36 95.3813 101.3 97.0613 101.3ZM112.143 100.24C110.523 100.24 109.783 99.34 109.783 98.14C109.783 96.58 110.983 95.92 113.003 95.92H115.563V97.08C115.563 99.2 113.603 100.24 112.143 100.24ZM118.243 99.96C118.063 99.98 117.923 100 117.763 100C117.143 100 116.803 99.7 116.803 99.12V93.22C116.803 91.2 115.363 89.96 112.883 89.96C110.963 89.96 109.243 91.02 109.003 93.2H110.103C110.303 91.92 111.303 91.06 112.843 91.06C114.503 91.06 115.563 91.8 115.563 93.46V94.9H112.943C110.583 94.9 108.563 95.68 108.563 98.2C108.563 99.8 109.543 101.3 112.023 101.3C113.583 101.3 114.983 100.32 115.563 99.06V99.34C115.563 100.5 116.323 101.08 117.483 101.08C117.843 101.08 118.023 101.04 118.243 100.98V99.96ZM122.902 101H124.042L128.142 90.26H126.842L123.502 99.46L120.102 90.26H118.822L122.902 101ZM142.611 101H143.851V93.82C143.851 90.88 142.071 89.96 140.231 89.96C138.511 89.96 136.991 90.86 136.331 92.28V90.26H135.071V101H136.331V94.2C136.331 92.12 138.131 91.06 139.851 91.06C141.371 91.06 142.611 91.6 142.611 93.8V101ZM149.713 105L155.193 90.26H153.933L150.653 99.36L147.133 90.26H145.873L150.073 100.82L148.493 105H149.713ZM161.46 101.3C163.64 101.3 165.62 99.74 165.94 97.44H164.82C164.52 98.94 163.1 100.16 161.46 100.16C159.34 100.16 157.56 98.9 157.5 95.82H165.98V95.44C165.98 91.9 163.8 89.96 161.3 89.96C158.64 89.96 156.24 92.06 156.24 95.54C156.24 99.26 158.38 101.3 161.46 101.3ZM161.3 91.1C163.14 91.1 164.58 92.26 164.76 94.82H157.58C157.78 92.28 159.58 91.1 161.3 91.1ZM173.83 101H175.07V91.34H177.41V90.26H175.07V88.14C175.07 87.22 175.53 86.74 176.47 86.74C176.91 86.74 177.21 86.82 177.41 86.86V85.68C177.19 85.62 176.89 85.58 176.51 85.58C174.99 85.58 173.83 86.38 173.83 88.04V90.26H172.03V91.34H173.83V101ZM183.549 101.3C186.269 101.3 188.749 99.18 188.749 95.64C188.749 92.02 186.269 89.96 183.549 89.96C180.809 89.96 178.349 92.06 178.349 95.64C178.349 99.22 180.789 101.3 183.549 101.3ZM183.549 100.14C181.389 100.14 179.589 98.56 179.589 95.64C179.589 92.72 181.349 91.1 183.549 91.1C185.709 91.1 187.509 92.7 187.509 95.64C187.509 98.58 185.729 100.14 183.549 100.14ZM192.777 95.14C192.777 93 194.017 91.36 196.097 91.36C196.377 91.36 196.657 91.38 196.937 91.44V90.16C196.697 90.1 196.397 90.08 196.177 90.08C194.237 90.08 193.157 91.58 192.777 92.84V90.26H191.517V101H192.777V95.14ZM202.018 101.3C204.278 101.3 205.898 99.96 205.898 98.16C205.898 96.64 205.078 95.76 203.478 95.34L201.338 94.78C200.118 94.44 199.658 93.82 199.658 92.9C199.658 91.76 200.598 91.08 201.938 91.08C203.238 91.08 204.418 91.8 204.578 93.42H205.678C205.538 90.94 203.638 89.96 201.998 89.96C200.218 89.96 198.438 90.92 198.438 92.96C198.438 94.38 199.238 95.4 200.678 95.8L202.918 96.4C204.358 96.8 204.678 97.4 204.678 98.22C204.678 99.46 203.618 100.18 202.138 100.18C200.758 100.18 199.438 99.74 199.138 97.96H197.978C198.238 100.32 200.098 101.3 202.018 101.3ZM209.225 87.66C209.765 87.66 210.145 87.34 210.145 86.78C210.145 86.24 209.765 85.9 209.225 85.9C208.705 85.9 208.345 86.24 208.345 86.78C208.345 87.34 208.705 87.66 209.225 87.66ZM208.665 101H209.925V90.26H208.665V101ZM213.685 101H214.945V97.26L216.625 95.62L220.805 101H222.305L217.465 94.8L222.105 90.26H220.585L214.945 95.78V85.6H213.685V101ZM225.609 95.14C225.609 93 226.849 91.36 228.929 91.36C229.209 91.36 229.489 91.38 229.769 91.44V90.16C229.529 90.1 229.229 90.08 229.009 90.08C227.069 90.08 225.989 91.58 225.609 92.84V90.26H224.349V101H225.609V95.14ZM232.565 87.66C233.105 87.66 233.485 87.34 233.485 86.78C233.485 86.24 233.105 85.9 232.565 85.9C232.045 85.9 231.685 86.24 231.685 86.78C231.685 87.34 232.045 87.66 232.565 87.66ZM232.005 101H233.265V90.26H232.005V101ZM244.565 101H245.805V93.82C245.805 90.88 244.025 89.96 242.185 89.96C240.465 89.96 238.945 90.86 238.285 92.28V90.26H237.025V101H238.285V94.2C238.285 92.12 240.085 91.06 241.805 91.06C243.325 91.06 244.565 91.6 244.565 93.8V101ZM252.666 96.06C251.026 96.06 249.986 95.08 249.986 93.54C249.986 91.98 251.006 91 252.626 91C254.266 91 255.306 91.98 255.306 93.54C255.306 95.08 254.246 96.06 252.666 96.06ZM249.486 101.82C249.486 100.72 250.266 99.96 252.246 99.96H254.026C255.506 99.96 256.406 100.56 256.406 101.52C256.406 102.94 254.946 103.7 252.906 103.7C250.646 103.7 249.486 102.96 249.486 101.82ZM252.706 97.1C255.046 97.1 256.486 95.6 256.486 93.54C256.486 92.54 255.966 91.66 255.446 91.18L257.326 90L256.806 89.16L254.606 90.5C254.106 90.18 253.466 89.96 252.626 89.96C250.586 89.96 248.806 91.28 248.806 93.54C248.806 94.56 249.206 95.44 249.886 96.08C249.246 96.4 248.686 96.98 248.686 97.8C248.686 98.5 249.146 99.24 250.126 99.58C249.066 99.88 248.206 100.66 248.206 101.86C248.206 103.86 250.246 104.74 252.866 104.74C255.666 104.74 257.586 103.5 257.586 101.38C257.586 99.66 255.966 98.88 254.226 98.88H251.406C250.266 98.88 249.746 98.36 249.746 97.72C249.746 97.18 250.006 96.8 250.486 96.54C251.106 96.9 251.846 97.1 252.706 97.1ZM264.214 101.3C266.394 101.3 268.374 99.74 268.694 97.44H267.574C267.274 98.94 265.854 100.16 264.214 100.16C262.094 100.16 260.314 98.9 260.254 95.82H268.734V95.44C268.734 91.9 266.554 89.96 264.054 89.96C261.394 89.96 258.994 92.06 258.994 95.54C258.994 99.26 261.134 101.3 264.214 101.3ZM264.054 91.1C265.894 91.1 267.334 92.26 267.514 94.82H260.334C260.534 92.28 262.334 91.1 264.054 91.1ZM272.679 95.14C272.679 93 273.919 91.36 275.999 91.36C276.279 91.36 276.559 91.38 276.839 91.44V90.16C276.599 90.1 276.299 90.08 276.079 90.08C274.139 90.08 273.059 91.58 272.679 92.84V90.26H271.419V101H272.679V95.14ZM283.88 101H285.14V97.26L286.82 95.62L291 101H292.5L287.66 94.8L292.3 90.26H290.78L285.14 95.78V85.6H283.88V101ZM296.986 100.24C295.366 100.24 294.626 99.34 294.626 98.14C294.626 96.58 295.826 95.92 297.846 95.92H300.406V97.08C300.406 99.2 298.446 100.24 296.986 100.24ZM303.086 99.96C302.906 99.98 302.766 100 302.606 100C301.986 100 301.646 99.7 301.646 99.12V93.22C301.646 91.2 300.206 89.96 297.726 89.96C295.806 89.96 294.086 91.02 293.846 93.2H294.946C295.146 91.92 296.146 91.06 297.686 91.06C299.346 91.06 300.406 91.8 300.406 93.46V94.9H297.786C295.426 94.9 293.406 95.68 293.406 98.2C293.406 99.8 294.386 101.3 296.866 101.3C298.426 101.3 299.826 100.32 300.406 99.06V99.34C300.406 100.5 301.166 101.08 302.326 101.08C302.686 101.08 302.866 101.04 303.086 100.98V99.96ZM312.846 101H314.086V93.82C314.086 90.88 312.306 89.96 310.466 89.96C308.746 89.96 307.226 90.86 306.566 92.28V90.26H305.306V101H306.566V94.2C306.566 92.12 308.366 91.06 310.086 91.06C311.606 91.06 312.846 91.6 312.846 93.8V101ZM330.232 101H331.472V85.6H330.232V92.14C329.672 90.96 328.232 89.96 326.472 89.96C323.952 89.96 321.572 92.04 321.572 95.34C321.572 99 323.832 101.3 326.652 101.3C328.232 101.3 329.552 100.38 330.232 99.06V101ZM326.652 100.16C324.572 100.16 322.812 98.58 322.812 95.42C322.812 92.5 324.572 91.1 326.672 91.1C328.072 91.1 330.232 92.14 330.232 94.42V96.4C330.232 98.76 328.452 100.16 326.652 100.16ZM338.669 101.3C340.289 101.3 341.709 100.34 342.389 98.88V101H343.629V90.26H342.389V96.88C342.389 99.12 340.609 100.18 339.029 100.18C337.409 100.18 336.349 99.54 336.349 97.26V90.26H335.089V97.3C335.089 100.28 336.729 101.3 338.669 101.3ZM32.08 128.06C30.44 128.06 29.4 127.08 29.4 125.54C29.4 123.98 30.42 123 32.04 123C33.68 123 34.72 123.98 34.72 125.54C34.72 127.08 33.66 128.06 32.08 128.06ZM28.9 133.82C28.9 132.72 29.68 131.96 31.66 131.96H33.44C34.92 131.96 35.82 132.56 35.82 133.52C35.82 134.94 34.36 135.7 32.32 135.7C30.06 135.7 28.9 134.96 28.9 133.82ZM32.12 129.1C34.46 129.1 35.9 127.6 35.9 125.54C35.9 124.54 35.38 123.66 34.86 123.18L36.74 122L36.22 121.16L34.02 122.5C33.52 122.18 32.88 121.96 32.04 121.96C30 121.96 28.22 123.28 28.22 125.54C28.22 126.56 28.62 127.44 29.3 128.08C28.66 128.4 28.1 128.98 28.1 129.8C28.1 130.5 28.56 131.24 29.54 131.58C28.48 131.88 27.62 132.66 27.62 133.86C27.62 135.86 29.66 136.74 32.28 136.74C35.08 136.74 37 135.5 37 133.38C37 131.66 35.38 130.88 33.64 130.88H30.82C29.68 130.88 29.16 130.36 29.16 129.72C29.16 129.18 29.42 128.8 29.9 128.54C30.52 128.9 31.26 129.1 32.12 129.1ZM41.9278 132.24C40.3078 132.24 39.5678 131.34 39.5678 130.14C39.5678 128.58 40.7678 127.92 42.7878 127.92H45.3478V129.08C45.3478 131.2 43.3878 132.24 41.9278 132.24ZM48.0278 131.96C47.8478 131.98 47.7078 132 47.5478 132C46.9278 132 46.5878 131.7 46.5878 131.12V125.22C46.5878 123.2 45.1478 121.96 42.6678 121.96C40.7478 121.96 39.0278 123.02 38.7878 125.2H39.8878C40.0878 123.92 41.0878 123.06 42.6278 123.06C44.2878 123.06 45.3478 123.8 45.3478 125.46V126.9H42.7278C40.3678 126.9 38.3478 127.68 38.3478 130.2C38.3478 131.8 39.3278 133.3 41.8078 133.3C43.3678 133.3 44.7678 132.32 45.3478 131.06V131.34C45.3478 132.5 46.1078 133.08 47.2678 133.08C47.6278 133.08 47.8078 133.04 48.0278 132.98V131.96ZM42.8078 119.94C41.9878 119.94 41.3678 119.38 41.3678 118.48C41.3678 117.48 42.0078 117.02 42.8078 117.02C43.6278 117.02 44.2678 117.5 44.2678 118.48C44.2678 119.4 43.6078 119.94 42.8078 119.94ZM42.8078 120.74C44.1078 120.74 45.1078 119.92 45.1078 118.48C45.1078 117.12 44.1078 116.22 42.8078 116.22C41.5678 116.22 40.5278 117.02 40.5278 118.48C40.5278 119.82 41.5678 120.74 42.8078 120.74ZM59.1119 132.98V131.98C58.8719 132.06 58.4319 132.12 58.0919 132.12C57.1919 132.12 56.4519 131.82 56.4519 130.92V123.34H58.8119V122.26H56.4519V119.56H55.2519V122.26H53.4119V123.34H55.2119V131.1C55.2119 132.58 56.3519 133.2 57.8119 133.2C58.2919 133.2 58.8119 133.12 59.1119 132.98ZM61.9791 119.66C62.5191 119.66 62.8991 119.34 62.8991 118.78C62.8991 118.24 62.5191 117.9 61.9791 117.9C61.4591 117.9 61.0991 118.24 61.0991 118.78C61.0991 119.34 61.4591 119.66 61.9791 119.66ZM61.4191 133H62.6791V122.26H61.4191V133ZM66.4386 133H67.6986V117.6H66.4386V133ZM172.866 133.3C175.046 133.3 177.026 131.74 177.346 129.44H176.226C175.926 130.94 174.506 132.16 172.866 132.16C170.746 132.16 168.966 130.9 168.906 127.82H177.386V127.44C177.386 123.9 175.206 121.96 172.706 121.96C170.046 121.96 167.646 124.06 167.646 127.54C167.646 131.26 169.786 133.3 172.866 133.3ZM172.706 123.1C174.546 123.1 175.986 124.26 176.166 126.82H168.986C169.186 124.28 170.986 123.1 172.706 123.1ZM180.071 133H181.331V117.6H180.071V133ZM185.091 133H186.351V117.6H185.091V133ZM194.35 133.3C196.53 133.3 198.51 131.74 198.83 129.44H197.71C197.41 130.94 195.99 132.16 194.35 132.16C192.23 132.16 190.45 130.9 190.39 127.82H198.87V127.44C198.87 123.9 196.69 121.96 194.19 121.96C191.53 121.96 189.13 124.06 189.13 127.54C189.13 131.26 191.27 133.3 194.35 133.3ZM194.19 123.1C196.03 123.1 197.47 124.26 197.65 126.82H190.47C190.67 124.28 192.47 123.1 194.19 123.1ZM202.816 127.14C202.816 125 204.056 123.36 206.136 123.36C206.416 123.36 206.696 123.38 206.976 123.44V122.16C206.736 122.1 206.436 122.08 206.216 122.08C204.276 122.08 203.196 123.58 202.816 124.84V122.26H201.556V133H202.816V127.14ZM352.266 133.3C352.746 133.3 353.186 132.94 353.186 132.38C353.186 131.84 352.746 131.48 352.266 131.48C351.786 131.48 351.346 131.84 351.346 132.38C351.346 132.94 351.786 133.3 352.266 133.3ZM28.96 165H33.82C38.04 165 40.64 162.16 40.64 157.5C40.64 152.98 37.96 150 33.82 150H28.96V165ZM33.54 151.16C37.1 151.16 39.34 153.24 39.34 157.5C39.34 161.62 37.24 163.84 33.66 163.84H30.24V151.16H33.54ZM47.6708 165.3C49.8508 165.3 51.8308 163.74 52.1508 161.44H51.0308C50.7308 162.94 49.3108 164.16 47.6708 164.16C45.5508 164.16 43.7708 162.9 43.7108 159.82H52.1908V159.44C52.1908 155.9 50.0108 153.96 47.5108 153.96C44.8508 153.96 42.4508 156.06 42.4508 159.54C42.4508 163.26 44.5908 165.3 47.6708 165.3ZM47.5108 155.1C49.3508 155.1 50.7908 156.26 50.9708 158.82H43.7908C43.9908 156.28 45.7908 155.1 47.5108 155.1ZM56.1361 159.14C56.1361 157 57.3761 155.36 59.4561 155.36C59.7361 155.36 60.0161 155.38 60.2961 155.44V154.16C60.0561 154.1 59.7561 154.08 59.5361 154.08C57.5961 154.08 56.5161 155.58 56.1361 156.84V154.26H54.8761V165H56.1361V159.14ZM67.697 165H68.937V155.34H71.277V154.26H68.937V152.14C68.937 151.22 69.397 150.74 70.337 150.74C70.777 150.74 71.077 150.82 71.277 150.86V149.68C71.057 149.62 70.757 149.58 70.377 149.58C68.857 149.58 67.697 150.38 67.697 152.04V154.26H65.897V155.34H67.697V165ZM75.9317 164.24C74.3117 164.24 73.5717 163.34 73.5717 162.14C73.5717 160.58 74.7717 159.92 76.7917 159.92H79.3517V161.08C79.3517 163.2 77.3917 164.24 75.9317 164.24ZM82.0317 163.96C81.8517 163.98 81.7117 164 81.5517 164C80.9317 164 80.5917 163.7 80.5917 163.12V157.22C80.5917 155.2 79.1517 153.96 76.6717 153.96C74.7517 153.96 73.0317 155.02 72.7917 157.2H73.8917C74.0917 155.92 75.0917 155.06 76.6317 155.06C78.2917 155.06 79.3517 155.8 79.3517 157.46V158.9H76.7317C74.3717 158.9 72.3517 159.68 72.3517 162.2C72.3517 163.8 73.3317 165.3 75.8117 165.3C77.3717 165.3 78.7717 164.32 79.3517 163.06V163.34C79.3517 164.5 80.1117 165.08 81.2717 165.08C81.6317 165.08 81.8117 165.04 82.0317 164.98V163.96ZM76.8117 151.94C75.9917 151.94 75.3717 151.38 75.3717 150.48C75.3717 149.48 76.0117 149.02 76.8117 149.02C77.6317 149.02 78.2717 149.5 78.2717 150.48C78.2717 151.4 77.6117 151.94 76.8117 151.94ZM76.8117 152.74C78.1117 152.74 79.1117 151.92 79.1117 150.48C79.1117 149.12 78.1117 148.22 76.8117 148.22C75.5717 148.22 74.5317 149.02 74.5317 150.48C74.5317 151.82 75.5717 152.74 76.8117 152.74ZM85.5111 159.14C85.5111 157 86.7511 155.36 88.8311 155.36C89.1111 155.36 89.3911 155.38 89.6711 155.44V154.16C89.4311 154.1 89.1311 154.08 88.9111 154.08C86.9711 154.08 85.8911 155.58 85.5111 156.84V154.26H84.2511V165H85.5111V159.14ZM104.392 165H105.632V149.6H104.392V156.14C103.832 154.96 102.392 153.96 100.632 153.96C98.112 153.96 95.732 156.04 95.732 159.34C95.732 163 97.992 165.3 100.812 165.3C102.392 165.3 103.712 164.38 104.392 163.06V165ZM100.812 164.16C98.732 164.16 96.972 162.58 96.972 159.42C96.972 156.5 98.732 155.1 100.832 155.1C102.232 155.1 104.392 156.14 104.392 158.42V160.4C104.392 162.76 102.612 164.16 100.812 164.16ZM112.829 165.3C114.449 165.3 115.869 164.34 116.549 162.88V165H117.789V154.26H116.549V160.88C116.549 163.12 114.769 164.18 113.189 164.18C111.569 164.18 110.509 163.54 110.509 161.26V154.26H109.249V161.3C109.249 164.28 110.889 165.3 112.829 165.3ZM130.42 164.98V163.98C130.18 164.06 129.74 164.12 129.4 164.12C128.5 164.12 127.76 163.82 127.76 162.92V155.34H130.12V154.26H127.76V151.56H126.56V154.26H124.72V155.34H126.52V163.1C126.52 164.58 127.66 165.2 129.12 165.2C129.6 165.2 130.12 165.12 130.42 164.98ZM133.288 151.66C133.828 151.66 134.208 151.34 134.208 150.78C134.208 150.24 133.828 149.9 133.288 149.9C132.768 149.9 132.408 150.24 132.408 150.78C132.408 151.34 132.768 151.66 133.288 151.66ZM132.728 165H133.988V154.26H132.728V165ZM137.747 165H139.007V149.6H137.747V165ZM145.967 160.06C144.327 160.06 143.287 159.08 143.287 157.54C143.287 155.98 144.307 155 145.927 155C147.567 155 148.607 155.98 148.607 157.54C148.607 159.08 147.547 160.06 145.967 160.06ZM142.787 165.82C142.787 164.72 143.567 163.96 145.547 163.96H147.327C148.807 163.96 149.707 164.56 149.707 165.52C149.707 166.94 148.247 167.7 146.207 167.7C143.947 167.7 142.787 166.96 142.787 165.82ZM146.007 161.1C148.347 161.1 149.787 159.6 149.787 157.54C149.787 156.54 149.267 155.66 148.747 155.18L150.627 154L150.107 153.16L147.907 154.5C147.407 154.18 146.767 153.96 145.927 153.96C143.887 153.96 142.107 155.28 142.107 157.54C142.107 158.56 142.507 159.44 143.187 160.08C142.547 160.4 141.987 160.98 141.987 161.8C141.987 162.5 142.447 163.24 143.427 163.58C142.367 163.88 141.507 164.66 141.507 165.86C141.507 167.86 143.547 168.74 146.167 168.74C148.967 168.74 150.887 167.5 150.887 165.38C150.887 163.66 149.267 162.88 147.527 162.88H144.707C143.567 162.88 143.047 162.36 143.047 161.72C143.047 161.18 143.307 160.8 143.787 160.54C144.407 160.9 145.147 161.1 146.007 161.1ZM155.815 164.24C154.195 164.24 153.455 163.34 153.455 162.14C153.455 160.58 154.655 159.92 156.675 159.92H159.235V161.08C159.235 163.2 157.275 164.24 155.815 164.24ZM161.915 163.96C161.735 163.98 161.595 164 161.435 164C160.815 164 160.475 163.7 160.475 163.12V157.22C160.475 155.2 159.035 153.96 156.555 153.96C154.635 153.96 152.915 155.02 152.675 157.2H153.775C153.975 155.92 154.975 155.06 156.515 155.06C158.175 155.06 159.235 155.8 159.235 157.46V158.9H156.615C154.255 158.9 152.235 159.68 152.235 162.2C152.235 163.8 153.215 165.3 155.695 165.3C157.255 165.3 158.655 164.32 159.235 163.06V163.34C159.235 164.5 159.995 165.08 161.155 165.08C161.515 165.08 161.695 165.04 161.915 164.98V163.96ZM171.674 165H172.914V157.82C172.914 154.88 171.134 153.96 169.294 153.96C167.574 153.96 166.054 154.86 165.394 156.28V154.26H164.134V165H165.394V158.2C165.394 156.12 167.194 155.06 168.914 155.06C170.434 155.06 171.674 155.6 171.674 157.8V165ZM179.775 160.06C178.135 160.06 177.095 159.08 177.095 157.54C177.095 155.98 178.115 155 179.735 155C181.375 155 182.415 155.98 182.415 157.54C182.415 159.08 181.355 160.06 179.775 160.06ZM176.595 165.82C176.595 164.72 177.375 163.96 179.355 163.96H181.135C182.615 163.96 183.515 164.56 183.515 165.52C183.515 166.94 182.055 167.7 180.015 167.7C177.755 167.7 176.595 166.96 176.595 165.82ZM179.815 161.1C182.155 161.1 183.595 159.6 183.595 157.54C183.595 156.54 183.075 155.66 182.555 155.18L184.435 154L183.915 153.16L181.715 154.5C181.215 154.18 180.575 153.96 179.735 153.96C177.695 153.96 175.915 155.28 175.915 157.54C175.915 158.56 176.315 159.44 176.995 160.08C176.355 160.4 175.795 160.98 175.795 161.8C175.795 162.5 176.255 163.24 177.235 163.58C176.175 163.88 175.315 164.66 175.315 165.86C175.315 167.86 177.355 168.74 179.975 168.74C182.775 168.74 184.695 167.5 184.695 165.38C184.695 163.66 183.075 162.88 181.335 162.88H178.515C177.375 162.88 176.855 162.36 176.855 161.72C176.855 161.18 177.115 160.8 177.595 160.54C178.215 160.9 178.955 161.1 179.815 161.1ZM195.948 164.98V163.98C195.708 164.06 195.268 164.12 194.928 164.12C194.028 164.12 193.288 163.82 193.288 162.92V155.34H195.648V154.26H193.288V151.56H192.088V154.26H190.248V155.34H192.048V163.1C192.048 164.58 193.188 165.2 194.648 165.2C195.128 165.2 195.648 165.12 195.948 164.98ZM198.815 151.66C199.355 151.66 199.735 151.34 199.735 150.78C199.735 150.24 199.355 149.9 198.815 149.9C198.295 149.9 197.935 150.24 197.935 150.78C197.935 151.34 198.295 151.66 198.815 151.66ZM198.255 165H199.515V154.26H198.255V165ZM203.275 165H204.535V149.6H203.275V165ZM220.779 165H222.019V149.6H220.779V156.14C220.219 154.96 218.779 153.96 217.019 153.96C214.499 153.96 212.119 156.04 212.119 159.34C212.119 163 214.379 165.3 217.199 165.3C218.779 165.3 220.099 164.38 220.779 163.06V165ZM217.199 164.16C215.119 164.16 213.359 162.58 213.359 159.42C213.359 156.5 215.119 155.1 217.219 155.1C218.619 155.1 220.779 156.14 220.779 158.42V160.4C220.779 162.76 218.999 164.16 217.199 164.16ZM229.975 165.3C232.155 165.3 234.135 163.74 234.455 161.44H233.335C233.035 162.94 231.615 164.16 229.975 164.16C227.855 164.16 226.075 162.9 226.015 159.82H234.495V159.44C234.495 155.9 232.315 153.96 229.815 153.96C227.155 153.96 224.755 156.06 224.755 159.54C224.755 163.26 226.895 165.3 229.975 165.3ZM229.815 155.1C231.655 155.1 233.095 156.26 233.275 158.82H226.095C226.295 156.28 228.095 155.1 229.815 155.1ZM245.025 165.3C247.285 165.3 248.905 163.96 248.905 162.16C248.905 160.64 248.085 159.76 246.485 159.34L244.345 158.78C243.125 158.44 242.665 157.82 242.665 156.9C242.665 155.76 243.605 155.08 244.945 155.08C246.245 155.08 247.425 155.8 247.585 157.42H248.685C248.545 154.94 246.645 153.96 245.005 153.96C243.225 153.96 241.445 154.92 241.445 156.96C241.445 158.38 242.245 159.4 243.685 159.8L245.925 160.4C247.365 160.8 247.685 161.4 247.685 162.22C247.685 163.46 246.625 164.18 245.145 164.18C243.765 164.18 242.445 163.74 242.145 161.96H240.985C241.245 164.32 243.105 165.3 245.025 165.3ZM254.213 164.24C252.593 164.24 251.853 163.34 251.853 162.14C251.853 160.58 253.053 159.92 255.073 159.92H257.633V161.08C257.633 163.2 255.673 164.24 254.213 164.24ZM260.313 163.96C260.133 163.98 259.993 164 259.833 164C259.213 164 258.873 163.7 258.873 163.12V157.22C258.873 155.2 257.433 153.96 254.953 153.96C253.033 153.96 251.313 155.02 251.073 157.2H252.173C252.373 155.92 253.373 155.06 254.913 155.06C256.573 155.06 257.633 155.8 257.633 157.46V158.9H255.013C252.653 158.9 250.633 159.68 250.633 162.2C250.633 163.8 251.613 165.3 254.093 165.3C255.653 165.3 257.053 164.32 257.633 163.06V163.34C257.633 164.5 258.393 165.08 259.553 165.08C259.913 165.08 260.093 165.04 260.313 164.98V163.96ZM275.992 165H277.232V157.88C277.232 154.92 275.712 153.96 274.052 153.96C272.412 153.96 271.092 154.92 270.352 156.42C269.932 154.6 268.672 153.96 267.312 153.96C265.752 153.96 264.512 154.82 263.792 156.26V154.26H262.532V165H263.792V158.18C263.792 156.12 265.432 155.06 266.912 155.06C268.372 155.06 269.272 155.74 269.272 157.8V165H270.512V158.26C270.512 156.1 272.112 155.06 273.652 155.06C275.072 155.06 275.992 155.74 275.992 157.78V165ZM294.352 165H295.592V157.88C295.592 154.92 294.072 153.96 292.412 153.96C290.772 153.96 289.452 154.92 288.712 156.42C288.292 154.6 287.032 153.96 285.672 153.96C284.112 153.96 282.872 154.82 282.152 156.26V154.26H280.892V165H282.152V158.18C282.152 156.12 283.792 155.06 285.272 155.06C286.732 155.06 287.632 155.74 287.632 157.8V165H288.872V158.26C288.872 156.1 290.472 155.06 292.012 155.06C293.432 155.06 294.352 155.74 294.352 157.78V165ZM303.491 165.3C305.671 165.3 307.651 163.74 307.971 161.44H306.851C306.551 162.94 305.131 164.16 303.491 164.16C301.371 164.16 299.591 162.9 299.531 159.82H308.011V159.44C308.011 155.9 305.831 153.96 303.331 153.96C300.671 153.96 298.271 156.06 298.271 159.54C298.271 163.26 300.411 165.3 303.491 165.3ZM303.331 155.1C305.171 155.1 306.611 156.26 306.791 158.82H299.611C299.811 156.28 301.611 155.1 303.331 155.1ZM29.24 197H30.48V187.34H32.82V186.26H30.48V184.14C30.48 183.22 30.94 182.74 31.88 182.74C32.32 182.74 32.62 182.82 32.82 182.86V181.68C32.6 181.62 32.3 181.58 31.92 181.58C30.4 181.58 29.24 182.38 29.24 184.04V186.26H27.44V187.34H29.24V197ZM38.9594 197.3C41.6794 197.3 44.1594 195.18 44.1594 191.64C44.1594 188.02 41.6794 185.96 38.9594 185.96C36.2194 185.96 33.7594 188.06 33.7594 191.64C33.7594 195.22 36.1994 197.3 38.9594 197.3ZM38.9594 196.14C36.7994 196.14 34.9994 194.56 34.9994 191.64C34.9994 188.72 36.7594 187.1 38.9594 187.1C41.1194 187.1 42.9194 188.7 42.9194 191.64C42.9194 194.58 41.1394 196.14 38.9594 196.14ZM48.1869 191.14C48.1869 189 49.4269 187.36 51.5069 187.36C51.7869 187.36 52.0669 187.38 52.3469 187.44V186.16C52.1069 186.1 51.8069 186.08 51.5869 186.08C49.6469 186.08 48.5669 187.58 48.1869 188.84V186.26H46.9269V197H48.1869V191.14ZM57.4278 197.3C59.6878 197.3 61.3078 195.96 61.3078 194.16C61.3078 192.64 60.4878 191.76 58.8878 191.34L56.7478 190.78C55.5278 190.44 55.0678 189.82 55.0678 188.9C55.0678 187.76 56.0078 187.08 57.3478 187.08C58.6478 187.08 59.8278 187.8 59.9878 189.42H61.0878C60.9478 186.94 59.0478 185.96 57.4078 185.96C55.6278 185.96 53.8478 186.92 53.8478 188.96C53.8478 190.38 54.6478 191.4 56.0878 191.8L58.3278 192.4C59.7678 192.8 60.0878 193.4 60.0878 194.22C60.0878 195.46 59.0278 196.18 57.5478 196.18C56.1678 196.18 54.8478 195.74 54.5478 193.96H53.3878C53.6478 196.32 55.5078 197.3 57.4278 197.3ZM64.6353 183.66C65.1753 183.66 65.5553 183.34 65.5553 182.78C65.5553 182.24 65.1753 181.9 64.6353 181.9C64.1153 181.9 63.7553 182.24 63.7553 182.78C63.7553 183.34 64.1153 183.66 64.6353 183.66ZM64.0753 197H65.3353V186.26H64.0753V197ZM69.0948 197H70.3548V193.26L72.0348 191.62L76.2148 197H77.7148L72.8748 190.8L77.5148 186.26H75.9948L70.3548 191.78V181.6H69.0948V197ZM81.0189 191.14C81.0189 189 82.2589 187.36 84.3389 187.36C84.6189 187.36 84.8989 187.38 85.1789 187.44V186.16C84.9389 186.1 84.6389 186.08 84.4189 186.08C82.4789 186.08 81.3989 187.58 81.0189 188.84V186.26H79.7589V197H81.0189V191.14ZM87.9752 183.66C88.5152 183.66 88.8952 183.34 88.8952 182.78C88.8952 182.24 88.5152 181.9 87.9752 181.9C87.4552 181.9 87.0952 182.24 87.0952 182.78C87.0952 183.34 87.4552 183.66 87.9752 183.66ZM87.4152 197H88.6752V186.26H87.4152V197ZM99.9747 197H101.215V189.82C101.215 186.88 99.4347 185.96 97.5947 185.96C95.8747 185.96 94.3547 186.86 93.6947 188.28V186.26H92.4347V197H93.6947V190.2C93.6947 188.12 95.4947 187.06 97.2147 187.06C98.7347 187.06 99.9747 187.6 99.9747 189.8V197ZM108.076 192.06C106.436 192.06 105.396 191.08 105.396 189.54C105.396 187.98 106.416 187 108.036 187C109.676 187 110.716 187.98 110.716 189.54C110.716 191.08 109.656 192.06 108.076 192.06ZM104.896 197.82C104.896 196.72 105.676 195.96 107.656 195.96H109.436C110.916 195.96 111.816 196.56 111.816 197.52C111.816 198.94 110.356 199.7 108.316 199.7C106.056 199.7 104.896 198.96 104.896 197.82ZM108.116 193.1C110.456 193.1 111.896 191.6 111.896 189.54C111.896 188.54 111.376 187.66 110.856 187.18L112.736 186L112.216 185.16L110.016 186.5C109.516 186.18 108.876 185.96 108.036 185.96C105.996 185.96 104.216 187.28 104.216 189.54C104.216 190.56 104.616 191.44 105.296 192.08C104.656 192.4 104.096 192.98 104.096 193.8C104.096 194.5 104.556 195.24 105.536 195.58C104.476 195.88 103.616 196.66 103.616 197.86C103.616 199.86 105.656 200.74 108.276 200.74C111.076 200.74 112.996 199.5 112.996 197.38C112.996 195.66 111.376 194.88 109.636 194.88H106.816C105.676 194.88 105.156 194.36 105.156 193.72C105.156 193.18 105.416 192.8 105.896 192.54C106.516 192.9 107.256 193.1 108.116 193.1ZM118.326 197.3C120.586 197.3 122.206 195.96 122.206 194.16C122.206 192.64 121.386 191.76 119.786 191.34L117.646 190.78C116.426 190.44 115.966 189.82 115.966 188.9C115.966 187.76 116.906 187.08 118.246 187.08C119.546 187.08 120.726 187.8 120.886 189.42H121.986C121.846 186.94 119.946 185.96 118.306 185.96C116.526 185.96 114.746 186.92 114.746 188.96C114.746 190.38 115.546 191.4 116.986 191.8L119.226 192.4C120.666 192.8 120.986 193.4 120.986 194.22C120.986 195.46 119.926 196.18 118.446 196.18C117.066 196.18 115.746 195.74 115.446 193.96H114.286C114.546 196.32 116.406 197.3 118.326 197.3ZM124.974 197H126.234V181.6H124.974V197ZM129.113 197.3H130.313L131.113 196.3C131.993 196.96 133.073 197.32 134.213 197.32C136.933 197.32 139.413 195.2 139.413 191.66C139.413 189.94 138.853 188.56 137.953 187.6L139.293 185.9H138.093L137.253 186.96C136.373 186.32 135.313 185.98 134.213 185.98C131.473 185.98 129.013 188.08 129.013 191.66C129.013 193.34 129.553 194.7 130.413 195.66L129.113 197.3ZM130.253 191.66C130.253 188.74 132.013 187.12 134.213 187.12C135.073 187.12 135.893 187.38 136.533 187.88L131.153 194.7C130.593 193.96 130.253 192.94 130.253 191.66ZM134.213 196.16C133.333 196.16 132.493 195.9 131.833 195.38L137.213 188.54C137.813 189.3 138.173 190.34 138.173 191.66C138.173 194.6 136.393 196.16 134.213 196.16ZM145.221 197.3C147.481 197.3 149.101 195.96 149.101 194.16C149.101 192.64 148.281 191.76 146.681 191.34L144.541 190.78C143.321 190.44 142.861 189.82 142.861 188.9C142.861 187.76 143.801 187.08 145.141 187.08C146.441 187.08 147.621 187.8 147.781 189.42H148.881C148.741 186.94 146.841 185.96 145.201 185.96C143.421 185.96 141.641 186.92 141.641 188.96C141.641 190.38 142.441 191.4 143.881 191.8L146.121 192.4C147.561 192.8 147.881 193.4 147.881 194.22C147.881 195.46 146.821 196.18 145.341 196.18C143.961 196.18 142.641 195.74 142.341 193.96H141.181C141.441 196.32 143.301 197.3 145.221 197.3ZM159.408 197H160.648V189.82C160.648 186.88 158.868 185.96 157.028 185.96C155.308 185.96 153.788 186.86 153.128 188.28V186.26H151.868V197H153.128V190.2C153.128 188.12 154.928 187.06 156.648 187.06C158.168 187.06 159.408 187.6 159.408 189.8V197ZM164.87 183.66C165.41 183.66 165.79 183.34 165.79 182.78C165.79 182.24 165.41 181.9 164.87 181.9C164.35 181.9 163.99 182.24 163.99 182.78C163.99 183.34 164.35 183.66 164.87 183.66ZM164.31 197H165.57V186.26H164.31V197ZM176.869 197H178.109V189.82C178.109 186.88 176.329 185.96 174.489 185.96C172.769 185.96 171.249 186.86 170.589 188.28V186.26H169.329V197H170.589V190.2C170.589 188.12 172.389 187.06 174.109 187.06C175.629 187.06 176.869 187.6 176.869 189.8V197ZM184.971 192.06C183.331 192.06 182.291 191.08 182.291 189.54C182.291 187.98 183.311 187 184.931 187C186.571 187 187.611 187.98 187.611 189.54C187.611 191.08 186.551 192.06 184.971 192.06ZM181.791 197.82C181.791 196.72 182.571 195.96 184.551 195.96H186.331C187.811 195.96 188.711 196.56 188.711 197.52C188.711 198.94 187.251 199.7 185.211 199.7C182.951 199.7 181.791 198.96 181.791 197.82ZM185.011 193.1C187.351 193.1 188.791 191.6 188.791 189.54C188.791 188.54 188.271 187.66 187.751 187.18L189.631 186L189.111 185.16L186.911 186.5C186.411 186.18 185.771 185.96 184.931 185.96C182.891 185.96 181.111 187.28 181.111 189.54C181.111 190.56 181.511 191.44 182.191 192.08C181.551 192.4 180.991 192.98 180.991 193.8C180.991 194.5 181.451 195.24 182.431 195.58C181.371 195.88 180.511 196.66 180.511 197.86C180.511 199.86 182.551 200.74 185.171 200.74C187.971 200.74 189.891 199.5 189.891 197.38C189.891 195.66 188.271 194.88 186.531 194.88H183.711C182.571 194.88 182.051 194.36 182.051 193.72C182.051 193.18 182.311 192.8 182.791 192.54C183.411 192.9 184.151 193.1 185.011 193.1ZM196.518 197.3C198.698 197.3 200.678 195.74 200.998 193.44H199.878C199.578 194.94 198.158 196.16 196.518 196.16C194.398 196.16 192.618 194.9 192.558 191.82H201.038V191.44C201.038 187.9 198.858 185.96 196.358 185.96C193.698 185.96 191.298 188.06 191.298 191.54C191.298 195.26 193.438 197.3 196.518 197.3ZM196.358 187.1C198.198 187.1 199.638 188.26 199.818 190.82H192.638C192.838 188.28 194.638 187.1 196.358 187.1ZM211.264 197H212.504V189.82C212.504 186.88 210.724 185.96 208.884 185.96C207.164 185.96 205.644 186.86 204.984 188.28V186.26H203.724V197H204.984V190.2C204.984 188.12 206.784 187.06 208.504 187.06C210.024 187.06 211.264 187.6 211.264 189.8V197ZM220.405 197.3C222.585 197.3 224.565 195.74 224.885 193.44H223.765C223.465 194.94 222.045 196.16 220.405 196.16C218.285 196.16 216.505 194.9 216.445 191.82H224.925V191.44C224.925 187.9 222.745 185.96 220.245 185.96C217.585 185.96 215.185 188.06 215.185 191.54C215.185 195.26 217.325 197.3 220.405 197.3ZM220.245 187.1C222.085 187.1 223.525 188.26 223.705 190.82H216.525C216.725 188.28 218.525 187.1 220.245 187.1ZM235.455 197.3C237.715 197.3 239.335 195.96 239.335 194.16C239.335 192.64 238.515 191.76 236.915 191.34L234.775 190.78C233.555 190.44 233.095 189.82 233.095 188.9C233.095 187.76 234.035 187.08 235.375 187.08C236.675 187.08 237.855 187.8 238.015 189.42H239.115C238.975 186.94 237.075 185.96 235.435 185.96C233.655 185.96 231.875 186.92 231.875 188.96C231.875 190.38 232.675 191.4 234.115 191.8L236.355 192.4C237.795 192.8 238.115 193.4 238.115 194.22C238.115 195.46 237.055 196.18 235.575 196.18C234.195 196.18 232.875 195.74 232.575 193.96H231.415C231.675 196.32 233.535 197.3 235.455 197.3ZM246.323 197.3C249.043 197.3 251.523 195.18 251.523 191.64C251.523 188.02 249.043 185.96 246.323 185.96C243.583 185.96 241.123 188.06 241.123 191.64C241.123 195.22 243.563 197.3 246.323 197.3ZM246.323 196.14C244.163 196.14 242.363 194.56 242.363 191.64C242.363 188.72 244.123 187.1 246.323 187.1C248.483 187.1 250.283 188.7 250.283 191.64C250.283 194.58 248.503 196.14 246.323 196.14ZM267.75 197H268.99V189.88C268.99 186.92 267.47 185.96 265.81 185.96C264.17 185.96 262.85 186.92 262.11 188.42C261.69 186.6 260.43 185.96 259.07 185.96C257.51 185.96 256.27 186.82 255.55 188.26V186.26H254.29V197H255.55V190.18C255.55 188.12 257.19 187.06 258.67 187.06C260.13 187.06 261.03 187.74 261.03 189.8V197H262.27V190.26C262.27 188.1 263.87 187.06 265.41 187.06C266.83 187.06 267.75 187.74 267.75 189.78V197ZM278.014 183.66C278.554 183.66 278.934 183.34 278.934 182.78C278.934 182.24 278.554 181.9 278.014 181.9C277.494 181.9 277.134 182.24 277.134 182.78C277.134 183.34 277.494 183.66 278.014 183.66ZM277.454 197H278.714V186.26H277.454V197ZM294.958 197H296.198V181.6H294.958V188.14C294.398 186.96 292.958 185.96 291.198 185.96C288.678 185.96 286.298 188.04 286.298 191.34C286.298 195 288.558 197.3 291.378 197.3C292.958 197.3 294.278 196.38 294.958 195.06V197ZM291.378 196.16C289.298 196.16 287.538 194.58 287.538 191.42C287.538 188.5 289.298 187.1 291.398 187.1C292.798 187.1 294.958 188.14 294.958 190.42V192.4C294.958 194.76 293.178 196.16 291.378 196.16ZM302.455 196.24C300.835 196.24 300.095 195.34 300.095 194.14C300.095 192.58 301.295 191.92 303.315 191.92H305.875V193.08C305.875 195.2 303.915 196.24 302.455 196.24ZM308.555 195.96C308.375 195.98 308.235 196 308.075 196C307.455 196 307.115 195.7 307.115 195.12V189.22C307.115 187.2 305.675 185.96 303.195 185.96C301.275 185.96 299.555 187.02 299.315 189.2H300.415C300.615 187.92 301.615 187.06 303.155 187.06C304.815 187.06 305.875 187.8 305.875 189.46V190.9H303.255C300.895 190.9 298.875 191.68 298.875 194.2C298.875 195.8 299.855 197.3 302.335 197.3C303.895 197.3 305.295 196.32 305.875 195.06V195.34C305.875 196.5 306.635 197.08 307.795 197.08C308.155 197.08 308.335 197.04 308.555 196.98V195.96ZM313.975 192.06C312.335 192.06 311.295 191.08 311.295 189.54C311.295 187.98 312.315 187 313.935 187C315.575 187 316.615 187.98 316.615 189.54C316.615 191.08 315.555 192.06 313.975 192.06ZM310.795 197.82C310.795 196.72 311.575 195.96 313.555 195.96H315.335C316.815 195.96 317.715 196.56 317.715 197.52C317.715 198.94 316.255 199.7 314.215 199.7C311.955 199.7 310.795 198.96 310.795 197.82ZM314.015 193.1C316.355 193.1 317.795 191.6 317.795 189.54C317.795 188.54 317.275 187.66 316.755 187.18L318.635 186L318.115 185.16L315.915 186.5C315.415 186.18 314.775 185.96 313.935 185.96C311.895 185.96 310.115 187.28 310.115 189.54C310.115 190.56 310.515 191.44 311.195 192.08C310.555 192.4 309.995 192.98 309.995 193.8C309.995 194.5 310.455 195.24 311.435 195.58C310.375 195.88 309.515 196.66 309.515 197.86C309.515 199.86 311.555 200.74 314.175 200.74C316.975 200.74 318.895 199.5 318.895 197.38C318.895 195.66 317.275 194.88 315.535 194.88H312.715C311.575 194.88 311.055 194.36 311.055 193.72C311.055 193.18 311.315 192.8 311.795 192.54C312.415 192.9 313.155 193.1 314.015 193.1ZM322.402 197.3C322.882 197.3 323.322 196.94 323.322 196.38C323.322 195.84 322.882 195.48 322.402 195.48C321.922 195.48 321.482 195.84 321.482 196.38C321.482 196.94 321.922 197.3 322.402 197.3ZM332.163 197H337.023C341.243 197 343.843 194.16 343.843 189.5C343.843 184.98 341.163 182 337.023 182H332.163V197ZM336.743 183.16C340.303 183.16 342.543 185.24 342.543 189.5C342.543 193.62 340.443 195.84 336.863 195.84H333.443V183.16H336.743ZM350.114 197.3C351.734 197.3 353.154 196.34 353.834 194.88V197H355.074V186.26H353.834V192.88C353.834 195.12 352.054 196.18 350.474 196.18C348.854 196.18 347.794 195.54 347.794 193.26V186.26H346.534V193.3C346.534 196.28 348.174 197.3 350.114 197.3ZM28.88 229H30.14V225.26L31.82 223.62L36 229H37.5L32.66 222.8L37.3 218.26H35.78L30.14 223.78V213.6H28.88V229ZM41.9864 228.24C40.3664 228.24 39.6264 227.34 39.6264 226.14C39.6264 224.58 40.8264 223.92 42.8464 223.92H45.4064V225.08C45.4064 227.2 43.4464 228.24 41.9864 228.24ZM48.0864 227.96C47.9064 227.98 47.7664 228 47.6064 228C46.9864 228 46.6464 227.7 46.6464 227.12V221.22C46.6464 219.2 45.2064 217.96 42.7264 217.96C40.8064 217.96 39.0864 219.02 38.8464 221.2H39.9464C40.1464 219.92 41.1464 219.06 42.6864 219.06C44.3464 219.06 45.4064 219.8 45.4064 221.46V222.9H42.7864C40.4264 222.9 38.4064 223.68 38.4064 226.2C38.4064 227.8 39.3864 229.3 41.8664 229.3C43.4264 229.3 44.8264 228.32 45.4064 227.06V227.34C45.4064 228.5 46.1664 229.08 47.3264 229.08C47.6864 229.08 47.8664 229.04 48.0864 228.98V227.96ZM57.8458 229H59.0858V221.82C59.0858 218.88 57.3058 217.96 55.4658 217.96C53.7458 217.96 52.2258 218.86 51.5658 220.28V218.26H50.3058V229H51.5658V222.2C51.5658 220.12 53.3658 219.06 55.0858 219.06C56.6058 219.06 57.8458 219.6 57.8458 221.8V229ZM71.7719 229.3C74.4919 229.3 76.9719 227.18 76.9719 223.64C76.9719 220.02 74.4919 217.96 71.7719 217.96C69.0319 217.96 66.5719 220.06 66.5719 223.64C66.5719 227.22 69.0119 229.3 71.7719 229.3ZM71.7719 228.14C69.6119 228.14 67.8119 226.56 67.8119 223.64C67.8119 220.72 69.5719 219.1 71.7719 219.1C73.9319 219.1 75.7319 220.7 75.7319 223.64C75.7319 226.58 73.9519 228.14 71.7719 228.14ZM82.9394 224.06C81.2994 224.06 80.2594 223.08 80.2594 221.54C80.2594 219.98 81.2794 219 82.8994 219C84.5394 219 85.5794 219.98 85.5794 221.54C85.5794 223.08 84.5194 224.06 82.9394 224.06ZM79.7594 229.82C79.7594 228.72 80.5394 227.96 82.5194 227.96H84.2994C85.7794 227.96 86.6794 228.56 86.6794 229.52C86.6794 230.94 85.2194 231.7 83.1794 231.7C80.9194 231.7 79.7594 230.96 79.7594 229.82ZM82.9794 225.1C85.3194 225.1 86.7594 223.6 86.7594 221.54C86.7594 220.54 86.2394 219.66 85.7194 219.18L87.5994 218L87.0794 217.16L84.8794 218.5C84.3794 218.18 83.7394 217.96 82.8994 217.96C80.8594 217.96 79.0794 219.28 79.0794 221.54C79.0794 222.56 79.4794 223.44 80.1594 224.08C79.5194 224.4 78.9594 224.98 78.9594 225.8C78.9594 226.5 79.4194 227.24 80.3994 227.58C79.3394 227.88 78.4794 228.66 78.4794 229.86C78.4794 231.86 80.5194 232.74 83.1394 232.74C85.9394 232.74 87.8594 231.5 87.8594 229.38C87.8594 227.66 86.2394 226.88 84.4994 226.88H81.6794C80.5394 226.88 80.0194 226.36 80.0194 225.72C80.0194 225.18 80.2794 224.8 80.7594 224.54C81.3794 224.9 82.1194 225.1 82.9794 225.1ZM93.1895 229.3C95.4495 229.3 97.0695 227.96 97.0695 226.16C97.0695 224.64 96.2495 223.76 94.6495 223.34L92.5095 222.78C91.2895 222.44 90.8295 221.82 90.8295 220.9C90.8295 219.76 91.7695 219.08 93.1095 219.08C94.4095 219.08 95.5895 219.8 95.7495 221.42H96.8495C96.7095 218.94 94.8095 217.96 93.1695 217.96C91.3895 217.96 89.6095 218.92 89.6095 220.96C89.6095 222.38 90.4095 223.4 91.8495 223.8L94.0895 224.4C95.5295 224.8 95.8495 225.4 95.8495 226.22C95.8495 227.46 94.7895 228.18 93.3095 228.18C91.9295 228.18 90.6095 227.74 90.3095 225.96H89.1495C89.4095 228.32 91.2695 229.3 93.1895 229.3ZM102.377 228.24C100.757 228.24 100.017 227.34 100.017 226.14C100.017 224.58 101.217 223.92 103.237 223.92H105.797V225.08C105.797 227.2 103.837 228.24 102.377 228.24ZM108.477 227.96C108.297 227.98 108.157 228 107.997 228C107.377 228 107.037 227.7 107.037 227.12V221.22C107.037 219.2 105.597 217.96 103.117 217.96C101.197 217.96 99.477 219.02 99.237 221.2H100.337C100.537 219.92 101.537 219.06 103.077 219.06C104.737 219.06 105.797 219.8 105.797 221.46V222.9H103.177C100.817 222.9 98.797 223.68 98.797 226.2C98.797 227.8 99.777 229.3 102.257 229.3C103.817 229.3 105.217 228.32 105.797 227.06V227.34C105.797 228.5 106.557 229.08 107.717 229.08C108.077 229.08 108.257 229.04 108.477 228.98V227.96ZM103.257 215.94C102.437 215.94 101.817 215.38 101.817 214.48C101.817 213.48 102.457 213.02 103.257 213.02C104.077 213.02 104.717 213.5 104.717 214.48C104.717 215.4 104.057 215.94 103.257 215.94ZM103.257 216.74C104.557 216.74 105.557 215.92 105.557 214.48C105.557 213.12 104.557 212.22 103.257 212.22C102.017 212.22 100.977 213.02 100.977 214.48C100.977 215.82 102.017 216.74 103.257 216.74ZM115.501 229H116.761V225.26L118.441 223.62L122.621 229H124.121L119.281 222.8L123.921 218.26H122.401L116.761 223.78V213.6H115.501V229ZM130.092 229.3C132.812 229.3 135.292 227.18 135.292 223.64C135.292 220.02 132.812 217.96 130.092 217.96C127.352 217.96 124.892 220.06 124.892 223.64C124.892 227.22 127.332 229.3 130.092 229.3ZM130.092 228.14C127.932 228.14 126.132 226.56 126.132 223.64C126.132 220.72 127.892 219.1 130.092 219.1C132.252 219.1 134.052 220.7 134.052 223.64C134.052 226.58 132.272 228.14 130.092 228.14ZM145.6 229H146.84V221.82C146.84 218.88 145.06 217.96 143.22 217.96C141.5 217.96 139.98 218.86 139.32 220.28V218.26H138.06V229H139.32V222.2C139.32 220.12 141.12 219.06 142.84 219.06C144.36 219.06 145.6 219.6 145.6 221.8V229ZM154.561 228.98V227.98C154.321 228.06 153.881 228.12 153.541 228.12C152.641 228.12 151.901 227.82 151.901 226.92V219.34H154.261V218.26H151.901V215.56H150.701V218.26H148.861V219.34H150.661V227.1C150.661 228.58 151.801 229.2 153.261 229.2C153.741 229.2 154.261 229.12 154.561 228.98ZM159.408 228.24C157.788 228.24 157.048 227.34 157.048 226.14C157.048 224.58 158.248 223.92 160.268 223.92H162.828V225.08C162.828 227.2 160.868 228.24 159.408 228.24ZM165.508 227.96C165.328 227.98 165.188 228 165.028 228C164.408 228 164.068 227.7 164.068 227.12V221.22C164.068 219.2 162.628 217.96 160.148 217.96C158.228 217.96 156.508 219.02 156.268 221.2H157.368C157.568 219.92 158.568 219.06 160.108 219.06C161.768 219.06 162.828 219.8 162.828 221.46V222.9H160.208C157.848 222.9 155.828 223.68 155.828 226.2C155.828 227.8 156.808 229.3 159.288 229.3C160.848 229.3 162.248 228.32 162.828 227.06V227.34C162.828 228.5 163.588 229.08 164.748 229.08C165.108 229.08 165.288 229.04 165.508 228.98V227.96ZM167.728 229H168.988V225.26L170.668 223.62L174.848 229H176.348L171.508 222.8L176.148 218.26H174.628L168.988 223.78V213.6H167.728V229ZM182.452 228.98V227.98C182.212 228.06 181.772 228.12 181.432 228.12C180.532 228.12 179.792 227.82 179.792 226.92V219.34H182.152V218.26H179.792V215.56H178.592V218.26H176.752V219.34H178.552V227.1C178.552 228.58 179.692 229.2 181.152 229.2C181.632 229.2 182.152 229.12 182.452 228.98ZM188.999 229.3C191.179 229.3 193.159 227.74 193.479 225.44H192.359C192.059 226.94 190.639 228.16 188.999 228.16C186.879 228.16 185.099 226.9 185.039 223.82H193.519V223.44C193.519 219.9 191.339 217.96 188.839 217.96C186.179 217.96 183.779 220.06 183.779 223.54C183.779 227.26 185.919 229.3 188.999 229.3ZM188.839 219.1C190.679 219.1 192.119 220.26 192.299 222.82H185.119C185.319 220.28 187.119 219.1 188.839 219.1ZM200.949 229H202.189V226.98C202.809 228.28 204.169 229.3 205.889 229.3C208.629 229.3 210.869 227.04 210.869 223.26C210.869 220.04 208.549 217.96 206.029 217.96C204.109 217.96 202.729 219.04 202.189 220.18V213.6H200.949V229ZM205.769 228.16C204.049 228.16 202.189 226.94 202.189 224.4V222.54C202.189 220.22 204.229 219.1 205.809 219.1C207.869 219.1 209.629 220.4 209.629 223.38C209.629 226.52 207.949 228.16 205.769 228.16ZM216.186 228.24C214.566 228.24 213.826 227.34 213.826 226.14C213.826 224.58 215.026 223.92 217.046 223.92H219.606V225.08C219.606 227.2 217.646 228.24 216.186 228.24ZM222.286 227.96C222.106 227.98 221.966 228 221.806 228C221.186 228 220.846 227.7 220.846 227.12V221.22C220.846 219.2 219.406 217.96 216.926 217.96C215.006 217.96 213.286 219.02 213.046 221.2H214.146C214.346 219.92 215.346 219.06 216.886 219.06C218.546 219.06 219.606 219.8 219.606 221.46V222.9H216.986C214.626 222.9 212.606 223.68 212.606 226.2C212.606 227.8 213.586 229.3 216.066 229.3C217.626 229.3 219.026 228.32 219.606 227.06V227.34C219.606 228.5 220.366 229.08 221.526 229.08C221.886 229.08 222.066 229.04 222.286 228.98V227.96ZM232.045 229H233.285V221.82C233.285 218.88 231.505 217.96 229.665 217.96C227.945 217.96 226.425 218.86 225.765 220.28V218.26H224.505V229H225.765V222.2C225.765 220.12 227.565 219.06 229.285 219.06C230.805 219.06 232.045 219.6 232.045 221.8V229ZM236.946 229H238.206V225.26L239.886 223.62L244.066 229H245.566L240.726 222.8L245.366 218.26H243.846L238.206 223.78V213.6H236.946V229ZM251.558 229.3C253.738 229.3 255.717 227.74 256.038 225.44H254.918C254.618 226.94 253.198 228.16 251.558 228.16C249.438 228.16 247.658 226.9 247.598 223.82H256.078V223.44C256.078 219.9 253.898 217.96 251.398 217.96C248.738 217.96 246.338 220.06 246.338 223.54C246.338 227.26 248.478 229.3 251.558 229.3ZM251.398 219.1C253.238 219.1 254.678 220.26 254.858 222.82H247.678C247.878 220.28 249.678 219.1 251.398 219.1ZM266.303 229H267.543V221.82C267.543 218.88 265.763 217.96 263.923 217.96C262.203 217.96 260.683 218.86 260.023 220.28V218.26H258.763V229H260.023V222.2C260.023 220.12 261.823 219.06 263.543 219.06C265.063 219.06 266.303 219.6 266.303 221.8V229ZM283.689 229H284.929V213.6H283.689V220.14C283.129 218.96 281.689 217.96 279.929 217.96C277.409 217.96 275.029 220.04 275.029 223.34C275.029 227 277.289 229.3 280.109 229.3C281.689 229.3 283.009 228.38 283.689 227.06V229ZM280.109 228.16C278.029 228.16 276.269 226.58 276.269 223.42C276.269 220.5 278.029 219.1 280.129 219.1C281.529 219.1 283.689 220.14 283.689 222.42V224.4C283.689 226.76 281.909 228.16 280.109 228.16ZM289.206 215.66C289.746 215.66 290.126 215.34 290.126 214.78C290.126 214.24 289.746 213.9 289.206 213.9C288.686 213.9 288.326 214.24 288.326 214.78C288.326 215.34 288.686 215.66 289.206 215.66ZM288.646 229H289.906V218.26H288.646V229ZM301.205 229H302.445V221.82C302.445 218.88 300.665 217.96 298.825 217.96C297.105 217.96 295.585 218.86 294.925 220.28V218.26H293.665V229H294.925V222.2C294.925 220.12 296.725 219.06 298.445 219.06C299.965 219.06 301.205 219.6 301.205 221.8V229ZM309.631 223.8H315.831V222.58H309.631V223.8ZM323.198 229H328.058C332.278 229 334.878 226.16 334.878 221.5C334.878 216.98 332.198 214 328.058 214H323.198V229ZM327.778 215.16C331.338 215.16 333.578 217.24 333.578 221.5C333.578 225.62 331.478 227.84 327.898 227.84H324.478V215.16H327.778ZM337.749 229H339.009V215.92L348.229 229H349.549V214H348.289V227.06L339.109 214H337.749V229ZM353.612 229H358.612C361.272 229 363.072 227.36 363.072 224.82C363.072 222.98 361.852 221.72 360.172 221.26C361.372 220.72 362.432 219.58 362.432 217.88C362.432 215.46 360.812 214 358.312 214H353.612V229ZM358.512 221.92C360.392 221.92 361.772 223.02 361.772 224.88C361.772 226.58 360.652 227.84 358.612 227.84H354.892V221.92H358.512ZM358.172 215.16C360.152 215.16 361.132 216.26 361.132 217.88C361.132 219.84 359.952 220.76 358.192 220.76H354.892V215.16H358.172ZM33.12 261.3C35.3 261.3 37.28 259.74 37.6 257.44H36.48C36.18 258.94 34.76 260.16 33.12 260.16C31 260.16 29.22 258.9 29.16 255.82H37.64V255.44C37.64 251.9 35.46 249.96 32.96 249.96C30.3 249.96 27.9 252.06 27.9 255.54C27.9 259.26 30.04 261.3 33.12 261.3ZM32.96 251.1C34.8 251.1 36.24 252.26 36.42 254.82H29.24C29.44 252.28 31.24 251.1 32.96 251.1ZM40.3253 261H41.5853V245.6H40.3253V261ZM45.3448 261H46.6048V245.6H45.3448V261ZM54.6044 261.3C56.7844 261.3 58.7644 259.74 59.0844 257.44H57.9644C57.6644 258.94 56.2444 260.16 54.6044 260.16C52.4844 260.16 50.7044 258.9 50.6444 255.82H59.1244V255.44C59.1244 251.9 56.9444 249.96 54.4444 249.96C51.7844 249.96 49.3844 252.06 49.3844 255.54C49.3844 259.26 51.5244 261.3 54.6044 261.3ZM54.4444 251.1C56.2844 251.1 57.7244 252.26 57.9044 254.82H50.7244C50.9244 252.28 52.7244 251.1 54.4444 251.1ZM63.0697 255.14C63.0697 253 64.3097 251.36 66.3897 251.36C66.6697 251.36 66.9497 251.38 67.2297 251.44V250.16C66.9897 250.1 66.6897 250.08 66.4697 250.08C64.5297 250.08 63.4497 251.58 63.0697 252.84V250.26H61.8097V261H63.0697V255.14ZM78.1106 261.3C81.0106 261.3 83.0506 259.74 83.0506 257.14C83.0506 254.88 81.4306 253.74 79.7706 253.32L77.2706 252.66C75.5906 252.22 74.8506 251.28 74.8506 249.92C74.8506 248.1 76.1906 247.1 78.0906 247.1C79.7906 247.1 81.2106 248 81.5506 250.1H82.7506C82.4506 247.32 80.3506 245.9 78.0906 245.9C75.7506 245.9 73.5506 247.36 73.5506 249.96C73.5506 251.76 74.6306 253.26 76.9106 253.88L79.1306 254.48C80.8706 254.96 81.7506 255.62 81.7506 257.32C81.7506 259.12 80.2106 260.08 78.1506 260.12C76.1706 260.14 74.7306 259.38 74.1106 257.06H72.9106C73.4506 260 75.4706 261.3 78.1106 261.3ZM90.4369 260.16C88.6769 260.16 86.8569 258.88 86.8569 256.4V254.54C86.8569 252.24 88.8969 251.1 90.4569 251.1C92.5569 251.1 94.2969 252.42 94.2969 255.38C94.2969 258.58 92.5769 260.16 90.4369 260.16ZM90.5769 261.3C93.2969 261.3 95.5369 259 95.5369 255.32C95.5369 251.98 93.1769 249.96 90.7169 249.96C88.7769 249.96 87.3769 251.06 86.8569 252.22V250.26H85.6169V265H86.8569V259.04C87.4769 260.36 88.8969 261.3 90.5769 261.3ZM100.854 260.24C99.2336 260.24 98.4936 259.34 98.4936 258.14C98.4936 256.58 99.6936 255.92 101.714 255.92H104.274V257.08C104.274 259.2 102.314 260.24 100.854 260.24ZM106.954 259.96C106.774 259.98 106.634 260 106.474 260C105.854 260 105.514 259.7 105.514 259.12V253.22C105.514 251.2 104.074 249.96 101.594 249.96C99.6736 249.96 97.9536 251.02 97.7136 253.2H98.8136C99.0136 251.92 100.014 251.06 101.554 251.06C103.214 251.06 104.274 251.8 104.274 253.46V254.9H101.654C99.2936 254.9 97.2736 255.68 97.2736 258.2C97.2736 259.8 98.2536 261.3 100.734 261.3C102.294 261.3 103.694 260.32 104.274 259.06V259.34C104.274 260.5 105.034 261.08 106.194 261.08C106.554 261.08 106.734 261.04 106.954 260.98V259.96ZM110.433 255.14C110.433 253 111.673 251.36 113.753 251.36C114.033 251.36 114.313 251.38 114.593 251.44V250.16C114.353 250.1 114.053 250.08 113.833 250.08C111.893 250.08 110.813 251.58 110.433 252.84V250.26H109.173V261H110.433V255.14ZM120.874 261.3C123.054 261.3 125.034 259.74 125.354 257.44H124.234C123.934 258.94 122.514 260.16 120.874 260.16C118.754 260.16 116.974 258.9 116.914 255.82H125.394V255.44C125.394 251.9 123.214 249.96 120.714 249.96C118.054 249.96 115.654 252.06 115.654 255.54C115.654 259.26 117.794 261.3 120.874 261.3ZM120.714 251.1C122.554 251.1 123.994 252.26 124.174 254.82H116.994C117.194 252.28 118.994 251.1 120.714 251.1ZM128.299 261H133.299C135.959 261 137.759 259.36 137.759 256.82C137.759 254.98 136.539 253.72 134.859 253.26C136.059 252.72 137.119 251.58 137.119 249.88C137.119 247.46 135.499 246 132.999 246H128.299V261ZM133.199 253.92C135.079 253.92 136.459 255.02 136.459 256.88C136.459 258.58 135.339 259.84 133.299 259.84H129.579V253.92H133.199ZM132.859 247.16C134.839 247.16 135.819 248.26 135.819 249.88C135.819 251.84 134.639 252.76 132.879 252.76H129.579V247.16H132.859ZM143.1 260.24C141.48 260.24 140.74 259.34 140.74 258.14C140.74 256.58 141.94 255.92 143.96 255.92H146.52V257.08C146.52 259.2 144.56 260.24 143.1 260.24ZM149.2 259.96C149.02 259.98 148.88 260 148.72 260C148.1 260 147.76 259.7 147.76 259.12V253.22C147.76 251.2 146.32 249.96 143.84 249.96C141.92 249.96 140.2 251.02 139.96 253.2H141.06C141.26 251.92 142.26 251.06 143.8 251.06C145.46 251.06 146.52 251.8 146.52 253.46V254.9H143.9C141.54 254.9 139.52 255.68 139.52 258.2C139.52 259.8 140.5 261.3 142.98 261.3C144.54 261.3 145.94 260.32 146.52 259.06V259.34C146.52 260.5 147.28 261.08 148.44 261.08C148.8 261.08 148.98 261.04 149.2 260.98V259.96ZM158.959 261H160.199V253.82C160.199 250.88 158.419 249.96 156.579 249.96C154.859 249.96 153.339 250.86 152.679 252.28V250.26H151.419V261H152.679V254.2C152.679 252.12 154.479 251.06 156.199 251.06C157.719 251.06 158.959 251.6 158.959 253.8V261ZM163.86 261H165.12V257.26L166.8 255.62L170.98 261H172.48L167.64 254.8L172.28 250.26H170.76L165.12 255.78V245.6H163.86V261ZM181.689 261H183.029V245.9H182.009C181.829 248.1 181.409 248.46 178.589 248.42V249.4H181.689V261ZM188.262 261.3C188.742 261.3 189.182 260.94 189.182 260.38C189.182 259.84 188.742 259.48 188.262 259.48C187.782 259.48 187.342 259.84 187.342 260.38C187.342 260.94 187.782 261.3 188.262 261.3Z" fill="black"/>
<g clip-path="url(#clip0)">
<path d="M84.56 133H85.8V117.6H84.56V124.14C84 122.96 82.56 121.96 80.8 121.96C78.28 121.96 75.9 124.04 75.9 127.34C75.9 131 78.16 133.3 80.98 133.3C82.56 133.3 83.88 132.38 84.56 131.06V133ZM80.98 132.16C78.9 132.16 77.14 130.58 77.14 127.42C77.14 124.5 78.9 123.1 81 123.1C82.4 123.1 84.56 124.14 84.56 126.42V128.4C84.56 130.76 82.78 132.16 80.98 132.16ZM97.0567 133H98.2967V125.82C98.2967 122.88 96.5167 121.96 94.6767 121.96C92.9567 121.96 91.4367 122.86 90.7767 124.28V122.26H89.5167V133H90.7767V126.2C90.7767 124.12 92.5767 123.06 94.2967 123.06C95.8167 123.06 97.0567 123.6 97.0567 125.8V133ZM101.898 133H103.138V130.98C103.758 132.28 105.118 133.3 106.838 133.3C109.578 133.3 111.818 131.04 111.818 127.26C111.818 124.04 109.498 121.96 106.978 121.96C105.058 121.96 103.678 123.04 103.138 124.18V117.6H101.898V133ZM106.718 132.16C104.998 132.16 103.138 130.94 103.138 128.4V126.54C103.138 124.22 105.178 123.1 106.758 123.1C108.818 123.1 110.578 124.4 110.578 127.38C110.578 130.52 108.898 132.16 106.718 132.16ZM115.715 133.3C116.195 133.3 116.635 132.94 116.635 132.38C116.635 131.84 116.195 131.48 115.715 131.48C115.235 131.48 114.795 131.84 114.795 132.38C114.795 132.94 115.235 133.3 115.715 133.3ZM128.131 133H129.371V125.82C129.371 122.88 127.591 121.96 125.751 121.96C124.031 121.96 122.511 122.86 121.851 124.28V122.26H120.591V133H121.851V126.2C121.851 124.12 123.651 123.06 125.371 123.06C126.891 123.06 128.131 123.6 128.131 125.8V133ZM137.252 133.3C139.972 133.3 142.452 131.18 142.452 127.64C142.452 124.02 139.972 121.96 137.252 121.96C134.512 121.96 132.052 124.06 132.052 127.64C132.052 131.22 134.492 133.3 137.252 133.3ZM137.252 132.14C135.092 132.14 133.292 130.56 133.292 127.64C133.292 124.72 135.052 123.1 137.252 123.1C139.412 123.1 141.212 124.7 141.212 127.64C141.212 130.58 139.432 132.14 137.252 132.14Z" fill="black"/>
<path d="M157.076 123.277L150.398 123.253L150.394 122.213L158.849 122.243L158.879 130.698L157.839 130.694L157.815 124.016L149.112 132.719L148.373 131.98L157.076 123.277Z" fill="black"/>
<rect width="1280" height="2" transform="matrix(-1 0 0 1 758 140)" fill="black"/>
</g>
<g clip-path="url(#clip1)">
<path d="M216.92 133.3C219.18 133.3 220.8 131.96 220.8 130.16C220.8 128.64 219.98 127.76 218.38 127.34L216.24 126.78C215.02 126.44 214.56 125.82 214.56 124.9C214.56 123.76 215.5 123.08 216.84 123.08C218.14 123.08 219.32 123.8 219.48 125.42H220.58C220.44 122.94 218.54 121.96 216.9 121.96C215.12 121.96 213.34 122.92 213.34 124.96C213.34 126.38 214.14 127.4 215.58 127.8L217.82 128.4C219.26 128.8 219.58 129.4 219.58 130.22C219.58 131.46 218.52 132.18 217.04 132.18C215.66 132.18 214.34 131.74 214.04 129.96H212.88C213.14 132.32 215 133.3 216.92 133.3ZM228.328 132.16C226.568 132.16 224.748 130.88 224.748 128.4V126.54C224.748 124.24 226.788 123.1 228.348 123.1C230.448 123.1 232.188 124.42 232.188 127.38C232.188 130.58 230.468 132.16 228.328 132.16ZM228.468 133.3C231.188 133.3 233.428 131 233.428 127.32C233.428 123.98 231.068 121.96 228.608 121.96C226.668 121.96 225.268 123.06 224.748 124.22V122.26H223.508V137H224.748V131.04C225.368 132.36 226.788 133.3 228.468 133.3ZM238.744 132.24C237.124 132.24 236.384 131.34 236.384 130.14C236.384 128.58 237.584 127.92 239.604 127.92H242.164V129.08C242.164 131.2 240.204 132.24 238.744 132.24ZM244.844 131.96C244.664 131.98 244.524 132 244.364 132C243.744 132 243.404 131.7 243.404 131.12V125.22C243.404 123.2 241.964 121.96 239.484 121.96C237.564 121.96 235.844 123.02 235.604 125.2H236.704C236.904 123.92 237.904 123.06 239.444 123.06C241.104 123.06 242.164 123.8 242.164 125.46V126.9H239.544C237.184 126.9 235.164 127.68 235.164 130.2C235.164 131.8 236.144 133.3 238.624 133.3C240.184 133.3 241.584 132.32 242.164 131.06V131.34C242.164 132.5 242.924 133.08 244.084 133.08C244.444 133.08 244.624 133.04 244.844 132.98V131.96ZM248.324 127.14C248.324 125 249.564 123.36 251.644 123.36C251.924 123.36 252.204 123.38 252.484 123.44V122.16C252.244 122.1 251.944 122.08 251.724 122.08C249.784 122.08 248.704 123.58 248.324 124.84V122.26H247.064V133H248.324V127.14ZM258.765 133.3C260.945 133.3 262.925 131.74 263.245 129.44H262.125C261.825 130.94 260.405 132.16 258.765 132.16C256.645 132.16 254.865 130.9 254.805 127.82H263.285V127.44C263.285 123.9 261.105 121.96 258.605 121.96C255.945 121.96 253.545 124.06 253.545 127.54C253.545 131.26 255.685 133.3 258.765 133.3ZM258.605 123.1C260.445 123.1 261.885 124.26 262.065 126.82H254.885C255.085 124.28 256.885 123.1 258.605 123.1ZM265.91 133H267.15V130.98C267.77 132.28 269.13 133.3 270.85 133.3C273.59 133.3 275.83 131.04 275.83 127.26C275.83 124.04 273.51 121.96 270.99 121.96C269.07 121.96 267.69 123.04 267.15 124.18V117.6H265.91V133ZM270.73 132.16C269.01 132.16 267.15 130.94 267.15 128.4V126.54C267.15 124.22 269.19 123.1 270.77 123.1C272.83 123.1 274.59 124.4 274.59 127.38C274.59 130.52 272.91 132.16 270.73 132.16ZM281.147 132.24C279.527 132.24 278.787 131.34 278.787 130.14C278.787 128.58 279.987 127.92 282.007 127.92H284.567V129.08C284.567 131.2 282.607 132.24 281.147 132.24ZM287.247 131.96C287.067 131.98 286.927 132 286.767 132C286.147 132 285.807 131.7 285.807 131.12V125.22C285.807 123.2 284.367 121.96 281.887 121.96C279.967 121.96 278.247 123.02 278.007 125.2H279.107C279.307 123.92 280.307 123.06 281.847 123.06C283.507 123.06 284.567 123.8 284.567 125.46V126.9H281.947C279.587 126.9 277.567 127.68 277.567 130.2C277.567 131.8 278.547 133.3 281.027 133.3C282.587 133.3 283.987 132.32 284.567 131.06V131.34C284.567 132.5 285.327 133.08 286.487 133.08C286.847 133.08 287.027 133.04 287.247 132.98V131.96ZM297.006 133H298.246V125.82C298.246 122.88 296.466 121.96 294.626 121.96C292.906 121.96 291.386 122.86 290.726 124.28V122.26H289.466V133H290.726V126.2C290.726 124.12 292.526 123.06 294.246 123.06C295.766 123.06 297.006 123.6 297.006 125.8V133ZM301.907 133H303.167V129.26L304.847 127.62L309.027 133H310.527L305.687 126.8L310.327 122.26H308.807L303.167 127.78V117.6H301.907V133ZM314.931 133H316.271V117.9H315.251C315.071 120.1 314.651 120.46 311.831 120.42V121.4H314.931V133ZM321.504 133.3C321.984 133.3 322.424 132.94 322.424 132.38C322.424 131.84 321.984 131.48 321.504 131.48C321.024 131.48 320.584 131.84 320.584 132.38C320.584 132.94 321.024 133.3 321.504 133.3ZM333.92 133H335.16V125.82C335.16 122.88 333.38 121.96 331.54 121.96C329.82 121.96 328.3 122.86 327.64 124.28V122.26H326.38V133H327.64V126.2C327.64 124.12 329.44 123.06 331.16 123.06C332.68 123.06 333.92 123.6 333.92 125.8V133ZM343.041 133.3C345.761 133.3 348.241 131.18 348.241 127.64C348.241 124.02 345.761 121.96 343.041 121.96C340.301 121.96 337.841 124.06 337.841 127.64C337.841 131.22 340.281 133.3 343.041 133.3ZM343.041 132.14C340.881 132.14 339.081 130.56 339.081 127.64C339.081 124.72 340.841 123.1 343.041 123.1C345.201 123.1 347.001 124.7 347.001 127.64C347.001 130.58 345.221 132.14 343.041 132.14Z" fill="black"/>
<rect width="1280" height="1" transform="matrix(-1 0 0 1 921.5 140)" fill="black"/>
</g>
<defs>
<clipPath id="clip0">
<rect width="85" height="33" fill="white" transform="translate(75 111)"/>
</clipPath>
<clipPath id="clip1">
<rect width="138" height="33" fill="white" transform="translate(212 111)"/>
</clipPath>
</defs>
</svg>
