<svg width="395" height="352" viewBox="0 0 395 352" fill="none" xmlns="http://www.w3.org/2000/svg">
<path d="M0 0H395V352H0V0Z" fill="white"/>
<path d="M44.1984 311.325H31V331.631H32.627V322.098H42.5188V320.587H32.627V312.835H44.1984V311.325Z" fill="#020203"/>
<path d="M53.4985 317.174C51.4417 317.174 49.428 318.505 48.705 320.307L48.6735 317.36V317.316H47.2812V331.631H48.8487V324.758C48.8487 322.469 49.4526 318.628 53.4985 318.628C54.0802 318.628 54.5369 318.673 54.9328 318.768L54.9901 318.782V317.267L54.9527 317.26C54.4761 317.174 53.9786 317.174 53.4985 317.174Z" fill="#020203"/>
<path d="M63.4741 316.946C61.4138 316.946 59.6653 317.808 58.419 319.439C57.4262 320.741 56.9648 322.358 56.9648 324.53C56.9648 326.682 57.6224 328.562 58.8652 329.965C60.0939 331.315 61.6847 332 63.5921 332C65.2238 332 66.734 331.41 67.8459 330.338C68.757 329.491 69.3176 328.478 69.5115 327.326L69.5209 327.275H67.8938L67.8868 327.31C67.7315 328.063 67.3787 328.698 66.7784 329.308C65.9783 330.106 64.8477 330.547 63.5921 330.547C62.1146 330.547 60.9255 330.044 60.0554 329.055C59.1245 327.991 58.5708 326.465 58.5311 324.861H69.807V324.817C69.807 324.647 69.8152 324.495 69.8222 324.347C69.8292 324.2 69.8374 324.048 69.8374 323.877C69.8374 322.043 69.2429 320.333 68.1625 319.062C66.9875 317.678 65.3663 316.946 63.4741 316.946ZM58.5603 323.461C58.5802 320.51 60.6405 318.372 63.4741 318.372C66.5121 318.372 68.166 320.925 68.2407 323.461H58.5603Z" fill="#020203"/>
<path d="M89.5664 316.946C87.3846 316.946 85.7027 318.007 84.8208 319.938C84.3419 318.547 83.1412 316.946 80.15 316.946C78.2146 316.946 76.5619 317.949 75.6952 319.637L75.5317 317.357L75.5282 317.316H74.1406V331.631H75.7081V324.472C75.7081 322.107 76.2991 320.376 77.4648 319.327C78.155 318.693 79.0287 318.371 80.0612 318.371C82.4474 318.371 83.5594 319.614 83.5594 322.282V331.629H85.156V323.533C85.156 321.814 85.7541 320.36 86.8835 319.327C87.6252 318.675 88.4498 318.371 89.48 318.371C91.8452 318.371 92.9478 319.614 92.9478 322.282V331.629H94.5152V322.197C94.5141 318.811 92.7574 316.946 89.5664 316.946Z" fill="#020203"/>
<path d="M102.122 313.037L100.554 313.4V317.317H97.6016V318.714H100.554V327.632C100.554 330.379 101.887 331.83 104.409 331.83C105.208 331.83 105.966 331.674 106.77 331.508L106.905 331.48V330.138L106.851 330.148C106.124 330.278 105.347 330.404 104.527 330.404C102.841 330.404 102.123 329.557 102.123 327.575V318.714H110.893V331.631H112.55V317.317H102.123V313.037H102.122Z" fill="#020203"/>
<path d="M124.816 316.946C122.728 316.946 120.719 318.102 119.86 319.776L119.693 317.316H118.305V331.631H119.872V324.472C119.872 323.297 120.06 321.619 120.954 320.3C121.796 319.059 123.067 318.429 124.729 318.429C127.26 318.429 128.491 319.69 128.491 322.284V331.632H130.058V322.197C130.058 318.859 128.147 316.946 124.816 316.946Z" fill="#020203"/>
<path d="M111.707 311.266C111.052 311.266 110.52 311.779 110.52 312.41C110.52 313.042 111.052 313.555 111.707 313.555C112.363 313.555 112.895 313.042 112.895 312.41C112.895 311.779 112.363 311.266 111.707 311.266Z" fill="#020203"/>
<path d="M145.431 311V319.565C144.572 318.014 142.596 316.946 140.547 316.946C138.921 316.946 137.559 317.448 136.501 318.438C135.028 319.777 134.184 321.987 134.184 324.502C134.184 327.143 135.049 329.326 136.62 330.651C137.675 331.545 139.005 331.999 140.577 331.999C142.615 331.999 144.629 330.855 145.443 329.256L145.611 331.63H146.999V311H145.431ZM143.586 329.392C142.779 330.139 141.776 330.519 140.605 330.519C139.442 330.519 138.496 330.197 137.713 329.535C136.467 328.463 135.78 326.666 135.78 324.474C135.78 322.472 136.363 320.764 137.42 319.668C138.253 318.835 139.276 318.43 140.547 318.43C141.797 318.43 142.828 318.799 143.615 319.527C144.874 320.662 145.462 322.235 145.462 324.474C145.462 326.564 144.831 328.219 143.586 329.392Z" fill="#020203"/>
<path d="M78.1797 49.9451L80 48.1514L55.4914 24L31 48.1343L32.8913 49.9981L44.3872 38.6679L55.8869 50L57.7091 48.2044L46.2113 36.8723L55.5624 27.6575L78.1797 49.9451Z" fill="#020203"/>
<rect x="105" y="82" width="197" height="12" fill="#D6D6D6"/>
<rect x="105" y="105" width="197" height="40" fill="#D6D6D6"/>
<rect x="105" y="247" width="197" height="28" fill="#D6D6D6"/>
<rect x="105" y="156" width="93" height="81" fill="#D6D6D6"/>
<rect x="209" y="156" width="93" height="81" fill="#D6D6D6"/>
</svg>
