<svg width="861" height="422" fill="none" xmlns="http://www.w3.org/2000/svg"><path fill="#F4F2EF" d="M.5.5h860v421H.5z"/><path d="M372 140a2 2 0 1 0 0-4v4Zm1.414 147.414a2 2 0 0 0 0-2.828l-12.728-12.728a2 2 0 1 0-2.828 2.828L369.172 286l-11.314 11.314a2 2 0 1 0 2.828 2.828l12.728-12.728ZM300 212c0-39.765 32.236-72 72-72v-4c-41.974 0-76 34.026-76 76h4Zm72 72c-39.765 0-72-32.236-72-72h-4c0 41.974 34.026 76 76 76v-4Z" fill="#1B1917"/><path d="M217 190a4 4 0 0 1 4-4h185.456a4 4 0 0 1 4 4v44.364a4 4 0 0 1-4 4H221a4 4 0 0 1-4-4V190Z" fill="#D9DDFF"/><path d="M234.567 221.682h3.211v-6.421l3.476-3.977 8.012 10.398h3.888l-9.868-12.695 8.248-9.397h-3.682l-10.074 11.606V199.59h-3.211v22.092Zm27.051.442c4.183 0 7.923-3.122 7.923-8.424 0-5.332-3.74-8.395-7.923-8.395s-7.953 3.122-7.953 8.395c0 5.361 3.741 8.424 7.953 8.424Zm0-2.798c-2.71 0-4.919-1.886-4.919-5.626 0-3.712 2.179-5.627 4.919-5.627 2.71 0 4.919 1.886 4.919 5.627 0 3.77-2.18 5.626-4.919 5.626Zm22.332 2.356h3.034V210.96c0-4.242-2.475-5.655-5.332-5.655-2.474 0-4.507 1.266-5.538 3.269v-2.828h-3.063v15.936h3.063v-9.573c0-2.74 2.239-4.065 4.478-4.065 2.091 0 3.358.677 3.358 3.329v10.309Zm12.488.442c3.623 0 6.157-2.18 6.157-4.949 0-2.474-1.444-3.741-3.8-4.389l-2.828-.765c-1.561-.442-2.032-1.179-2.032-2.092 0-1.178.972-1.944 2.562-1.944 1.532 0 2.887.884 3.064 2.651h2.798c-.206-3.888-3.122-5.331-5.773-5.331-2.828 0-5.656 1.472-5.656 4.742 0 2.15 1.09 3.741 3.299 4.359l3.24.914c1.768.5 2.092 1.148 2.092 2.003 0 1.355-1.267 2.091-2.887 2.091s-3.152-.53-3.535-2.592h-2.916c.324 3.594 3.299 5.302 6.215 5.302Zm14.644 0c2.386 0 4.271-1.267 5.361-3.211v2.769h3.034v-15.936h-3.034v9.662c0 2.651-2.15 3.947-4.242 3.947-2.003 0-3.24-.618-3.24-3.24v-10.369h-3.063v10.722c0 4.272 2.474 5.656 5.184 5.656Zm32.969-.442h3.034v-10.604c0-4.36-2.298-5.773-4.831-5.773-2.356 0-4.212 1.384-5.39 3.446-.678-2.563-2.533-3.446-4.537-3.446-2.297 0-4.123 1.266-5.125 3.269v-2.828h-3.063v15.936h3.063v-9.573c0-2.71 2.003-4.065 4.036-4.065 1.738 0 2.857.648 2.857 3.329v10.309h3.034v-9.573c0-2.71 2.032-4.065 4.065-4.065 1.738 0 2.857.648 2.857 3.358v10.28Zm14.541.442c3.387 0 6.51-2.239 7.01-5.773h-2.798c-.442 1.737-2.18 3.004-4.212 3.004-2.651 0-4.831-1.443-5.037-4.919h12.106v-.854c0-5.185-3.417-8.277-7.364-8.277-4.124 0-7.865 3.092-7.865 8.247 0 5.479 3.241 8.572 8.16 8.572Zm-.295-14.08c2.239 0 3.947 1.267 4.33 4.094h-8.925c.471-3.122 2.681-4.094 4.595-4.094Zm21.672 13.638h3.034V210.96c0-4.242-2.474-5.655-5.331-5.655-2.474 0-4.507 1.266-5.538 3.269v-2.828h-3.063v15.936h3.063v-9.573c0-2.74 2.239-4.065 4.477-4.065 2.092 0 3.358.677 3.358 3.329v10.309Zm14.669-.029v-2.504c-.412.118-1.09.177-1.473.177-1.208 0-2.091-.383-2.091-1.532v-9.367h3.299v-2.681h-3.299v-4.035h-2.946v4.035h-2.592v2.681h2.474v9.927c0 2.474 1.768 3.623 4.419 3.623.824 0 1.649-.118 2.209-.324ZM224.364 190h178.728v-8H224.364v8Zm182.092 3.364V231h8v-37.636h-8Zm-3.364 41H224.364v8h178.728v-8ZM221 231v-37.636h-8V231h8Zm3.364 3.364A3.364 3.364 0 0 1 221 231h-8c0 6.276 5.088 11.364 11.364 11.364v-8ZM406.456 231a3.364 3.364 0 0 1-3.364 3.364v8c6.276 0 11.364-5.088 11.364-11.364h-8Zm-3.364-41a3.364 3.364 0 0 1 3.364 3.364h8c0-6.276-5.088-11.364-11.364-11.364v8Zm-178.728-8c-6.276 0-11.364 5.088-11.364 11.364h8a3.364 3.364 0 0 1 3.364-3.364v-8ZM491.5 283a2 2 0 1 0 0 4v-4Zm-1.414-147.414a2 2 0 0 0 0 2.828l12.728 12.728a2 2 0 1 0 2.828-2.828L494.328 137l11.314-11.314a2 2 0 1 0-2.828-2.828l-12.728 12.728ZM563.5 211c0 39.765-32.235 72-72 72v4c41.974 0 76-34.026 76-76h-4Zm-72-72c39.765 0 72 32.235 72 72h4c0-41.974-34.026-76-76-76v4Z" fill="#1B1917"/><path d="M452.5 189a4 4 0 0 1 4-4h180.456a4 4 0 0 1 4 4v44.364a4 4 0 0 1-4 4H456.5a4 4 0 0 1-4-4V189Z" fill="#C8ECD2"/><path d="M469.924 220.682h8.277c4.242 0 7.04-2.504 7.04-6.303 0-2.563-1.679-4.36-4.094-5.155 1.767-.913 3.151-2.563 3.151-4.772 0-3.653-2.592-5.862-6.539-5.862h-7.835v22.092Zm8.1-9.75c2.298 0 3.889 1.326 3.889 3.505 0 1.915-1.326 3.182-3.741 3.182h-5.067v-6.687h4.919Zm-.618-9.278c2.474 0 3.564 1.03 3.564 2.886 0 2.209-1.208 3.329-3.388 3.329h-4.477v-6.215h4.301Zm12.687.117c1.149 0 1.974-.707 1.974-1.914 0-1.179-.825-1.885-1.974-1.885-1.178 0-1.974.706-1.974 1.885 0 1.207.796 1.914 1.974 1.914Zm-1.532 18.911h3.064v-15.936h-3.064v15.936Zm18.992 0h3.034v-22.681h-3.034v9.161c-.825-1.502-2.74-2.857-5.302-2.857-3.653 0-7.158 3.034-7.158 8.012 0 5.42 3.417 8.807 7.629 8.807 2.268 0 3.918-1.237 4.831-2.739v2.297Zm-4.595-2.356c-2.622 0-4.861-1.944-4.861-5.774 0-4.006 2.21-5.479 4.89-5.479 1.974 0 4.566 1.444 4.566 4.301v2.18c0 2.945-2.209 4.772-4.595 4.772Zm15.333-5.744c0-2.975 1.679-4.89 4.624-4.89.442 0 .913.029 1.326.118v-3.211a5.023 5.023 0 0 0-1.12-.118c-2.68 0-4.212 2.062-4.83 3.859v-3.594h-3.064v15.936h3.064v-8.1Zm12.829 6.009c-1.738 0-2.651-1.031-2.651-2.268 0-1.768 1.267-2.534 3.8-2.534h3.358v1.031c0 2.593-2.651 3.771-4.507 3.771Zm9.308-.501c-.235.029-.383.029-.471.029-.854 0-1.267-.471-1.267-1.237v-7.393c0-3.24-2.356-5.184-6.274-5.184-3.034 0-5.803 1.531-6.244 5.243h2.71c.265-1.532 1.443-2.533 3.387-2.533 2.033 0 3.358.942 3.358 2.975v1.472h-3.387c-3.624 0-6.746 1.238-6.746 5.067 0 2.356 1.502 4.595 5.067 4.595 2.091 0 4.153-1.031 5.184-2.769.324 1.443 1.561 2.474 3.535 2.474.412 0 .795-.088 1.148-.176v-2.563Zm7.885-5.567c-1.885 0-3.092-1.09-3.092-2.857 0-1.797 1.207-2.887 3.092-2.887 1.886 0 3.093 1.09 3.093 2.887 0 1.767-1.237 2.857-3.093 2.857Zm-3.741 9.337c0-1.266.943-2.091 3.123-2.091h2.651c1.797 0 2.769.648 2.769 1.708 0 1.621-1.856 2.416-4.389 2.416-2.681 0-4.154-.795-4.154-2.033Zm3.8-6.833c3.8 0 5.98-2.298 5.98-5.303 0-1.03-.471-2.15-1.061-2.827l2.563-1.65-1.325-2.003-2.975 1.944c-.766-.501-1.856-.883-3.241-.883-3.21 0-6.038 1.973-6.038 5.361 0 1.443.589 2.739 1.591 3.682-.943.5-1.738 1.413-1.738 2.621 0 1.09.648 2.18 1.973 2.798-1.414.531-2.563 1.65-2.563 3.3 0 2.857 2.976 4.271 7.011 4.271 4.477 0 7.423-2.033 7.423-5.273 0-2.769-2.357-3.947-5.155-3.947h-4.124c-1.178 0-1.914-.501-1.914-1.384 0-.59.265-1.002.677-1.326.854.412 1.856.619 2.916.619Zm15.269 6.097c3.623 0 6.156-2.18 6.156-4.949 0-2.474-1.443-3.741-3.8-4.389l-2.828-.765c-1.561-.442-2.032-1.179-2.032-2.092 0-1.178.972-1.944 2.563-1.944 1.531 0 2.886.884 3.063 2.651h2.798c-.206-3.888-3.122-5.331-5.773-5.331-2.828 0-5.656 1.472-5.656 4.742 0 2.15 1.09 3.741 3.299 4.359l3.241.914c1.767.5 2.091 1.148 2.091 2.003 0 1.355-1.267 2.091-2.887 2.091s-3.151-.53-3.534-2.592h-2.917c.324 3.594 3.3 5.302 6.216 5.302Zm11.492 5.449h2.827l8.101-21.827h-3.181l-4.124 12.107-4.625-12.107h-3.152l6.363 15.877-2.209 5.95Zm20.69-5.92v-2.504c-.412.118-1.09.177-1.473.177-1.207 0-2.091-.383-2.091-1.532v-9.367h3.299v-2.681h-3.299v-4.035h-2.946v4.035h-2.592v2.681h2.474v9.927c0 2.474 1.768 3.623 4.419 3.623.825 0 1.649-.118 2.209-.324Zm10.123.471c3.387 0 6.51-2.239 7.01-5.773h-2.798c-.442 1.737-2.18 3.004-4.212 3.004-2.651 0-4.831-1.443-5.037-4.919h12.106v-.854c0-5.185-3.417-8.277-7.364-8.277-4.124 0-7.865 3.092-7.865 8.247 0 5.479 3.241 8.572 8.16 8.572Zm-.295-14.08c2.239 0 3.947 1.267 4.33 4.094h-8.925c.471-3.122 2.681-4.094 4.595-4.094Zm13.837 5.538c0-2.975 1.679-4.89 4.625-4.89.442 0 .913.029 1.325.118v-3.211a5.009 5.009 0 0 0-1.119-.118c-2.68 0-4.212 2.062-4.831 3.859v-3.594h-3.063v15.936h3.063v-8.1ZM459.864 189h173.728v-8H459.864v8Zm177.092 3.364V230h8v-37.636h-8Zm-3.364 41H459.864v8h173.728v-8ZM456.5 230v-37.636h-8V230h8Zm3.364 3.364A3.364 3.364 0 0 1 456.5 230h-8c0 6.276 5.088 11.364 11.364 11.364v-8ZM636.956 230a3.364 3.364 0 0 1-3.364 3.364v8c6.276 0 11.364-5.088 11.364-11.364h-8Zm-3.364-41a3.364 3.364 0 0 1 3.364 3.364h8c0-6.276-5.088-11.364-11.364-11.364v8Zm-173.728-8c-6.276 0-11.364 5.088-11.364 11.364h8a3.364 3.364 0 0 1 3.364-3.364v-8Z" fill="#1B1917"/><path stroke="#C8C5C3" d="M.5.5h860v421H.5z"/></svg>