<svg width="395" height="350" viewBox="0 0 395 350" fill="none" xmlns="http://www.w3.org/2000/svg">
<rect width="395" height="350" fill="white"/>
<path d="M106.437 187.922L109 185.369L74.4878 151L40 185.345L42.6633 187.997L58.8514 171.874L75.0448 188L77.6108 185.445L61.42 169.318L74.5879 156.205L106.437 187.922Z" fill="#020203"/>
<path d="M158.259 148.651H133V189.262H136.114V170.197H155.045V167.175H136.114V151.67H158.259V148.651Z" fill="#020203"/>
<path d="M176.059 160.349C172.122 160.349 168.269 163.01 166.885 166.615L166.825 160.721V160.633H164.16V189.262H167.16V175.517C167.16 170.937 168.316 163.256 176.059 163.256C177.172 163.256 178.046 163.346 178.804 163.537L178.913 163.564V160.534L178.842 160.52C177.93 160.349 176.977 160.349 176.059 160.349Z" fill="#020203"/>
<path d="M195.149 159.892C191.206 159.892 187.859 161.617 185.474 164.879C183.574 167.482 182.691 170.717 182.691 175.06C182.691 179.365 183.95 183.124 186.328 185.93C188.68 188.631 191.724 190 195.375 190C198.497 190 201.388 188.82 203.516 186.677C205.259 184.982 206.332 182.956 206.703 180.652L206.721 180.551H203.607L203.594 180.621C203.297 182.127 202.621 183.397 201.472 184.617C199.941 186.213 197.778 187.094 195.375 187.094C192.547 187.094 190.271 186.089 188.606 184.11C186.824 181.983 185.765 178.93 185.689 175.722H207.269V175.634C207.269 175.294 207.284 174.99 207.298 174.695C207.311 174.4 207.327 174.096 207.327 173.754C207.327 170.086 206.189 166.667 204.121 164.125C201.873 161.356 198.77 159.892 195.149 159.892ZM185.745 172.923C185.783 167.02 189.726 162.745 195.149 162.745C200.963 162.745 204.128 167.851 204.271 172.923H185.745Z" fill="#020203"/>
<path d="M245.084 159.892C240.909 159.892 237.69 162.015 236.002 165.876C235.086 163.094 232.788 159.892 227.063 159.892C223.359 159.892 220.196 161.898 218.538 165.275L218.225 160.714L218.218 160.633H215.562V189.262H218.562V174.945C218.562 170.215 219.693 166.752 221.924 164.654C223.245 163.386 224.917 162.742 226.893 162.742C231.46 162.742 233.588 165.228 233.588 170.564V189.259H236.644V173.067C236.644 169.629 237.788 166.721 239.95 164.654C241.369 163.35 242.947 162.742 244.919 162.742C249.445 162.742 251.556 165.228 251.556 170.564V189.259H254.555V170.395C254.553 163.623 251.191 159.892 245.084 159.892Z" fill="#020203"/>
<path d="M269.116 152.073L266.116 152.8V160.633H260.465V163.427H266.116V181.264C266.116 186.758 268.666 189.66 273.492 189.66C275.021 189.66 276.472 189.347 278.012 189.016L278.269 188.96V186.276L278.166 186.296C276.776 186.555 275.287 186.807 273.718 186.807C270.492 186.807 269.118 185.114 269.118 181.15V163.427H285.903V189.261H289.072V160.633H269.118V152.073H269.116Z" fill="#020203"/>
<path d="M312.548 159.892C308.551 159.892 304.706 162.204 303.063 165.552L302.744 160.633H300.086V189.262H303.086V174.945C303.086 172.595 303.446 169.238 305.156 166.601C306.767 164.118 309.199 162.859 312.38 162.859C317.224 162.859 319.58 165.381 319.58 170.568V189.264H322.58V170.395C322.58 163.719 318.923 159.892 312.548 159.892Z" fill="#020203"/>
<path d="M287.457 148.531C286.203 148.531 285.184 149.558 285.184 150.821C285.184 152.084 286.203 153.111 287.457 153.111C288.711 153.111 289.73 152.084 289.73 150.821C289.73 149.558 288.711 148.531 287.457 148.531Z" fill="#020203"/>
<path d="M351.999 148V165.131C350.354 162.029 346.571 159.892 342.651 159.892C339.539 159.892 336.933 160.896 334.908 162.875C332.089 165.554 330.473 169.974 330.473 175.003C330.473 180.285 332.129 184.653 335.136 187.303C337.154 189.09 339.7 189.998 342.709 189.998C346.609 189.998 350.463 187.71 352.021 184.511L352.343 189.259H354.999V148H351.999ZM348.467 184.783C346.922 186.278 345.002 187.037 342.762 187.037C340.536 187.037 338.725 186.393 337.228 185.069C334.843 182.926 333.528 179.333 333.528 174.947C333.528 170.944 334.644 167.529 336.667 165.336C338.26 163.67 340.219 162.859 342.651 162.859C345.042 162.859 347.016 163.598 348.523 165.054C350.932 167.324 352.057 170.469 352.057 174.947C352.057 179.128 350.85 182.438 348.467 184.783Z" fill="#020203"/>
</svg>
