<svg id="Layer_1" data-name="Layer 1" xmlns="http://www.w3.org/2000/svg" viewBox="0 0 994.96 187.09"><defs><style>.cls-1{fill:#fff;}</style></defs><title>Fremtind Logo</title><polygon class="cls-1" points="113.91 3.16 0.91 3.16 0.91 183.54 14.84 183.54 14.84 98.86 99.52 98.86 99.52 85.44 14.84 85.44 14.84 16.57 113.91 16.57 113.91 3.16"/><path class="cls-1" d="M193.54,55.12c-17.62,0-34.85,11.82-41,27.83l-.28-26.19v-.38H140.31V183.54h13.42v-61c0-20.34,5.17-54.46,39.81-54.46a50.28,50.28,0,0,1,12.28,1.25l.48.12V55.94l-.32-.06A68.18,68.18,0,0,0,193.54,55.12Z"/><path class="cls-1" d="M278.94,53.09c-17.64,0-32.6,7.66-43.28,22.15-8.49,11.55-12.45,25.92-12.45,45.22,0,19.13,5.63,35.82,16.27,48.28,10.52,12,24.14,18.08,40.48,18.08a51,51,0,0,0,36.42-14.77,47,47,0,0,0,14.26-26.76l.08-.45H316.79l-.07.32a34.84,34.84,0,0,1-9.49,17.75c-6.84,7.09-16.53,11-27.27,11-12.65,0-22.84-4.46-30.29-13.25-8-9.45-12.71-23-13-37.26h96.54V123c0-1.52.06-2.86.13-4.17s.13-2.66.13-4.18c0-16.29-5.09-31.48-14.34-42.78C309,59.58,295.15,53.09,278.94,53.09ZM236.88,111c.17-26.22,17.81-45.21,42.06-45.21,26,0,40.18,22.67,40.81,45.21Z"/><path class="cls-1" d="M502.34,53.09c-18.68,0-33.07,9.43-40.63,26.58-4.1-12.36-14.39-26.58-40-26.58C405.15,53.09,391,62,383.58,77l-1.4-20.26,0-.36H370.26V183.54h13.42V120c0-21,5.06-36.4,15.05-45.72,5.9-5.63,13.38-8.48,22.22-8.48,20.43,0,29.95,11,29.95,34.74v83h13.67V111.62c0-15.27,5.11-28.19,14.78-37.37a31.17,31.17,0,0,1,22.24-8.49c20.25,0,29.68,11,29.68,34.74v83H544.7V99.73C544.7,69.65,529.65,53.09,502.34,53.09Z"/><path class="cls-1" d="M609.84,18.35l-13.42,3.24V56.38H571.14V68.79h25.28V148c0,24.39,11.41,37.29,33,37.29,6.84,0,13.33-1.39,20.22-2.86l1.15-.24V170.29l-.46.08a108.6,108.6,0,0,1-19.91,2.27c-14.42,0-20.58-7.51-20.58-25.13V68.79h75.09V183.54h14.18V56.38H609.84Z"/><path class="cls-1" d="M804.14,53.09c-17.88,0-35.08,10.27-42.43,25.14l-1.43-21.85H748.39V183.54h13.42V120c0-10.45,1.61-25.35,9.26-37.07,7.21-11,18.08-16.63,32.31-16.63,21.68,0,32.21,11.2,32.21,34.24v83H849V99.73C849,70.09,832.66,53.09,804.14,53.09Z"/><path class="cls-1" d="M691.89,2.63a10.17,10.17,0,1,0,10.17,10.16A10.18,10.18,0,0,0,691.89,2.63Z"/><path class="cls-1" d="M980.63.27V76.36c-7.35-13.78-24.28-23.27-41.81-23.27-13.93,0-25.58,4.46-34.64,13.25-12.61,11.9-19.84,31.53-19.84,53.88,0,23.45,7.41,42.86,20.86,54.63,9,7.94,20.42,12,33.88,12,17.44,0,34.68-10.17,41.66-24.37l1.44,21.09h11.87V.27ZM964.84,163.65a35.6,35.6,0,0,1-25.52,10c-10,0-18.06-2.86-24.76-8.75C903.89,155.4,898,139.43,898,120c0-17.79,5-32.95,14-42.7,7.13-7.4,15.89-11,26.77-11,10.7,0,19.53,3.28,26.27,9.76,10.78,10.08,15.8,24,15.8,43.94C980.89,138.52,975.49,153.23,964.84,163.65Z"/></svg>