<svg width="343" height="220" viewBox="0 0 343 220" fill="none" xmlns="http://www.w3.org/2000/svg">
<rect width="342" height="220" transform="translate(0.5)" fill="#ECE9E5"/>
<rect x="16.5" y="24" width="58" height="10" rx="2" fill="#F9F9F9"/>
<rect x="16.5" y="42" width="141" height="6" rx="2" fill="#F9F9F9"/>
<rect x="16.5" y="52" width="141" height="6" rx="2" fill="#F9F9F9"/>
<rect x="16.5" y="62" width="79" height="6" rx="2" fill="#F9F9F9"/>
<rect x="169.5" y="24" width="141" height="158" rx="2" fill="#F9F9F9"/>
<rect x="6.5" y="162" width="52" height="12" rx="2" fill="#1B1917"/>
<rect x="10.5" y="167" width="32" height="2" rx="1" fill="#F9F9F9"/>
<rect x="6.5" y="176" width="52" height="12" rx="2" fill="#1B1917"/>
<rect x="10.5" y="181" width="32" height="2" rx="1" fill="#F9F9F9"/>
<rect x="6.5" y="190" width="52" height="12" rx="2" fill="#1B1917"/>
<rect x="10.5" y="195" width="32" height="2" rx="1" fill="#F9F9F9"/>
</svg>
