<svg width="395" height="350" viewBox="0 0 395 350" fill="none" xmlns="http://www.w3.org/2000/svg">
<rect width="395" height="350" fill="white"/>
<path d="M28.96 101H30.24V94.18H36.4V93.02H30.24V87.16H37.12V86H28.96V101ZM43.8617 101.3C46.5817 101.3 49.0617 99.18 49.0617 95.64C49.0617 92.02 46.5817 89.96 43.8617 89.96C41.1217 89.96 38.6617 92.06 38.6617 95.64C38.6617 99.22 41.1017 101.3 43.8617 101.3ZM43.8617 100.14C41.7017 100.14 39.9017 98.56 39.9017 95.64C39.9017 92.72 41.6617 91.1 43.8617 91.1C46.0217 91.1 47.8217 92.7 47.8217 95.64C47.8217 98.58 46.0417 100.14 43.8617 100.14ZM53.0892 95.14C53.0892 93 54.3292 91.36 56.4092 91.36C56.6892 91.36 56.9692 91.38 57.2492 91.44V90.16C57.0092 90.1 56.7092 90.08 56.4892 90.08C54.5492 90.08 53.4692 91.58 53.0892 92.84V90.26H51.8292V101H53.0892V95.14ZM64.2902 101H65.5502V97.26L67.2302 95.62L71.4102 101H72.9102L68.0702 94.8L72.7102 90.26H71.1902L65.5502 95.78V85.6H64.2902V101ZM75.5142 87.66C76.0542 87.66 76.4342 87.34 76.4342 86.78C76.4342 86.24 76.0542 85.9 75.5142 85.9C74.9942 85.9 74.6342 86.24 74.6342 86.78C74.6342 87.34 74.9942 87.66 75.5142 87.66ZM72.8142 104.94C73.1542 104.98 73.4542 105 73.6742 105C75.4342 105 76.2142 103.96 76.2142 102.52V90.26H74.9542V102.5C74.9542 103.4 74.4942 103.84 73.5742 103.84C73.3742 103.84 73.1342 103.82 72.8142 103.76V104.94ZM79.0938 101.3H80.2938L81.0938 100.3C81.9738 100.96 83.0538 101.32 84.1938 101.32C86.9138 101.32 89.3937 99.2 89.3937 95.66C89.3937 93.94 88.8338 92.56 87.9338 91.6L89.2738 89.9H88.0738L87.2338 90.96C86.3538 90.32 85.2938 89.98 84.1938 89.98C81.4538 89.98 78.9938 92.08 78.9938 95.66C78.9938 97.34 79.5338 98.7 80.3938 99.66L79.0938 101.3ZM80.2338 95.66C80.2338 92.74 81.9938 91.12 84.1938 91.12C85.0538 91.12 85.8738 91.38 86.5138 91.88L81.1338 98.7C80.5738 97.96 80.2338 96.94 80.2338 95.66ZM84.1938 100.16C83.3138 100.16 82.4738 99.9 81.8138 99.38L87.1938 92.54C87.7938 93.3 88.1538 94.34 88.1538 95.66C88.1538 98.6 86.3738 100.16 84.1938 100.16ZM96.9213 100.16C95.1613 100.16 93.3413 98.88 93.3413 96.4V94.54C93.3413 92.24 95.3813 91.1 96.9413 91.1C99.0413 91.1 100.781 92.42 100.781 95.38C100.781 98.58 99.0613 100.16 96.9213 100.16ZM97.0613 101.3C99.7813 101.3 102.021 99 102.021 95.32C102.021 91.98 99.6613 89.96 97.2013 89.96C95.2613 89.96 93.8613 91.06 93.3413 92.22V90.26H92.1013V105H93.3413V99.04C93.9613 100.36 95.3813 101.3 97.0613 101.3ZM112.143 100.24C110.523 100.24 109.783 99.34 109.783 98.14C109.783 96.58 110.983 95.92 113.003 95.92H115.563V97.08C115.563 99.2 113.603 100.24 112.143 100.24ZM118.243 99.96C118.063 99.98 117.923 100 117.763 100C117.143 100 116.803 99.7 116.803 99.12V93.22C116.803 91.2 115.363 89.96 112.883 89.96C110.963 89.96 109.243 91.02 109.003 93.2H110.103C110.303 91.92 111.303 91.06 112.843 91.06C114.503 91.06 115.563 91.8 115.563 93.46V94.9H112.943C110.583 94.9 108.563 95.68 108.563 98.2C108.563 99.8 109.543 101.3 112.023 101.3C113.583 101.3 114.983 100.32 115.563 99.06V99.34C115.563 100.5 116.323 101.08 117.483 101.08C117.843 101.08 118.023 101.04 118.243 100.98V99.96ZM122.902 101H124.042L128.142 90.26H126.842L123.502 99.46L120.102 90.26H118.822L122.902 101ZM142.611 101H143.851V93.82C143.851 90.88 142.071 89.96 140.231 89.96C138.511 89.96 136.991 90.86 136.331 92.28V90.26H135.071V101H136.331V94.2C136.331 92.12 138.131 91.06 139.851 91.06C141.371 91.06 142.611 91.6 142.611 93.8V101ZM149.713 105L155.193 90.26H153.933L150.653 99.36L147.133 90.26H145.873L150.073 100.82L148.493 105H149.713ZM161.46 101.3C163.64 101.3 165.62 99.74 165.94 97.44H164.82C164.52 98.94 163.1 100.16 161.46 100.16C159.34 100.16 157.56 98.9 157.5 95.82H165.98V95.44C165.98 91.9 163.8 89.96 161.3 89.96C158.64 89.96 156.24 92.06 156.24 95.54C156.24 99.26 158.38 101.3 161.46 101.3ZM161.3 91.1C163.14 91.1 164.58 92.26 164.76 94.82H157.58C157.78 92.28 159.58 91.1 161.3 91.1ZM173.83 101H175.07V91.34H177.41V90.26H175.07V88.14C175.07 87.22 175.53 86.74 176.47 86.74C176.91 86.74 177.21 86.82 177.41 86.86V85.68C177.19 85.62 176.89 85.58 176.51 85.58C174.99 85.58 173.83 86.38 173.83 88.04V90.26H172.03V91.34H173.83V101ZM183.549 101.3C186.269 101.3 188.749 99.18 188.749 95.64C188.749 92.02 186.269 89.96 183.549 89.96C180.809 89.96 178.349 92.06 178.349 95.64C178.349 99.22 180.789 101.3 183.549 101.3ZM183.549 100.14C181.389 100.14 179.589 98.56 179.589 95.64C179.589 92.72 181.349 91.1 183.549 91.1C185.709 91.1 187.509 92.7 187.509 95.64C187.509 98.58 185.729 100.14 183.549 100.14ZM192.777 95.14C192.777 93 194.017 91.36 196.097 91.36C196.377 91.36 196.657 91.38 196.937 91.44V90.16C196.697 90.1 196.397 90.08 196.177 90.08C194.237 90.08 193.157 91.58 192.777 92.84V90.26H191.517V101H192.777V95.14ZM202.018 101.3C204.278 101.3 205.898 99.96 205.898 98.16C205.898 96.64 205.078 95.76 203.478 95.34L201.338 94.78C200.118 94.44 199.658 93.82 199.658 92.9C199.658 91.76 200.598 91.08 201.938 91.08C203.238 91.08 204.418 91.8 204.578 93.42H205.678C205.538 90.94 203.638 89.96 201.998 89.96C200.218 89.96 198.438 90.92 198.438 92.96C198.438 94.38 199.238 95.4 200.678 95.8L202.918 96.4C204.358 96.8 204.678 97.4 204.678 98.22C204.678 99.46 203.618 100.18 202.138 100.18C200.758 100.18 199.438 99.74 199.138 97.96H197.978C198.238 100.32 200.098 101.3 202.018 101.3ZM209.225 87.66C209.765 87.66 210.145 87.34 210.145 86.78C210.145 86.24 209.765 85.9 209.225 85.9C208.705 85.9 208.345 86.24 208.345 86.78C208.345 87.34 208.705 87.66 209.225 87.66ZM208.665 101H209.925V90.26H208.665V101ZM213.685 101H214.945V97.26L216.625 95.62L220.805 101H222.305L217.465 94.8L222.105 90.26H220.585L214.945 95.78V85.6H213.685V101ZM225.609 95.14C225.609 93 226.849 91.36 228.929 91.36C229.209 91.36 229.489 91.38 229.769 91.44V90.16C229.529 90.1 229.229 90.08 229.009 90.08C227.069 90.08 225.989 91.58 225.609 92.84V90.26H224.349V101H225.609V95.14ZM232.565 87.66C233.105 87.66 233.485 87.34 233.485 86.78C233.485 86.24 233.105 85.9 232.565 85.9C232.045 85.9 231.685 86.24 231.685 86.78C231.685 87.34 232.045 87.66 232.565 87.66ZM232.005 101H233.265V90.26H232.005V101ZM244.565 101H245.805V93.82C245.805 90.88 244.025 89.96 242.185 89.96C240.465 89.96 238.945 90.86 238.285 92.28V90.26H237.025V101H238.285V94.2C238.285 92.12 240.085 91.06 241.805 91.06C243.325 91.06 244.565 91.6 244.565 93.8V101ZM252.666 96.06C251.026 96.06 249.986 95.08 249.986 93.54C249.986 91.98 251.006 91 252.626 91C254.266 91 255.306 91.98 255.306 93.54C255.306 95.08 254.246 96.06 252.666 96.06ZM249.486 101.82C249.486 100.72 250.266 99.96 252.246 99.96H254.026C255.506 99.96 256.406 100.56 256.406 101.52C256.406 102.94 254.946 103.7 252.906 103.7C250.646 103.7 249.486 102.96 249.486 101.82ZM252.706 97.1C255.046 97.1 256.486 95.6 256.486 93.54C256.486 92.54 255.966 91.66 255.446 91.18L257.326 90L256.806 89.16L254.606 90.5C254.106 90.18 253.466 89.96 252.626 89.96C250.586 89.96 248.806 91.28 248.806 93.54C248.806 94.56 249.206 95.44 249.886 96.08C249.246 96.4 248.686 96.98 248.686 97.8C248.686 98.5 249.146 99.24 250.126 99.58C249.066 99.88 248.206 100.66 248.206 101.86C248.206 103.86 250.246 104.74 252.866 104.74C255.666 104.74 257.586 103.5 257.586 101.38C257.586 99.66 255.966 98.88 254.226 98.88H251.406C250.266 98.88 249.746 98.36 249.746 97.72C249.746 97.18 250.006 96.8 250.486 96.54C251.106 96.9 251.846 97.1 252.706 97.1ZM264.214 101.3C266.394 101.3 268.374 99.74 268.694 97.44H267.574C267.274 98.94 265.854 100.16 264.214 100.16C262.094 100.16 260.314 98.9 260.254 95.82H268.734V95.44C268.734 91.9 266.554 89.96 264.054 89.96C261.394 89.96 258.994 92.06 258.994 95.54C258.994 99.26 261.134 101.3 264.214 101.3ZM264.054 91.1C265.894 91.1 267.334 92.26 267.514 94.82H260.334C260.534 92.28 262.334 91.1 264.054 91.1ZM272.679 95.14C272.679 93 273.919 91.36 275.999 91.36C276.279 91.36 276.559 91.38 276.839 91.44V90.16C276.599 90.1 276.299 90.08 276.079 90.08C274.139 90.08 273.059 91.58 272.679 92.84V90.26H271.419V101H272.679V95.14ZM283.88 101H285.14V97.26L286.82 95.62L291 101H292.5L287.66 94.8L292.3 90.26H290.78L285.14 95.78V85.6H283.88V101ZM296.986 100.24C295.366 100.24 294.626 99.34 294.626 98.14C294.626 96.58 295.826 95.92 297.846 95.92H300.406V97.08C300.406 99.2 298.446 100.24 296.986 100.24ZM303.086 99.96C302.906 99.98 302.766 100 302.606 100C301.986 100 301.646 99.7 301.646 99.12V93.22C301.646 91.2 300.206 89.96 297.726 89.96C295.806 89.96 294.086 91.02 293.846 93.2H294.946C295.146 91.92 296.146 91.06 297.686 91.06C299.346 91.06 300.406 91.8 300.406 93.46V94.9H297.786C295.426 94.9 293.406 95.68 293.406 98.2C293.406 99.8 294.386 101.3 296.866 101.3C298.426 101.3 299.826 100.32 300.406 99.06V99.34C300.406 100.5 301.166 101.08 302.326 101.08C302.686 101.08 302.866 101.04 303.086 100.98V99.96ZM312.846 101H314.086V93.82C314.086 90.88 312.306 89.96 310.466 89.96C308.746 89.96 307.226 90.86 306.566 92.28V90.26H305.306V101H306.566V94.2C306.566 92.12 308.366 91.06 310.086 91.06C311.606 91.06 312.846 91.6 312.846 93.8V101ZM330.232 101H331.472V85.6H330.232V92.14C329.672 90.96 328.232 89.96 326.472 89.96C323.952 89.96 321.572 92.04 321.572 95.34C321.572 99 323.832 101.3 326.652 101.3C328.232 101.3 329.552 100.38 330.232 99.06V101ZM326.652 100.16C324.572 100.16 322.812 98.58 322.812 95.42C322.812 92.5 324.572 91.1 326.672 91.1C328.072 91.1 330.232 92.14 330.232 94.42V96.4C330.232 98.76 328.452 100.16 326.652 100.16ZM338.669 101.3C340.289 101.3 341.709 100.34 342.389 98.88V101H343.629V90.26H342.389V96.88C342.389 99.12 340.609 100.18 339.029 100.18C337.409 100.18 336.349 99.54 336.349 97.26V90.26H335.089V97.3C335.089 100.28 336.729 101.3 338.669 101.3ZM32.08 128.06C30.44 128.06 29.4 127.08 29.4 125.54C29.4 123.98 30.42 123 32.04 123C33.68 123 34.72 123.98 34.72 125.54C34.72 127.08 33.66 128.06 32.08 128.06ZM28.9 133.82C28.9 132.72 29.68 131.96 31.66 131.96H33.44C34.92 131.96 35.82 132.56 35.82 133.52C35.82 134.94 34.36 135.7 32.32 135.7C30.06 135.7 28.9 134.96 28.9 133.82ZM32.12 129.1C34.46 129.1 35.9 127.6 35.9 125.54C35.9 124.54 35.38 123.66 34.86 123.18L36.74 122L36.22 121.16L34.02 122.5C33.52 122.18 32.88 121.96 32.04 121.96C30 121.96 28.22 123.28 28.22 125.54C28.22 126.56 28.62 127.44 29.3 128.08C28.66 128.4 28.1 128.98 28.1 129.8C28.1 130.5 28.56 131.24 29.54 131.58C28.48 131.88 27.62 132.66 27.62 133.86C27.62 135.86 29.66 136.74 32.28 136.74C35.08 136.74 37 135.5 37 133.38C37 131.66 35.38 130.88 33.64 130.88H30.82C29.68 130.88 29.16 130.36 29.16 129.72C29.16 129.18 29.42 128.8 29.9 128.54C30.52 128.9 31.26 129.1 32.12 129.1ZM41.9278 132.24C40.3078 132.24 39.5678 131.34 39.5678 130.14C39.5678 128.58 40.7678 127.92 42.7878 127.92H45.3478V129.08C45.3478 131.2 43.3878 132.24 41.9278 132.24ZM48.0278 131.96C47.8478 131.98 47.7078 132 47.5478 132C46.9278 132 46.5878 131.7 46.5878 131.12V125.22C46.5878 123.2 45.1478 121.96 42.6678 121.96C40.7478 121.96 39.0278 123.02 38.7878 125.2H39.8878C40.0878 123.92 41.0878 123.06 42.6278 123.06C44.2878 123.06 45.3478 123.8 45.3478 125.46V126.9H42.7278C40.3678 126.9 38.3478 127.68 38.3478 130.2C38.3478 131.8 39.3278 133.3 41.8078 133.3C43.3678 133.3 44.7678 132.32 45.3478 131.06V131.34C45.3478 132.5 46.1078 133.08 47.2678 133.08C47.6278 133.08 47.8078 133.04 48.0278 132.98V131.96ZM42.8078 119.94C41.9878 119.94 41.3678 119.38 41.3678 118.48C41.3678 117.48 42.0078 117.02 42.8078 117.02C43.6278 117.02 44.2678 117.5 44.2678 118.48C44.2678 119.4 43.6078 119.94 42.8078 119.94ZM42.8078 120.74C44.1078 120.74 45.1078 119.92 45.1078 118.48C45.1078 117.12 44.1078 116.22 42.8078 116.22C41.5678 116.22 40.5278 117.02 40.5278 118.48C40.5278 119.82 41.5678 120.74 42.8078 120.74ZM59.1119 132.98V131.98C58.8719 132.06 58.4319 132.12 58.0919 132.12C57.1919 132.12 56.4519 131.82 56.4519 130.92V123.34H58.8119V122.26H56.4519V119.56H55.2519V122.26H53.4119V123.34H55.2119V131.1C55.2119 132.58 56.3519 133.2 57.8119 133.2C58.2919 133.2 58.8119 133.12 59.1119 132.98ZM61.9791 119.66C62.5191 119.66 62.8991 119.34 62.8991 118.78C62.8991 118.24 62.5191 117.9 61.9791 117.9C61.4591 117.9 61.0991 118.24 61.0991 118.78C61.0991 119.34 61.4591 119.66 61.9791 119.66ZM61.4191 133H62.6791V122.26H61.4191V133ZM66.4386 133H67.6986V117.6H66.4386V133ZM177.671 133.3C179.851 133.3 181.831 131.74 182.151 129.44H181.031C180.731 130.94 179.311 132.16 177.671 132.16C175.551 132.16 173.771 130.9 173.711 127.82H182.191V127.44C182.191 123.9 180.011 121.96 177.511 121.96C174.851 121.96 172.451 124.06 172.451 127.54C172.451 131.26 174.591 133.3 177.671 133.3ZM177.511 123.1C179.351 123.1 180.791 124.26 180.971 126.82H173.791C173.991 124.28 175.791 123.1 177.511 123.1ZM184.876 133H186.136V117.6H184.876V133ZM189.896 133H191.156V117.6H189.896V133ZM199.155 133.3C201.335 133.3 203.315 131.74 203.635 129.44H202.515C202.215 130.94 200.795 132.16 199.155 132.16C197.035 132.16 195.255 130.9 195.195 127.82H203.675V127.44C203.675 123.9 201.495 121.96 198.995 121.96C196.335 121.96 193.935 124.06 193.935 127.54C193.935 131.26 196.075 133.3 199.155 133.3ZM198.995 123.1C200.835 123.1 202.275 124.26 202.455 126.82H195.275C195.475 124.28 197.275 123.1 198.995 123.1ZM207.62 127.14C207.62 125 208.86 123.36 210.94 123.36C211.22 123.36 211.5 123.38 211.78 123.44V122.16C211.54 122.1 211.24 122.08 211.02 122.08C209.08 122.08 208 123.58 207.62 124.84V122.26H206.36V133H207.62V127.14ZM30 165.3C30.48 165.3 30.92 164.94 30.92 164.38C30.92 163.84 30.48 163.48 30 163.48C29.52 163.48 29.08 163.84 29.08 164.38C29.08 164.94 29.52 165.3 30 165.3ZM39.7608 165H44.6208C48.8408 165 51.4408 162.16 51.4408 157.5C51.4408 152.98 48.7608 150 44.6208 150H39.7608V165ZM44.3408 151.16C47.9008 151.16 50.1408 153.24 50.1408 157.5C50.1408 161.62 48.0408 163.84 44.4608 163.84H41.0408V151.16H44.3408ZM58.4716 165.3C60.6516 165.3 62.6316 163.74 62.9516 161.44H61.8316C61.5316 162.94 60.1116 164.16 58.4716 164.16C56.3516 164.16 54.5716 162.9 54.5116 159.82H62.9916V159.44C62.9916 155.9 60.8116 153.96 58.3116 153.96C55.6516 153.96 53.2516 156.06 53.2516 159.54C53.2516 163.26 55.3916 165.3 58.4716 165.3ZM58.3116 155.1C60.1516 155.1 61.5916 156.26 61.7716 158.82H54.5916C54.7916 156.28 56.5916 155.1 58.3116 155.1ZM66.9369 159.14C66.9369 157 68.1769 155.36 70.2569 155.36C70.5369 155.36 70.8169 155.38 71.0969 155.44V154.16C70.8569 154.1 70.5569 154.08 70.3369 154.08C68.3969 154.08 67.3169 155.58 66.9369 156.84V154.26H65.6769V165H66.9369V159.14ZM78.4978 165H79.7378V155.34H82.0778V154.26H79.7378V152.14C79.7378 151.22 80.1978 150.74 81.1378 150.74C81.5778 150.74 81.8778 150.82 82.0778 150.86V149.68C81.8578 149.62 81.5578 149.58 81.1778 149.58C79.6578 149.58 78.4978 150.38 78.4978 152.04V154.26H76.6978V155.34H78.4978V165ZM86.7325 164.24C85.1125 164.24 84.3725 163.34 84.3725 162.14C84.3725 160.58 85.5725 159.92 87.5925 159.92H90.1525V161.08C90.1525 163.2 88.1925 164.24 86.7325 164.24ZM92.8325 163.96C92.6525 163.98 92.5125 164 92.3525 164C91.7325 164 91.3925 163.7 91.3925 163.12V157.22C91.3925 155.2 89.9525 153.96 87.4725 153.96C85.5525 153.96 83.8325 155.02 83.5925 157.2H84.6925C84.8925 155.92 85.8925 155.06 87.4325 155.06C89.0925 155.06 90.1525 155.8 90.1525 157.46V158.9H87.5325C85.1725 158.9 83.1525 159.68 83.1525 162.2C83.1525 163.8 84.1325 165.3 86.6125 165.3C88.1725 165.3 89.5725 164.32 90.1525 163.06V163.34C90.1525 164.5 90.9125 165.08 92.0725 165.08C92.4325 165.08 92.6125 165.04 92.8325 164.98V163.96ZM87.6125 151.94C86.7925 151.94 86.1725 151.38 86.1725 150.48C86.1725 149.48 86.8125 149.02 87.6125 149.02C88.4325 149.02 89.0725 149.5 89.0725 150.48C89.0725 151.4 88.4125 151.94 87.6125 151.94ZM87.6125 152.74C88.9125 152.74 89.9125 151.92 89.9125 150.48C89.9125 149.12 88.9125 148.22 87.6125 148.22C86.3725 148.22 85.3325 149.02 85.3325 150.48C85.3325 151.82 86.3725 152.74 87.6125 152.74ZM96.3119 159.14C96.3119 157 97.5519 155.36 99.6319 155.36C99.9119 155.36 100.192 155.38 100.472 155.44V154.16C100.232 154.1 99.9319 154.08 99.7119 154.08C97.7719 154.08 96.6919 155.58 96.3119 156.84V154.26H95.0519V165H96.3119V159.14ZM115.193 165H116.433V149.6H115.193V156.14C114.633 154.96 113.193 153.96 111.433 153.96C108.913 153.96 106.533 156.04 106.533 159.34C106.533 163 108.793 165.3 111.613 165.3C113.193 165.3 114.513 164.38 115.193 163.06V165ZM111.613 164.16C109.533 164.16 107.773 162.58 107.773 159.42C107.773 156.5 109.533 155.1 111.633 155.1C113.033 155.1 115.193 156.14 115.193 158.42V160.4C115.193 162.76 113.413 164.16 111.613 164.16ZM123.63 165.3C125.25 165.3 126.67 164.34 127.35 162.88V165H128.59V154.26H127.35V160.88C127.35 163.12 125.57 164.18 123.99 164.18C122.37 164.18 121.31 163.54 121.31 161.26V154.26H120.05V161.3C120.05 164.28 121.69 165.3 123.63 165.3ZM141.221 164.98V163.98C140.981 164.06 140.541 164.12 140.201 164.12C139.301 164.12 138.561 163.82 138.561 162.92V155.34H140.921V154.26H138.561V151.56H137.361V154.26H135.521V155.34H137.321V163.1C137.321 164.58 138.461 165.2 139.921 165.2C140.401 165.2 140.921 165.12 141.221 164.98ZM144.088 151.66C144.628 151.66 145.008 151.34 145.008 150.78C145.008 150.24 144.628 149.9 144.088 149.9C143.568 149.9 143.208 150.24 143.208 150.78C143.208 151.34 143.568 151.66 144.088 151.66ZM143.528 165H144.788V154.26H143.528V165ZM148.548 165H149.808V149.6H148.548V165ZM156.768 160.06C155.128 160.06 154.088 159.08 154.088 157.54C154.088 155.98 155.108 155 156.728 155C158.368 155 159.408 155.98 159.408 157.54C159.408 159.08 158.348 160.06 156.768 160.06ZM153.588 165.82C153.588 164.72 154.368 163.96 156.348 163.96H158.128C159.608 163.96 160.508 164.56 160.508 165.52C160.508 166.94 159.048 167.7 157.008 167.7C154.748 167.7 153.588 166.96 153.588 165.82ZM156.808 161.1C159.148 161.1 160.588 159.6 160.588 157.54C160.588 156.54 160.068 155.66 159.548 155.18L161.428 154L160.908 153.16L158.708 154.5C158.208 154.18 157.567 153.96 156.728 153.96C154.688 153.96 152.908 155.28 152.908 157.54C152.908 158.56 153.308 159.44 153.988 160.08C153.348 160.4 152.788 160.98 152.788 161.8C152.788 162.5 153.248 163.24 154.228 163.58C153.168 163.88 152.308 164.66 152.308 165.86C152.308 167.86 154.348 168.74 156.967 168.74C159.768 168.74 161.688 167.5 161.688 165.38C161.688 163.66 160.068 162.88 158.328 162.88H155.508C154.368 162.88 153.848 162.36 153.848 161.72C153.848 161.18 154.108 160.8 154.588 160.54C155.208 160.9 155.948 161.1 156.808 161.1ZM166.615 164.24C164.995 164.24 164.255 163.34 164.255 162.14C164.255 160.58 165.455 159.92 167.475 159.92H170.035V161.08C170.035 163.2 168.075 164.24 166.615 164.24ZM172.715 163.96C172.535 163.98 172.395 164 172.235 164C171.615 164 171.275 163.7 171.275 163.12V157.22C171.275 155.2 169.835 153.96 167.355 153.96C165.435 153.96 163.715 155.02 163.475 157.2H164.575C164.775 155.92 165.775 155.06 167.315 155.06C168.975 155.06 170.035 155.8 170.035 157.46V158.9H167.415C165.055 158.9 163.035 159.68 163.035 162.2C163.035 163.8 164.015 165.3 166.495 165.3C168.055 165.3 169.455 164.32 170.035 163.06V163.34C170.035 164.5 170.795 165.08 171.955 165.08C172.315 165.08 172.495 165.04 172.715 164.98V163.96ZM182.475 165H183.715V157.82C183.715 154.88 181.935 153.96 180.095 153.96C178.375 153.96 176.855 154.86 176.195 156.28V154.26H174.935V165H176.195V158.2C176.195 156.12 177.995 155.06 179.715 155.06C181.235 155.06 182.475 155.6 182.475 157.8V165ZM190.576 160.06C188.936 160.06 187.896 159.08 187.896 157.54C187.896 155.98 188.916 155 190.536 155C192.176 155 193.216 155.98 193.216 157.54C193.216 159.08 192.156 160.06 190.576 160.06ZM187.396 165.82C187.396 164.72 188.176 163.96 190.156 163.96H191.936C193.416 163.96 194.316 164.56 194.316 165.52C194.316 166.94 192.856 167.7 190.816 167.7C188.556 167.7 187.396 166.96 187.396 165.82ZM190.616 161.1C192.956 161.1 194.396 159.6 194.396 157.54C194.396 156.54 193.876 155.66 193.356 155.18L195.236 154L194.716 153.16L192.516 154.5C192.016 154.18 191.376 153.96 190.536 153.96C188.496 153.96 186.716 155.28 186.716 157.54C186.716 158.56 187.116 159.44 187.796 160.08C187.156 160.4 186.596 160.98 186.596 161.8C186.596 162.5 187.056 163.24 188.036 163.58C186.976 163.88 186.116 164.66 186.116 165.86C186.116 167.86 188.156 168.74 190.776 168.74C193.576 168.74 195.496 167.5 195.496 165.38C195.496 163.66 193.876 162.88 192.136 162.88H189.316C188.176 162.88 187.656 162.36 187.656 161.72C187.656 161.18 187.916 160.8 188.396 160.54C189.016 160.9 189.756 161.1 190.616 161.1ZM206.749 164.98V163.98C206.509 164.06 206.069 164.12 205.729 164.12C204.829 164.12 204.089 163.82 204.089 162.92V155.34H206.449V154.26H204.089V151.56H202.889V154.26H201.049V155.34H202.849V163.1C202.849 164.58 203.989 165.2 205.449 165.2C205.929 165.2 206.449 165.12 206.749 164.98ZM209.616 151.66C210.156 151.66 210.536 151.34 210.536 150.78C210.536 150.24 210.156 149.9 209.616 149.9C209.096 149.9 208.736 150.24 208.736 150.78C208.736 151.34 209.096 151.66 209.616 151.66ZM209.056 165H210.316V154.26H209.056V165ZM214.075 165H215.335V149.6H214.075V165ZM231.58 165H232.82V149.6H231.58V156.14C231.02 154.96 229.58 153.96 227.82 153.96C225.3 153.96 222.92 156.04 222.92 159.34C222.92 163 225.18 165.3 228 165.3C229.58 165.3 230.9 164.38 231.58 163.06V165ZM228 164.16C225.92 164.16 224.16 162.58 224.16 159.42C224.16 156.5 225.92 155.1 228.02 155.1C229.42 155.1 231.58 156.14 231.58 158.42V160.4C231.58 162.76 229.8 164.16 228 164.16ZM240.776 165.3C242.956 165.3 244.936 163.74 245.256 161.44H244.136C243.836 162.94 242.416 164.16 240.776 164.16C238.656 164.16 236.876 162.9 236.816 159.82H245.296V159.44C245.296 155.9 243.116 153.96 240.616 153.96C237.956 153.96 235.556 156.06 235.556 159.54C235.556 163.26 237.696 165.3 240.776 165.3ZM240.616 155.1C242.456 155.1 243.896 156.26 244.076 158.82H236.896C237.096 156.28 238.896 155.1 240.616 155.1ZM255.826 165.3C258.086 165.3 259.706 163.96 259.706 162.16C259.706 160.64 258.886 159.76 257.286 159.34L255.146 158.78C253.926 158.44 253.466 157.82 253.466 156.9C253.466 155.76 254.406 155.08 255.746 155.08C257.046 155.08 258.226 155.8 258.386 157.42H259.486C259.346 154.94 257.446 153.96 255.806 153.96C254.026 153.96 252.246 154.92 252.246 156.96C252.246 158.38 253.046 159.4 254.486 159.8L256.726 160.4C258.166 160.8 258.486 161.4 258.486 162.22C258.486 163.46 257.426 164.18 255.946 164.18C254.566 164.18 253.246 163.74 252.946 161.96H251.786C252.046 164.32 253.906 165.3 255.826 165.3ZM265.014 164.24C263.394 164.24 262.654 163.34 262.654 162.14C262.654 160.58 263.854 159.92 265.874 159.92H268.434V161.08C268.434 163.2 266.474 164.24 265.014 164.24ZM271.114 163.96C270.934 163.98 270.794 164 270.634 164C270.014 164 269.674 163.7 269.674 163.12V157.22C269.674 155.2 268.234 153.96 265.754 153.96C263.834 153.96 262.114 155.02 261.874 157.2H262.974C263.174 155.92 264.174 155.06 265.714 155.06C267.374 155.06 268.434 155.8 268.434 157.46V158.9H265.814C263.454 158.9 261.434 159.68 261.434 162.2C261.434 163.8 262.414 165.3 264.894 165.3C266.454 165.3 267.854 164.32 268.434 163.06V163.34C268.434 164.5 269.194 165.08 270.354 165.08C270.714 165.08 270.894 165.04 271.114 164.98V163.96ZM286.793 165H288.033V157.88C288.033 154.92 286.513 153.96 284.853 153.96C283.213 153.96 281.893 154.92 281.153 156.42C280.733 154.6 279.473 153.96 278.113 153.96C276.553 153.96 275.313 154.82 274.593 156.26V154.26H273.333V165H274.593V158.18C274.593 156.12 276.233 155.06 277.713 155.06C279.173 155.06 280.073 155.74 280.073 157.8V165H281.313V158.26C281.313 156.1 282.913 155.06 284.453 155.06C285.873 155.06 286.793 155.74 286.793 157.78V165ZM305.153 165H306.393V157.88C306.393 154.92 304.873 153.96 303.213 153.96C301.572 153.96 300.253 154.92 299.513 156.42C299.093 154.6 297.833 153.96 296.473 153.96C294.913 153.96 293.673 154.82 292.953 156.26V154.26H291.693V165H292.953V158.18C292.953 156.12 294.593 155.06 296.073 155.06C297.533 155.06 298.433 155.74 298.433 157.8V165H299.673V158.26C299.673 156.1 301.273 155.06 302.813 155.06C304.233 155.06 305.153 155.74 305.153 157.78V165ZM314.292 165.3C316.472 165.3 318.452 163.74 318.772 161.44H317.652C317.352 162.94 315.932 164.16 314.292 164.16C312.172 164.16 310.392 162.9 310.332 159.82H318.812V159.44C318.812 155.9 316.632 153.96 314.132 153.96C311.472 153.96 309.072 156.06 309.072 159.54C309.072 163.26 311.212 165.3 314.292 165.3ZM314.132 155.1C315.972 155.1 317.412 156.26 317.592 158.82H310.412C310.612 156.28 312.412 155.1 314.132 155.1ZM29.24 197H30.48V187.34H32.82V186.26H30.48V184.14C30.48 183.22 30.94 182.74 31.88 182.74C32.32 182.74 32.62 182.82 32.82 182.86V181.68C32.6 181.62 32.3 181.58 31.92 181.58C30.4 181.58 29.24 182.38 29.24 184.04V186.26H27.44V187.34H29.24V197ZM38.9594 197.3C41.6794 197.3 44.1594 195.18 44.1594 191.64C44.1594 188.02 41.6794 185.96 38.9594 185.96C36.2194 185.96 33.7594 188.06 33.7594 191.64C33.7594 195.22 36.1994 197.3 38.9594 197.3ZM38.9594 196.14C36.7994 196.14 34.9994 194.56 34.9994 191.64C34.9994 188.72 36.7594 187.1 38.9594 187.1C41.1194 187.1 42.9194 188.7 42.9194 191.64C42.9194 194.58 41.1394 196.14 38.9594 196.14ZM48.1869 191.14C48.1869 189 49.4269 187.36 51.5069 187.36C51.7869 187.36 52.0669 187.38 52.3469 187.44V186.16C52.1069 186.1 51.8069 186.08 51.5869 186.08C49.6469 186.08 48.5669 187.58 48.1869 188.84V186.26H46.9269V197H48.1869V191.14ZM57.4278 197.3C59.6878 197.3 61.3078 195.96 61.3078 194.16C61.3078 192.64 60.4878 191.76 58.8878 191.34L56.7478 190.78C55.5278 190.44 55.0678 189.82 55.0678 188.9C55.0678 187.76 56.0078 187.08 57.3478 187.08C58.6478 187.08 59.8278 187.8 59.9878 189.42H61.0878C60.9478 186.94 59.0478 185.96 57.4078 185.96C55.6278 185.96 53.8478 186.92 53.8478 188.96C53.8478 190.38 54.6478 191.4 56.0878 191.8L58.3278 192.4C59.7678 192.8 60.0878 193.4 60.0878 194.22C60.0878 195.46 59.0278 196.18 57.5478 196.18C56.1678 196.18 54.8478 195.74 54.5478 193.96H53.3878C53.6478 196.32 55.5078 197.3 57.4278 197.3ZM64.6353 183.66C65.1753 183.66 65.5553 183.34 65.5553 182.78C65.5553 182.24 65.1753 181.9 64.6353 181.9C64.1153 181.9 63.7553 182.24 63.7553 182.78C63.7553 183.34 64.1153 183.66 64.6353 183.66ZM64.0753 197H65.3353V186.26H64.0753V197ZM69.0948 197H70.3548V193.26L72.0348 191.62L76.2148 197H77.7148L72.8748 190.8L77.5148 186.26H75.9948L70.3548 191.78V181.6H69.0948V197ZM81.0189 191.14C81.0189 189 82.2589 187.36 84.3389 187.36C84.6189 187.36 84.8989 187.38 85.1789 187.44V186.16C84.9389 186.1 84.6389 186.08 84.4189 186.08C82.4789 186.08 81.3989 187.58 81.0189 188.84V186.26H79.7589V197H81.0189V191.14ZM87.9752 183.66C88.5152 183.66 88.8952 183.34 88.8952 182.78C88.8952 182.24 88.5152 181.9 87.9752 181.9C87.4552 181.9 87.0952 182.24 87.0952 182.78C87.0952 183.34 87.4552 183.66 87.9752 183.66ZM87.4152 197H88.6752V186.26H87.4152V197ZM99.9747 197H101.215V189.82C101.215 186.88 99.4347 185.96 97.5947 185.96C95.8747 185.96 94.3547 186.86 93.6947 188.28V186.26H92.4347V197H93.6947V190.2C93.6947 188.12 95.4947 187.06 97.2147 187.06C98.7347 187.06 99.9747 187.6 99.9747 189.8V197ZM108.076 192.06C106.436 192.06 105.396 191.08 105.396 189.54C105.396 187.98 106.416 187 108.036 187C109.676 187 110.716 187.98 110.716 189.54C110.716 191.08 109.656 192.06 108.076 192.06ZM104.896 197.82C104.896 196.72 105.676 195.96 107.656 195.96H109.436C110.916 195.96 111.816 196.56 111.816 197.52C111.816 198.94 110.356 199.7 108.316 199.7C106.056 199.7 104.896 198.96 104.896 197.82ZM108.116 193.1C110.456 193.1 111.896 191.6 111.896 189.54C111.896 188.54 111.376 187.66 110.856 187.18L112.736 186L112.216 185.16L110.016 186.5C109.516 186.18 108.876 185.96 108.036 185.96C105.996 185.96 104.216 187.28 104.216 189.54C104.216 190.56 104.616 191.44 105.296 192.08C104.656 192.4 104.096 192.98 104.096 193.8C104.096 194.5 104.556 195.24 105.536 195.58C104.476 195.88 103.616 196.66 103.616 197.86C103.616 199.86 105.656 200.74 108.276 200.74C111.076 200.74 112.996 199.5 112.996 197.38C112.996 195.66 111.376 194.88 109.636 194.88H106.816C105.676 194.88 105.156 194.36 105.156 193.72C105.156 193.18 105.416 192.8 105.896 192.54C106.516 192.9 107.256 193.1 108.116 193.1ZM118.326 197.3C120.586 197.3 122.206 195.96 122.206 194.16C122.206 192.64 121.386 191.76 119.786 191.34L117.646 190.78C116.426 190.44 115.966 189.82 115.966 188.9C115.966 187.76 116.906 187.08 118.246 187.08C119.546 187.08 120.726 187.8 120.886 189.42H121.986C121.846 186.94 119.946 185.96 118.306 185.96C116.526 185.96 114.746 186.92 114.746 188.96C114.746 190.38 115.546 191.4 116.986 191.8L119.226 192.4C120.666 192.8 120.986 193.4 120.986 194.22C120.986 195.46 119.926 196.18 118.446 196.18C117.066 196.18 115.746 195.74 115.446 193.96H114.286C114.546 196.32 116.406 197.3 118.326 197.3ZM124.974 197H126.234V181.6H124.974V197ZM129.113 197.3H130.313L131.113 196.3C131.993 196.96 133.073 197.32 134.213 197.32C136.933 197.32 139.413 195.2 139.413 191.66C139.413 189.94 138.853 188.56 137.953 187.6L139.293 185.9H138.093L137.253 186.96C136.373 186.32 135.313 185.98 134.213 185.98C131.473 185.98 129.013 188.08 129.013 191.66C129.013 193.34 129.553 194.7 130.413 195.66L129.113 197.3ZM130.253 191.66C130.253 188.74 132.013 187.12 134.213 187.12C135.073 187.12 135.893 187.38 136.533 187.88L131.153 194.7C130.593 193.96 130.253 192.94 130.253 191.66ZM134.213 196.16C133.333 196.16 132.493 195.9 131.833 195.38L137.213 188.54C137.813 189.3 138.173 190.34 138.173 191.66C138.173 194.6 136.393 196.16 134.213 196.16ZM145.221 197.3C147.481 197.3 149.101 195.96 149.101 194.16C149.101 192.64 148.281 191.76 146.681 191.34L144.541 190.78C143.321 190.44 142.861 189.82 142.861 188.9C142.861 187.76 143.801 187.08 145.141 187.08C146.441 187.08 147.621 187.8 147.781 189.42H148.881C148.741 186.94 146.841 185.96 145.201 185.96C143.421 185.96 141.641 186.92 141.641 188.96C141.641 190.38 142.441 191.4 143.881 191.8L146.121 192.4C147.561 192.8 147.881 193.4 147.881 194.22C147.881 195.46 146.821 196.18 145.341 196.18C143.961 196.18 142.641 195.74 142.341 193.96H141.181C141.441 196.32 143.301 197.3 145.221 197.3ZM159.408 197H160.648V189.82C160.648 186.88 158.868 185.96 157.028 185.96C155.308 185.96 153.788 186.86 153.128 188.28V186.26H151.868V197H153.128V190.2C153.128 188.12 154.928 187.06 156.648 187.06C158.168 187.06 159.408 187.6 159.408 189.8V197ZM164.87 183.66C165.41 183.66 165.79 183.34 165.79 182.78C165.79 182.24 165.41 181.9 164.87 181.9C164.35 181.9 163.99 182.24 163.99 182.78C163.99 183.34 164.35 183.66 164.87 183.66ZM164.31 197H165.57V186.26H164.31V197ZM176.869 197H178.109V189.82C178.109 186.88 176.329 185.96 174.489 185.96C172.769 185.96 171.249 186.86 170.589 188.28V186.26H169.329V197H170.589V190.2C170.589 188.12 172.389 187.06 174.109 187.06C175.629 187.06 176.869 187.6 176.869 189.8V197ZM184.971 192.06C183.331 192.06 182.291 191.08 182.291 189.54C182.291 187.98 183.311 187 184.931 187C186.571 187 187.611 187.98 187.611 189.54C187.611 191.08 186.551 192.06 184.971 192.06ZM181.791 197.82C181.791 196.72 182.571 195.96 184.551 195.96H186.331C187.811 195.96 188.711 196.56 188.711 197.52C188.711 198.94 187.251 199.7 185.211 199.7C182.951 199.7 181.791 198.96 181.791 197.82ZM185.011 193.1C187.351 193.1 188.791 191.6 188.791 189.54C188.791 188.54 188.271 187.66 187.751 187.18L189.631 186L189.111 185.16L186.911 186.5C186.411 186.18 185.771 185.96 184.931 185.96C182.891 185.96 181.111 187.28 181.111 189.54C181.111 190.56 181.511 191.44 182.191 192.08C181.551 192.4 180.991 192.98 180.991 193.8C180.991 194.5 181.451 195.24 182.431 195.58C181.371 195.88 180.511 196.66 180.511 197.86C180.511 199.86 182.551 200.74 185.171 200.74C187.971 200.74 189.891 199.5 189.891 197.38C189.891 195.66 188.271 194.88 186.531 194.88H183.711C182.571 194.88 182.051 194.36 182.051 193.72C182.051 193.18 182.311 192.8 182.791 192.54C183.411 192.9 184.151 193.1 185.011 193.1ZM196.518 197.3C198.698 197.3 200.678 195.74 200.998 193.44H199.878C199.578 194.94 198.158 196.16 196.518 196.16C194.398 196.16 192.618 194.9 192.558 191.82H201.038V191.44C201.038 187.9 198.858 185.96 196.358 185.96C193.698 185.96 191.298 188.06 191.298 191.54C191.298 195.26 193.438 197.3 196.518 197.3ZM196.358 187.1C198.198 187.1 199.638 188.26 199.818 190.82H192.638C192.838 188.28 194.638 187.1 196.358 187.1ZM211.264 197H212.504V189.82C212.504 186.88 210.724 185.96 208.884 185.96C207.164 185.96 205.644 186.86 204.984 188.28V186.26H203.724V197H204.984V190.2C204.984 188.12 206.784 187.06 208.504 187.06C210.024 187.06 211.264 187.6 211.264 189.8V197ZM220.405 197.3C222.585 197.3 224.565 195.74 224.885 193.44H223.765C223.465 194.94 222.045 196.16 220.405 196.16C218.285 196.16 216.505 194.9 216.445 191.82H224.925V191.44C224.925 187.9 222.745 185.96 220.245 185.96C217.585 185.96 215.185 188.06 215.185 191.54C215.185 195.26 217.325 197.3 220.405 197.3ZM220.245 187.1C222.085 187.1 223.525 188.26 223.705 190.82H216.525C216.725 188.28 218.525 187.1 220.245 187.1ZM235.455 197.3C237.715 197.3 239.335 195.96 239.335 194.16C239.335 192.64 238.515 191.76 236.915 191.34L234.775 190.78C233.555 190.44 233.095 189.82 233.095 188.9C233.095 187.76 234.035 187.08 235.375 187.08C236.675 187.08 237.855 187.8 238.015 189.42H239.115C238.975 186.94 237.075 185.96 235.435 185.96C233.655 185.96 231.875 186.92 231.875 188.96C231.875 190.38 232.675 191.4 234.115 191.8L236.355 192.4C237.795 192.8 238.115 193.4 238.115 194.22C238.115 195.46 237.055 196.18 235.575 196.18C234.195 196.18 232.875 195.74 232.575 193.96H231.415C231.675 196.32 233.535 197.3 235.455 197.3ZM246.323 197.3C249.043 197.3 251.523 195.18 251.523 191.64C251.523 188.02 249.043 185.96 246.323 185.96C243.583 185.96 241.123 188.06 241.123 191.64C241.123 195.22 243.563 197.3 246.323 197.3ZM246.323 196.14C244.163 196.14 242.363 194.56 242.363 191.64C242.363 188.72 244.123 187.1 246.323 187.1C248.483 187.1 250.283 188.7 250.283 191.64C250.283 194.58 248.503 196.14 246.323 196.14ZM267.75 197H268.99V189.88C268.99 186.92 267.47 185.96 265.81 185.96C264.17 185.96 262.85 186.92 262.11 188.42C261.69 186.6 260.43 185.96 259.07 185.96C257.51 185.96 256.27 186.82 255.55 188.26V186.26H254.29V197H255.55V190.18C255.55 188.12 257.19 187.06 258.67 187.06C260.13 187.06 261.03 187.74 261.03 189.8V197H262.27V190.26C262.27 188.1 263.87 187.06 265.41 187.06C266.83 187.06 267.75 187.74 267.75 189.78V197ZM278.014 183.66C278.554 183.66 278.934 183.34 278.934 182.78C278.934 182.24 278.554 181.9 278.014 181.9C277.494 181.9 277.134 182.24 277.134 182.78C277.134 183.34 277.494 183.66 278.014 183.66ZM277.454 197H278.714V186.26H277.454V197ZM294.958 197H296.198V181.6H294.958V188.14C294.398 186.96 292.958 185.96 291.198 185.96C288.678 185.96 286.298 188.04 286.298 191.34C286.298 195 288.558 197.3 291.378 197.3C292.958 197.3 294.278 196.38 294.958 195.06V197ZM291.378 196.16C289.298 196.16 287.538 194.58 287.538 191.42C287.538 188.5 289.298 187.1 291.398 187.1C292.798 187.1 294.958 188.14 294.958 190.42V192.4C294.958 194.76 293.178 196.16 291.378 196.16ZM302.455 196.24C300.835 196.24 300.095 195.34 300.095 194.14C300.095 192.58 301.295 191.92 303.315 191.92H305.875V193.08C305.875 195.2 303.915 196.24 302.455 196.24ZM308.555 195.96C308.375 195.98 308.235 196 308.075 196C307.455 196 307.115 195.7 307.115 195.12V189.22C307.115 187.2 305.675 185.96 303.195 185.96C301.275 185.96 299.555 187.02 299.315 189.2H300.415C300.615 187.92 301.615 187.06 303.155 187.06C304.815 187.06 305.875 187.8 305.875 189.46V190.9H303.255C300.895 190.9 298.875 191.68 298.875 194.2C298.875 195.8 299.855 197.3 302.335 197.3C303.895 197.3 305.295 196.32 305.875 195.06V195.34C305.875 196.5 306.635 197.08 307.795 197.08C308.155 197.08 308.335 197.04 308.555 196.98V195.96ZM313.975 192.06C312.335 192.06 311.295 191.08 311.295 189.54C311.295 187.98 312.315 187 313.935 187C315.575 187 316.615 187.98 316.615 189.54C316.615 191.08 315.555 192.06 313.975 192.06ZM310.795 197.82C310.795 196.72 311.575 195.96 313.555 195.96H315.335C316.815 195.96 317.715 196.56 317.715 197.52C317.715 198.94 316.255 199.7 314.215 199.7C311.955 199.7 310.795 198.96 310.795 197.82ZM314.015 193.1C316.355 193.1 317.795 191.6 317.795 189.54C317.795 188.54 317.275 187.66 316.755 187.18L318.635 186L318.115 185.16L315.915 186.5C315.415 186.18 314.775 185.96 313.935 185.96C311.895 185.96 310.115 187.28 310.115 189.54C310.115 190.56 310.515 191.44 311.195 192.08C310.555 192.4 309.995 192.98 309.995 193.8C309.995 194.5 310.455 195.24 311.435 195.58C310.375 195.88 309.515 196.66 309.515 197.86C309.515 199.86 311.555 200.74 314.175 200.74C316.975 200.74 318.895 199.5 318.895 197.38C318.895 195.66 317.275 194.88 315.535 194.88H312.715C311.575 194.88 311.055 194.36 311.055 193.72C311.055 193.18 311.315 192.8 311.795 192.54C312.415 192.9 313.155 193.1 314.015 193.1ZM322.402 197.3C322.882 197.3 323.322 196.94 323.322 196.38C323.322 195.84 322.882 195.48 322.402 195.48C321.922 195.48 321.482 195.84 321.482 196.38C321.482 196.94 321.922 197.3 322.402 197.3ZM332.163 197H337.023C341.243 197 343.843 194.16 343.843 189.5C343.843 184.98 341.163 182 337.023 182H332.163V197ZM336.743 183.16C340.303 183.16 342.543 185.24 342.543 189.5C342.543 193.62 340.443 195.84 336.863 195.84H333.443V183.16H336.743ZM350.114 197.3C351.734 197.3 353.154 196.34 353.834 194.88V197H355.074V186.26H353.834V192.88C353.834 195.12 352.054 196.18 350.474 196.18C348.854 196.18 347.794 195.54 347.794 193.26V186.26H346.534V193.3C346.534 196.28 348.174 197.3 350.114 197.3ZM28.88 229H30.14V225.26L31.82 223.62L36 229H37.5L32.66 222.8L37.3 218.26H35.78L30.14 223.78V213.6H28.88V229ZM41.9864 228.24C40.3664 228.24 39.6264 227.34 39.6264 226.14C39.6264 224.58 40.8264 223.92 42.8464 223.92H45.4064V225.08C45.4064 227.2 43.4464 228.24 41.9864 228.24ZM48.0864 227.96C47.9064 227.98 47.7664 228 47.6064 228C46.9864 228 46.6464 227.7 46.6464 227.12V221.22C46.6464 219.2 45.2064 217.96 42.7264 217.96C40.8064 217.96 39.0864 219.02 38.8464 221.2H39.9464C40.1464 219.92 41.1464 219.06 42.6864 219.06C44.3464 219.06 45.4064 219.8 45.4064 221.46V222.9H42.7864C40.4264 222.9 38.4064 223.68 38.4064 226.2C38.4064 227.8 39.3864 229.3 41.8664 229.3C43.4264 229.3 44.8264 228.32 45.4064 227.06V227.34C45.4064 228.5 46.1664 229.08 47.3264 229.08C47.6864 229.08 47.8664 229.04 48.0864 228.98V227.96ZM57.8458 229H59.0858V221.82C59.0858 218.88 57.3058 217.96 55.4658 217.96C53.7458 217.96 52.2258 218.86 51.5658 220.28V218.26H50.3058V229H51.5658V222.2C51.5658 220.12 53.3658 219.06 55.0858 219.06C56.6058 219.06 57.8458 219.6 57.8458 221.8V229ZM71.7719 229.3C74.4919 229.3 76.9719 227.18 76.9719 223.64C76.9719 220.02 74.4919 217.96 71.7719 217.96C69.0319 217.96 66.5719 220.06 66.5719 223.64C66.5719 227.22 69.0119 229.3 71.7719 229.3ZM71.7719 228.14C69.6119 228.14 67.8119 226.56 67.8119 223.64C67.8119 220.72 69.5719 219.1 71.7719 219.1C73.9319 219.1 75.7319 220.7 75.7319 223.64C75.7319 226.58 73.9519 228.14 71.7719 228.14ZM82.9394 224.06C81.2994 224.06 80.2594 223.08 80.2594 221.54C80.2594 219.98 81.2794 219 82.8994 219C84.5394 219 85.5794 219.98 85.5794 221.54C85.5794 223.08 84.5194 224.06 82.9394 224.06ZM79.7594 229.82C79.7594 228.72 80.5394 227.96 82.5194 227.96H84.2994C85.7794 227.96 86.6794 228.56 86.6794 229.52C86.6794 230.94 85.2194 231.7 83.1794 231.7C80.9194 231.7 79.7594 230.96 79.7594 229.82ZM82.9794 225.1C85.3194 225.1 86.7594 223.6 86.7594 221.54C86.7594 220.54 86.2394 219.66 85.7194 219.18L87.5994 218L87.0794 217.16L84.8794 218.5C84.3794 218.18 83.7394 217.96 82.8994 217.96C80.8594 217.96 79.0794 219.28 79.0794 221.54C79.0794 222.56 79.4794 223.44 80.1594 224.08C79.5194 224.4 78.9594 224.98 78.9594 225.8C78.9594 226.5 79.4194 227.24 80.3994 227.58C79.3394 227.88 78.4794 228.66 78.4794 229.86C78.4794 231.86 80.5194 232.74 83.1394 232.74C85.9394 232.74 87.8594 231.5 87.8594 229.38C87.8594 227.66 86.2394 226.88 84.4994 226.88H81.6794C80.5394 226.88 80.0194 226.36 80.0194 225.72C80.0194 225.18 80.2794 224.8 80.7594 224.54C81.3794 224.9 82.1194 225.1 82.9794 225.1ZM93.1895 229.3C95.4495 229.3 97.0695 227.96 97.0695 226.16C97.0695 224.64 96.2495 223.76 94.6495 223.34L92.5095 222.78C91.2895 222.44 90.8295 221.82 90.8295 220.9C90.8295 219.76 91.7695 219.08 93.1095 219.08C94.4095 219.08 95.5895 219.8 95.7495 221.42H96.8495C96.7095 218.94 94.8095 217.96 93.1695 217.96C91.3895 217.96 89.6095 218.92 89.6095 220.96C89.6095 222.38 90.4095 223.4 91.8495 223.8L94.0895 224.4C95.5295 224.8 95.8495 225.4 95.8495 226.22C95.8495 227.46 94.7895 228.18 93.3095 228.18C91.9295 228.18 90.6095 227.74 90.3095 225.96H89.1495C89.4095 228.32 91.2695 229.3 93.1895 229.3ZM102.377 228.24C100.757 228.24 100.017 227.34 100.017 226.14C100.017 224.58 101.217 223.92 103.237 223.92H105.797V225.08C105.797 227.2 103.837 228.24 102.377 228.24ZM108.477 227.96C108.297 227.98 108.157 228 107.997 228C107.377 228 107.037 227.7 107.037 227.12V221.22C107.037 219.2 105.597 217.96 103.117 217.96C101.197 217.96 99.477 219.02 99.237 221.2H100.337C100.537 219.92 101.537 219.06 103.077 219.06C104.737 219.06 105.797 219.8 105.797 221.46V222.9H103.177C100.817 222.9 98.797 223.68 98.797 226.2C98.797 227.8 99.777 229.3 102.257 229.3C103.817 229.3 105.217 228.32 105.797 227.06V227.34C105.797 228.5 106.557 229.08 107.717 229.08C108.077 229.08 108.257 229.04 108.477 228.98V227.96ZM103.257 215.94C102.437 215.94 101.817 215.38 101.817 214.48C101.817 213.48 102.457 213.02 103.257 213.02C104.077 213.02 104.717 213.5 104.717 214.48C104.717 215.4 104.057 215.94 103.257 215.94ZM103.257 216.74C104.557 216.74 105.557 215.92 105.557 214.48C105.557 213.12 104.557 212.22 103.257 212.22C102.017 212.22 100.977 213.02 100.977 214.48C100.977 215.82 102.017 216.74 103.257 216.74ZM115.501 229H116.761V225.26L118.441 223.62L122.621 229H124.121L119.281 222.8L123.921 218.26H122.401L116.761 223.78V213.6H115.501V229ZM130.092 229.3C132.812 229.3 135.292 227.18 135.292 223.64C135.292 220.02 132.812 217.96 130.092 217.96C127.352 217.96 124.892 220.06 124.892 223.64C124.892 227.22 127.332 229.3 130.092 229.3ZM130.092 228.14C127.932 228.14 126.132 226.56 126.132 223.64C126.132 220.72 127.892 219.1 130.092 219.1C132.252 219.1 134.052 220.7 134.052 223.64C134.052 226.58 132.272 228.14 130.092 228.14ZM145.6 229H146.84V221.82C146.84 218.88 145.06 217.96 143.22 217.96C141.5 217.96 139.98 218.86 139.32 220.28V218.26H138.06V229H139.32V222.2C139.32 220.12 141.12 219.06 142.84 219.06C144.36 219.06 145.6 219.6 145.6 221.8V229ZM154.561 228.98V227.98C154.321 228.06 153.881 228.12 153.541 228.12C152.641 228.12 151.901 227.82 151.901 226.92V219.34H154.261V218.26H151.901V215.56H150.701V218.26H148.861V219.34H150.661V227.1C150.661 228.58 151.801 229.2 153.261 229.2C153.741 229.2 154.261 229.12 154.561 228.98ZM159.408 228.24C157.788 228.24 157.048 227.34 157.048 226.14C157.048 224.58 158.248 223.92 160.268 223.92H162.828V225.08C162.828 227.2 160.868 228.24 159.408 228.24ZM165.508 227.96C165.328 227.98 165.188 228 165.028 228C164.408 228 164.068 227.7 164.068 227.12V221.22C164.068 219.2 162.628 217.96 160.148 217.96C158.228 217.96 156.508 219.02 156.268 221.2H157.368C157.568 219.92 158.568 219.06 160.108 219.06C161.768 219.06 162.828 219.8 162.828 221.46V222.9H160.208C157.848 222.9 155.828 223.68 155.828 226.2C155.828 227.8 156.808 229.3 159.288 229.3C160.848 229.3 162.248 228.32 162.828 227.06V227.34C162.828 228.5 163.588 229.08 164.748 229.08C165.108 229.08 165.288 229.04 165.508 228.98V227.96ZM167.728 229H168.988V225.26L170.668 223.62L174.848 229H176.348L171.508 222.8L176.148 218.26H174.628L168.988 223.78V213.6H167.728V229ZM182.452 228.98V227.98C182.212 228.06 181.772 228.12 181.432 228.12C180.532 228.12 179.792 227.82 179.792 226.92V219.34H182.152V218.26H179.792V215.56H178.592V218.26H176.752V219.34H178.552V227.1C178.552 228.58 179.692 229.2 181.152 229.2C181.632 229.2 182.152 229.12 182.452 228.98ZM188.999 229.3C191.179 229.3 193.159 227.74 193.479 225.44H192.359C192.059 226.94 190.639 228.16 188.999 228.16C186.879 228.16 185.099 226.9 185.039 223.82H193.519V223.44C193.519 219.9 191.339 217.96 188.839 217.96C186.179 217.96 183.779 220.06 183.779 223.54C183.779 227.26 185.919 229.3 188.999 229.3ZM188.839 219.1C190.679 219.1 192.119 220.26 192.299 222.82H185.119C185.319 220.28 187.119 219.1 188.839 219.1ZM200.949 229H202.189V226.98C202.809 228.28 204.169 229.3 205.889 229.3C208.629 229.3 210.869 227.04 210.869 223.26C210.869 220.04 208.549 217.96 206.029 217.96C204.109 217.96 202.729 219.04 202.189 220.18V213.6H200.949V229ZM205.769 228.16C204.049 228.16 202.189 226.94 202.189 224.4V222.54C202.189 220.22 204.229 219.1 205.809 219.1C207.869 219.1 209.629 220.4 209.629 223.38C209.629 226.52 207.949 228.16 205.769 228.16ZM216.186 228.24C214.566 228.24 213.826 227.34 213.826 226.14C213.826 224.58 215.026 223.92 217.046 223.92H219.606V225.08C219.606 227.2 217.646 228.24 216.186 228.24ZM222.286 227.96C222.106 227.98 221.966 228 221.806 228C221.186 228 220.846 227.7 220.846 227.12V221.22C220.846 219.2 219.406 217.96 216.926 217.96C215.006 217.96 213.286 219.02 213.046 221.2H214.146C214.346 219.92 215.346 219.06 216.886 219.06C218.546 219.06 219.606 219.8 219.606 221.46V222.9H216.986C214.626 222.9 212.606 223.68 212.606 226.2C212.606 227.8 213.586 229.3 216.066 229.3C217.626 229.3 219.026 228.32 219.606 227.06V227.34C219.606 228.5 220.366 229.08 221.526 229.08C221.886 229.08 222.066 229.04 222.286 228.98V227.96ZM232.045 229H233.285V221.82C233.285 218.88 231.505 217.96 229.665 217.96C227.945 217.96 226.425 218.86 225.765 220.28V218.26H224.505V229H225.765V222.2C225.765 220.12 227.565 219.06 229.285 219.06C230.805 219.06 232.045 219.6 232.045 221.8V229ZM236.946 229H238.206V225.26L239.886 223.62L244.066 229H245.566L240.726 222.8L245.366 218.26H243.846L238.206 223.78V213.6H236.946V229ZM251.558 229.3C253.738 229.3 255.717 227.74 256.038 225.44H254.918C254.618 226.94 253.198 228.16 251.558 228.16C249.438 228.16 247.658 226.9 247.598 223.82H256.078V223.44C256.078 219.9 253.898 217.96 251.398 217.96C248.738 217.96 246.338 220.06 246.338 223.54C246.338 227.26 248.478 229.3 251.558 229.3ZM251.398 219.1C253.238 219.1 254.678 220.26 254.858 222.82H247.678C247.878 220.28 249.678 219.1 251.398 219.1ZM266.303 229H267.543V221.82C267.543 218.88 265.763 217.96 263.923 217.96C262.203 217.96 260.683 218.86 260.023 220.28V218.26H258.763V229H260.023V222.2C260.023 220.12 261.823 219.06 263.543 219.06C265.063 219.06 266.303 219.6 266.303 221.8V229ZM283.689 229H284.929V213.6H283.689V220.14C283.129 218.96 281.689 217.96 279.929 217.96C277.409 217.96 275.029 220.04 275.029 223.34C275.029 227 277.289 229.3 280.109 229.3C281.689 229.3 283.009 228.38 283.689 227.06V229ZM280.109 228.16C278.029 228.16 276.269 226.58 276.269 223.42C276.269 220.5 278.029 219.1 280.129 219.1C281.529 219.1 283.689 220.14 283.689 222.42V224.4C283.689 226.76 281.909 228.16 280.109 228.16ZM289.206 215.66C289.746 215.66 290.126 215.34 290.126 214.78C290.126 214.24 289.746 213.9 289.206 213.9C288.686 213.9 288.326 214.24 288.326 214.78C288.326 215.34 288.686 215.66 289.206 215.66ZM288.646 229H289.906V218.26H288.646V229ZM301.205 229H302.445V221.82C302.445 218.88 300.665 217.96 298.825 217.96C297.105 217.96 295.585 218.86 294.925 220.28V218.26H293.665V229H294.925V222.2C294.925 220.12 296.725 219.06 298.445 219.06C299.965 219.06 301.205 219.6 301.205 221.8V229ZM309.631 223.8H315.831V222.58H309.631V223.8ZM323.198 229H328.058C332.278 229 334.878 226.16 334.878 221.5C334.878 216.98 332.198 214 328.058 214H323.198V229ZM327.778 215.16C331.338 215.16 333.578 217.24 333.578 221.5C333.578 225.62 331.478 227.84 327.898 227.84H324.478V215.16H327.778ZM337.749 229H339.009V215.92L348.229 229H349.549V214H348.289V227.06L339.109 214H337.749V229ZM353.612 229H358.612C361.272 229 363.072 227.36 363.072 224.82C363.072 222.98 361.852 221.72 360.172 221.26C361.372 220.72 362.432 219.58 362.432 217.88C362.432 215.46 360.812 214 358.312 214H353.612V229ZM358.512 221.92C360.392 221.92 361.772 223.02 361.772 224.88C361.772 226.58 360.652 227.84 358.612 227.84H354.892V221.92H358.512ZM358.172 215.16C360.152 215.16 361.132 216.26 361.132 217.88C361.132 219.84 359.952 220.76 358.192 220.76H354.892V215.16H358.172ZM33.12 261.3C35.3 261.3 37.28 259.74 37.6 257.44H36.48C36.18 258.94 34.76 260.16 33.12 260.16C31 260.16 29.22 258.9 29.16 255.82H37.64V255.44C37.64 251.9 35.46 249.96 32.96 249.96C30.3 249.96 27.9 252.06 27.9 255.54C27.9 259.26 30.04 261.3 33.12 261.3ZM32.96 251.1C34.8 251.1 36.24 252.26 36.42 254.82H29.24C29.44 252.28 31.24 251.1 32.96 251.1ZM40.3253 261H41.5853V245.6H40.3253V261ZM45.3448 261H46.6048V245.6H45.3448V261ZM54.6044 261.3C56.7844 261.3 58.7644 259.74 59.0844 257.44H57.9644C57.6644 258.94 56.2444 260.16 54.6044 260.16C52.4844 260.16 50.7044 258.9 50.6444 255.82H59.1244V255.44C59.1244 251.9 56.9444 249.96 54.4444 249.96C51.7844 249.96 49.3844 252.06 49.3844 255.54C49.3844 259.26 51.5244 261.3 54.6044 261.3ZM54.4444 251.1C56.2844 251.1 57.7244 252.26 57.9044 254.82H50.7244C50.9244 252.28 52.7244 251.1 54.4444 251.1ZM63.0697 255.14C63.0697 253 64.3097 251.36 66.3897 251.36C66.6697 251.36 66.9497 251.38 67.2297 251.44V250.16C66.9897 250.1 66.6897 250.08 66.4697 250.08C64.5297 250.08 63.4497 251.58 63.0697 252.84V250.26H61.8097V261H63.0697V255.14ZM78.1106 261.3C81.0106 261.3 83.0506 259.74 83.0506 257.14C83.0506 254.88 81.4306 253.74 79.7706 253.32L77.2706 252.66C75.5906 252.22 74.8506 251.28 74.8506 249.92C74.8506 248.1 76.1906 247.1 78.0906 247.1C79.7906 247.1 81.2106 248 81.5506 250.1H82.7506C82.4506 247.32 80.3506 245.9 78.0906 245.9C75.7506 245.9 73.5506 247.36 73.5506 249.96C73.5506 251.76 74.6306 253.26 76.9106 253.88L79.1306 254.48C80.8706 254.96 81.7506 255.62 81.7506 257.32C81.7506 259.12 80.2106 260.08 78.1506 260.12C76.1706 260.14 74.7306 259.38 74.1106 257.06H72.9106C73.4506 260 75.4706 261.3 78.1106 261.3ZM90.4369 260.16C88.6769 260.16 86.8569 258.88 86.8569 256.4V254.54C86.8569 252.24 88.8969 251.1 90.4569 251.1C92.5569 251.1 94.2969 252.42 94.2969 255.38C94.2969 258.58 92.5769 260.16 90.4369 260.16ZM90.5769 261.3C93.2969 261.3 95.5369 259 95.5369 255.32C95.5369 251.98 93.1769 249.96 90.7169 249.96C88.7769 249.96 87.3769 251.06 86.8569 252.22V250.26H85.6169V265H86.8569V259.04C87.4769 260.36 88.8969 261.3 90.5769 261.3ZM100.854 260.24C99.2336 260.24 98.4936 259.34 98.4936 258.14C98.4936 256.58 99.6936 255.92 101.714 255.92H104.274V257.08C104.274 259.2 102.314 260.24 100.854 260.24ZM106.954 259.96C106.774 259.98 106.634 260 106.474 260C105.854 260 105.514 259.7 105.514 259.12V253.22C105.514 251.2 104.074 249.96 101.594 249.96C99.6736 249.96 97.9536 251.02 97.7136 253.2H98.8136C99.0136 251.92 100.014 251.06 101.554 251.06C103.214 251.06 104.274 251.8 104.274 253.46V254.9H101.654C99.2936 254.9 97.2736 255.68 97.2736 258.2C97.2736 259.8 98.2536 261.3 100.734 261.3C102.294 261.3 103.694 260.32 104.274 259.06V259.34C104.274 260.5 105.034 261.08 106.194 261.08C106.554 261.08 106.734 261.04 106.954 260.98V259.96ZM110.433 255.14C110.433 253 111.673 251.36 113.753 251.36C114.033 251.36 114.313 251.38 114.593 251.44V250.16C114.353 250.1 114.053 250.08 113.833 250.08C111.893 250.08 110.813 251.58 110.433 252.84V250.26H109.173V261H110.433V255.14ZM120.874 261.3C123.054 261.3 125.034 259.74 125.354 257.44H124.234C123.934 258.94 122.514 260.16 120.874 260.16C118.754 260.16 116.974 258.9 116.914 255.82H125.394V255.44C125.394 251.9 123.214 249.96 120.714 249.96C118.054 249.96 115.654 252.06 115.654 255.54C115.654 259.26 117.794 261.3 120.874 261.3ZM120.714 251.1C122.554 251.1 123.994 252.26 124.174 254.82H116.994C117.194 252.28 118.994 251.1 120.714 251.1ZM128.299 261H133.299C135.959 261 137.759 259.36 137.759 256.82C137.759 254.98 136.539 253.72 134.859 253.26C136.059 252.72 137.119 251.58 137.119 249.88C137.119 247.46 135.499 246 132.999 246H128.299V261ZM133.199 253.92C135.079 253.92 136.459 255.02 136.459 256.88C136.459 258.58 135.339 259.84 133.299 259.84H129.579V253.92H133.199ZM132.859 247.16C134.839 247.16 135.819 248.26 135.819 249.88C135.819 251.84 134.639 252.76 132.879 252.76H129.579V247.16H132.859ZM143.1 260.24C141.48 260.24 140.74 259.34 140.74 258.14C140.74 256.58 141.94 255.92 143.96 255.92H146.52V257.08C146.52 259.2 144.56 260.24 143.1 260.24ZM149.2 259.96C149.02 259.98 148.88 260 148.72 260C148.1 260 147.76 259.7 147.76 259.12V253.22C147.76 251.2 146.32 249.96 143.84 249.96C141.92 249.96 140.2 251.02 139.96 253.2H141.06C141.26 251.92 142.26 251.06 143.8 251.06C145.46 251.06 146.52 251.8 146.52 253.46V254.9H143.9C141.54 254.9 139.52 255.68 139.52 258.2C139.52 259.8 140.5 261.3 142.98 261.3C144.54 261.3 145.94 260.32 146.52 259.06V259.34C146.52 260.5 147.28 261.08 148.44 261.08C148.8 261.08 148.98 261.04 149.2 260.98V259.96ZM158.959 261H160.199V253.82C160.199 250.88 158.419 249.96 156.579 249.96C154.859 249.96 153.339 250.86 152.679 252.28V250.26H151.419V261H152.679V254.2C152.679 252.12 154.479 251.06 156.199 251.06C157.719 251.06 158.959 251.6 158.959 253.8V261ZM163.86 261H165.12V257.26L166.8 255.62L170.98 261H172.48L167.64 254.8L172.28 250.26H170.76L165.12 255.78V245.6H163.86V261ZM181.689 261H183.029V245.9H182.009C181.829 248.1 181.409 248.46 178.589 248.42V249.4H181.689V261ZM188.262 261.3C188.742 261.3 189.182 260.94 189.182 260.38C189.182 259.84 188.742 259.48 188.262 259.48C187.782 259.48 187.342 259.84 187.342 260.38C187.342 260.94 187.782 261.3 188.262 261.3Z" fill="black"/>
<path d="M83.56 133H84.8V117.6H83.56V124.14C83 122.96 81.56 121.96 79.8 121.96C77.28 121.96 74.9 124.04 74.9 127.34C74.9 131 77.16 133.3 79.98 133.3C81.56 133.3 82.88 132.38 83.56 131.06V133ZM79.98 132.16C77.9 132.16 76.14 130.58 76.14 127.42C76.14 124.5 77.9 123.1 80 123.1C81.4 123.1 83.56 124.14 83.56 126.42V128.4C83.56 130.76 81.78 132.16 79.98 132.16ZM96.0567 133H97.2967V125.82C97.2967 122.88 95.5167 121.96 93.6767 121.96C91.9567 121.96 90.4367 122.86 89.7767 124.28V122.26H88.5167V133H89.7767V126.2C89.7767 124.12 91.5767 123.06 93.2967 123.06C94.8167 123.06 96.0567 123.6 96.0567 125.8V133ZM100.898 133H102.138V130.98C102.758 132.28 104.118 133.3 105.838 133.3C108.578 133.3 110.818 131.04 110.818 127.26C110.818 124.04 108.498 121.96 105.978 121.96C104.058 121.96 102.678 123.04 102.138 124.18V117.6H100.898V133ZM105.718 132.16C103.998 132.16 102.138 130.94 102.138 128.4V126.54C102.138 124.22 104.178 123.1 105.758 123.1C107.818 123.1 109.578 124.4 109.578 127.38C109.578 130.52 107.898 132.16 105.718 132.16ZM114.715 133.3C115.195 133.3 115.635 132.94 115.635 132.38C115.635 131.84 115.195 131.48 114.715 131.48C114.235 131.48 113.795 131.84 113.795 132.38C113.795 132.94 114.235 133.3 114.715 133.3ZM127.131 133H128.371V125.82C128.371 122.88 126.591 121.96 124.751 121.96C123.031 121.96 121.511 122.86 120.851 124.28V122.26H119.591V133H120.851V126.2C120.851 124.12 122.651 123.06 124.371 123.06C125.891 123.06 127.131 123.6 127.131 125.8V133ZM136.252 133.3C138.972 133.3 141.452 131.18 141.452 127.64C141.452 124.02 138.972 121.96 136.252 121.96C133.512 121.96 131.052 124.06 131.052 127.64C131.052 131.22 133.492 133.3 136.252 133.3ZM136.252 132.14C134.092 132.14 132.292 130.56 132.292 127.64C132.292 124.72 134.052 123.1 136.252 123.1C138.412 123.1 140.212 124.7 140.212 127.64C140.212 130.58 138.432 132.14 136.252 132.14Z" fill="black"/>
<path d="M160.62 122.06L159.84 122.86L163.68 126.66H152.8V127.78H163.66L159.84 131.54L160.62 132.34L165.64 127.2L160.62 122.06Z" fill="black"/>
<path d="M221.92 133.3C224.18 133.3 225.8 131.96 225.8 130.16C225.8 128.64 224.98 127.76 223.38 127.34L221.24 126.78C220.02 126.44 219.56 125.82 219.56 124.9C219.56 123.76 220.5 123.08 221.84 123.08C223.14 123.08 224.32 123.8 224.48 125.42H225.58C225.44 122.94 223.54 121.96 221.9 121.96C220.12 121.96 218.34 122.92 218.34 124.96C218.34 126.38 219.14 127.4 220.58 127.8L222.82 128.4C224.26 128.8 224.58 129.4 224.58 130.22C224.58 131.46 223.52 132.18 222.04 132.18C220.66 132.18 219.34 131.74 219.04 129.96H217.88C218.14 132.32 220 133.3 221.92 133.3ZM233.328 132.16C231.568 132.16 229.748 130.88 229.748 128.4V126.54C229.748 124.24 231.788 123.1 233.348 123.1C235.448 123.1 237.188 124.42 237.188 127.38C237.188 130.58 235.468 132.16 233.328 132.16ZM233.468 133.3C236.188 133.3 238.428 131 238.428 127.32C238.428 123.98 236.068 121.96 233.608 121.96C231.668 121.96 230.268 123.06 229.748 124.22V122.26H228.508V137H229.748V131.04C230.368 132.36 231.788 133.3 233.468 133.3ZM243.744 132.24C242.124 132.24 241.384 131.34 241.384 130.14C241.384 128.58 242.584 127.92 244.604 127.92H247.164V129.08C247.164 131.2 245.204 132.24 243.744 132.24ZM249.844 131.96C249.664 131.98 249.524 132 249.364 132C248.744 132 248.404 131.7 248.404 131.12V125.22C248.404 123.2 246.964 121.96 244.484 121.96C242.564 121.96 240.844 123.02 240.604 125.2H241.704C241.904 123.92 242.904 123.06 244.444 123.06C246.104 123.06 247.164 123.8 247.164 125.46V126.9H244.544C242.184 126.9 240.164 127.68 240.164 130.2C240.164 131.8 241.144 133.3 243.624 133.3C245.184 133.3 246.584 132.32 247.164 131.06V131.34C247.164 132.5 247.924 133.08 249.084 133.08C249.444 133.08 249.624 133.04 249.844 132.98V131.96ZM253.324 127.14C253.324 125 254.564 123.36 256.644 123.36C256.924 123.36 257.204 123.38 257.484 123.44V122.16C257.244 122.1 256.944 122.08 256.724 122.08C254.784 122.08 253.704 123.58 253.324 124.84V122.26H252.064V133H253.324V127.14ZM263.765 133.3C265.945 133.3 267.925 131.74 268.245 129.44H267.125C266.825 130.94 265.405 132.16 263.765 132.16C261.645 132.16 259.865 130.9 259.805 127.82H268.285V127.44C268.285 123.9 266.105 121.96 263.605 121.96C260.945 121.96 258.545 124.06 258.545 127.54C258.545 131.26 260.685 133.3 263.765 133.3ZM263.605 123.1C265.445 123.1 266.885 124.26 267.065 126.82H259.885C260.085 124.28 261.885 123.1 263.605 123.1ZM270.91 133H272.15V130.98C272.77 132.28 274.13 133.3 275.85 133.3C278.59 133.3 280.83 131.04 280.83 127.26C280.83 124.04 278.51 121.96 275.99 121.96C274.07 121.96 272.69 123.04 272.15 124.18V117.6H270.91V133ZM275.73 132.16C274.01 132.16 272.15 130.94 272.15 128.4V126.54C272.15 124.22 274.19 123.1 275.77 123.1C277.83 123.1 279.59 124.4 279.59 127.38C279.59 130.52 277.91 132.16 275.73 132.16ZM286.147 132.24C284.527 132.24 283.787 131.34 283.787 130.14C283.787 128.58 284.987 127.92 287.007 127.92H289.567V129.08C289.567 131.2 287.607 132.24 286.147 132.24ZM292.247 131.96C292.067 131.98 291.927 132 291.767 132C291.147 132 290.807 131.7 290.807 131.12V125.22C290.807 123.2 289.367 121.96 286.887 121.96C284.967 121.96 283.247 123.02 283.007 125.2H284.107C284.307 123.92 285.307 123.06 286.847 123.06C288.507 123.06 289.567 123.8 289.567 125.46V126.9H286.947C284.587 126.9 282.567 127.68 282.567 130.2C282.567 131.8 283.547 133.3 286.027 133.3C287.587 133.3 288.987 132.32 289.567 131.06V131.34C289.567 132.5 290.327 133.08 291.487 133.08C291.847 133.08 292.027 133.04 292.247 132.98V131.96ZM302.006 133H303.246V125.82C303.246 122.88 301.466 121.96 299.626 121.96C297.906 121.96 296.386 122.86 295.726 124.28V122.26H294.466V133H295.726V126.2C295.726 124.12 297.526 123.06 299.246 123.06C300.766 123.06 302.006 123.6 302.006 125.8V133ZM306.907 133H308.167V129.26L309.847 127.62L314.027 133H315.527L310.687 126.8L315.327 122.26H313.807L308.167 127.78V117.6H306.907V133ZM319.931 133H321.271V117.9H320.251C320.071 120.1 319.651 120.46 316.831 120.42V121.4H319.931V133ZM326.504 133.3C326.984 133.3 327.424 132.94 327.424 132.38C327.424 131.84 326.984 131.48 326.504 131.48C326.024 131.48 325.584 131.84 325.584 132.38C325.584 132.94 326.024 133.3 326.504 133.3ZM338.92 133H340.16V125.82C340.16 122.88 338.38 121.96 336.54 121.96C334.82 121.96 333.3 122.86 332.64 124.28V122.26H331.38V133H332.64V126.2C332.64 124.12 334.44 123.06 336.16 123.06C337.68 123.06 338.92 123.6 338.92 125.8V133ZM348.041 133.3C350.761 133.3 353.241 131.18 353.241 127.64C353.241 124.02 350.761 121.96 348.041 121.96C345.301 121.96 342.841 124.06 342.841 127.64C342.841 131.22 345.281 133.3 348.041 133.3ZM348.041 132.14C345.881 132.14 344.081 130.56 344.081 127.64C344.081 124.72 345.841 123.1 348.041 123.1C350.201 123.1 352.001 124.7 352.001 127.64C352.001 130.58 350.221 132.14 348.041 132.14Z" fill="black"/>
<path d="M366.62 122.06L365.84 122.86L369.68 126.66H358.8V127.78H369.66L365.84 131.54L366.62 132.34L371.64 127.2L366.62 122.06Z" fill="black"/>
</svg>
