<svg width="862" height="350" viewBox="0 0 862 350" fill="none" xmlns="http://www.w3.org/2000/svg">
<rect width="862" height="350" fill="white"/>
<path d="M702.052 224.174L707.571 218.961L633.26 148.778L559 218.912L564.735 224.328L599.591 191.403L634.459 224.333L639.984 219.115L605.122 186.184L633.475 159.407L702.052 224.174Z" fill="#020203"/>
<line x1="633.5" y1="111" x2="633.5" y2="148.778" stroke="black"/>
<line x1="631" y1="110.5" x2="636" y2="110.5" stroke="black"/>
<line x1="631" y1="148.278" x2="636" y2="148.278" stroke="black"/>
<line x1="634.5" y1="225.278" x2="634.5" y2="281.944" stroke="black"/>
<line x1="632" y1="224.778" x2="637" y2="224.778" stroke="black"/>
<line x1="632" y1="281.444" x2="637" y2="281.444" stroke="black"/>
<path d="M660.216 256.384V257.312H661.448C663.112 257.312 664.328 258.08 664.328 259.76C664.328 261.312 663.288 262.368 661.8 262.368C659.992 262.368 659.224 261.424 658.904 260.224H657.88C658.328 262.064 659.656 263.296 661.8 263.296C663.8 263.296 665.352 261.968 665.352 259.76C665.352 258.128 664.344 257.152 663.096 256.8C664.2 256.352 664.888 255.344 664.888 254.112C664.888 252.304 663.464 250.976 661.592 250.976C660.2 250.976 658.488 251.712 658.312 253.904H659.304C659.464 252.4 660.472 251.904 661.592 251.904C662.92 251.904 663.896 252.784 663.896 254.112C663.896 255.536 662.952 256.384 661.336 256.384H660.216ZM667.241 264.096H668.041L671.241 251.056H670.441L667.241 264.096ZM672.027 259.28H678.043V263.056H679.067V259.28H680.843V258.336H679.067V251.056H677.547L672.027 258.128V259.28ZM672.971 258.336L678.043 251.84V258.336H672.971ZM688.505 262.448C687.209 262.448 686.617 261.728 686.617 260.768C686.617 259.52 687.577 258.992 689.193 258.992H691.241V259.92C691.241 261.616 689.673 262.448 688.505 262.448ZM693.385 262.224C693.241 262.24 693.129 262.256 693.001 262.256C692.505 262.256 692.233 262.016 692.233 261.552V256.832C692.233 255.216 691.081 254.224 689.097 254.224C687.561 254.224 686.185 255.072 685.993 256.816H686.873C687.033 255.792 687.833 255.104 689.065 255.104C690.393 255.104 691.241 255.696 691.241 257.024V258.176H689.145C687.257 258.176 685.641 258.8 685.641 260.816C685.641 262.096 686.425 263.296 688.409 263.296C689.657 263.296 690.777 262.512 691.241 261.504V261.728C691.241 262.656 691.849 263.12 692.777 263.12C693.065 263.12 693.209 263.088 693.385 263.04V262.224ZM697.112 263.056H698.024L701.304 254.464H700.264L697.592 261.824L694.872 254.464H693.848L697.112 263.056ZM706.848 263.056H707.856V257.616C707.856 255.952 709.296 255.104 710.672 255.104C711.888 255.104 712.88 255.536 712.88 257.296V263.056H713.872V257.312C713.872 254.96 712.448 254.224 710.976 254.224C709.6 254.224 708.384 254.944 707.856 256.08V250.736H706.848V263.056ZM716.097 263.296H717.057L717.697 262.496C718.401 263.024 719.265 263.312 720.177 263.312C722.353 263.312 724.337 261.616 724.337 258.784C724.337 257.408 723.889 256.304 723.169 255.536L724.241 254.176H723.281L722.609 255.024C721.905 254.512 721.057 254.24 720.177 254.24C717.985 254.24 716.017 255.92 716.017 258.784C716.017 260.128 716.449 261.216 717.137 261.984L716.097 263.296ZM717.009 258.784C717.009 256.448 718.417 255.152 720.177 255.152C720.865 255.152 721.521 255.36 722.033 255.76L717.729 261.216C717.281 260.624 717.009 259.808 717.009 258.784ZM720.177 262.384C719.473 262.384 718.801 262.176 718.273 261.76L722.577 256.288C723.057 256.896 723.345 257.728 723.345 258.784C723.345 261.136 721.921 262.384 720.177 262.384ZM728.233 266.256L732.617 254.464H731.609L728.985 261.744L726.169 254.464H725.161L728.521 262.912L727.257 266.256H728.233ZM740.382 263.056H741.374V250.736H740.382V255.968C739.934 255.024 738.782 254.224 737.374 254.224C735.358 254.224 733.454 255.888 733.454 258.528C733.454 261.456 735.262 263.296 737.518 263.296C738.782 263.296 739.838 262.56 740.382 261.504V263.056ZM737.518 262.384C735.854 262.384 734.446 261.12 734.446 258.592C734.446 256.256 735.854 255.136 737.534 255.136C738.654 255.136 740.382 255.968 740.382 257.792V259.376C740.382 261.264 738.958 262.384 737.518 262.384ZM747.74 263.296C749.484 263.296 751.068 262.048 751.324 260.208H750.428C750.188 261.408 749.052 262.384 747.74 262.384C746.044 262.384 744.62 261.376 744.572 258.912H751.356V258.608C751.356 255.776 749.612 254.224 747.612 254.224C745.484 254.224 743.564 255.904 743.564 258.688C743.564 261.664 745.276 263.296 747.74 263.296ZM747.612 255.136C749.084 255.136 750.236 256.064 750.38 258.112H744.636C744.796 256.08 746.236 255.136 747.612 255.136ZM759.536 263.056H760.528V257.312C760.528 254.96 759.104 254.224 757.632 254.224C756.256 254.224 755.04 254.944 754.512 256.08V254.464H753.504V263.056H754.512V257.616C754.512 255.952 755.952 255.104 757.328 255.104C758.544 255.104 759.536 255.536 759.536 257.296V263.056Z" fill="black"/>
<path d="M660.392 136.5H661.464V124.42H660.648C660.504 126.18 660.168 126.468 657.912 126.436V127.22H660.392V136.5ZM664.21 137.54H665.01L668.21 124.5H667.41L664.21 137.54ZM669.915 135.524V136.5H677.435V135.524H671.179L674.715 131.94C676.235 130.404 677.051 129.044 677.051 127.476C677.051 125.572 675.643 124.42 673.675 124.42C672.331 124.42 670.235 125.156 670.107 127.668H671.099C671.243 126.02 672.475 125.348 673.675 125.348C675.051 125.348 676.027 126.084 676.027 127.556C676.027 128.724 675.339 129.972 674.043 131.3L669.915 135.524ZM685.317 135.892C684.021 135.892 683.429 135.172 683.429 134.212C683.429 132.964 684.389 132.436 686.005 132.436H688.053V133.364C688.053 135.06 686.485 135.892 685.317 135.892ZM690.197 135.668C690.053 135.684 689.941 135.7 689.813 135.7C689.317 135.7 689.045 135.46 689.045 134.996V130.276C689.045 128.66 687.893 127.668 685.909 127.668C684.373 127.668 682.997 128.516 682.805 130.26H683.685C683.845 129.236 684.645 128.548 685.877 128.548C687.205 128.548 688.053 129.14 688.053 130.468V131.62H685.957C684.069 131.62 682.453 132.244 682.453 134.26C682.453 135.54 683.237 136.74 685.221 136.74C686.469 136.74 687.589 135.956 688.053 134.948V135.172C688.053 136.1 688.661 136.564 689.589 136.564C689.877 136.564 690.021 136.532 690.197 136.484V135.668ZM693.925 136.5H694.837L698.117 127.908H697.077L694.405 135.268L691.685 127.908H690.661L693.925 136.5ZM703.66 136.5H704.668V131.06C704.668 129.396 706.108 128.548 707.484 128.548C708.7 128.548 709.692 128.98 709.692 130.74V136.5H710.684V130.756C710.684 128.404 709.26 127.668 707.788 127.668C706.412 127.668 705.196 128.388 704.668 129.524V124.18H703.66V136.5ZM712.909 136.74H713.869L714.509 135.94C715.213 136.468 716.077 136.756 716.989 136.756C719.165 136.756 721.149 135.06 721.149 132.228C721.149 130.852 720.701 129.748 719.981 128.98L721.053 127.62H720.093L719.421 128.468C718.717 127.956 717.869 127.684 716.989 127.684C714.797 127.684 712.829 129.364 712.829 132.228C712.829 133.572 713.261 134.66 713.949 135.428L712.909 136.74ZM713.821 132.228C713.821 129.892 715.229 128.596 716.989 128.596C717.677 128.596 718.333 128.804 718.845 129.204L714.541 134.66C714.093 134.068 713.821 133.252 713.821 132.228ZM716.989 135.828C716.285 135.828 715.613 135.62 715.085 135.204L719.389 129.732C719.869 130.34 720.157 131.172 720.157 132.228C720.157 134.58 718.733 135.828 716.989 135.828ZM725.045 139.7L729.429 127.908H728.421L725.797 135.188L722.981 127.908H721.973L725.333 136.356L724.069 139.7H725.045ZM737.195 136.5H738.187V124.18H737.195V129.412C736.747 128.468 735.595 127.668 734.187 127.668C732.171 127.668 730.267 129.332 730.267 131.972C730.267 134.9 732.075 136.74 734.331 136.74C735.595 136.74 736.651 136.004 737.195 134.948V136.5ZM734.331 135.828C732.667 135.828 731.259 134.564 731.259 132.036C731.259 129.7 732.667 128.58 734.347 128.58C735.467 128.58 737.195 129.412 737.195 131.236V132.82C737.195 134.708 735.771 135.828 734.331 135.828ZM744.552 136.74C746.296 136.74 747.88 135.492 748.136 133.652H747.24C747 134.852 745.864 135.828 744.552 135.828C742.856 135.828 741.432 134.82 741.384 132.356H748.168V132.052C748.168 129.22 746.424 127.668 744.424 127.668C742.296 127.668 740.376 129.348 740.376 132.132C740.376 135.108 742.088 136.74 744.552 136.74ZM744.424 128.58C745.896 128.58 747.048 129.508 747.192 131.556H741.448C741.608 129.524 743.048 128.58 744.424 128.58ZM756.349 136.5H757.341V130.756C757.341 128.404 755.917 127.668 754.445 127.668C753.069 127.668 751.853 128.388 751.325 129.524V127.908H750.317V136.5H751.325V131.06C751.325 129.396 752.765 128.548 754.141 128.548C755.357 128.548 756.349 128.98 756.349 130.74V136.5Z" fill="black"/>
<line x1="53.5" y1="111" x2="53.5" y2="148.567" stroke="black"/>
<line x1="51" y1="110.5" x2="56" y2="110.5" stroke="black"/>
<line x1="51" y1="148.066" x2="56" y2="148.066" stroke="black"/>
<line x1="53.5" y1="225.594" x2="53.5" y2="281.944" stroke="black"/>
<line x1="51" y1="225.094" x2="56" y2="225.094" stroke="black"/>
<line x1="51" y1="281.444" x2="56" y2="281.444" stroke="black"/>
<path d="M67.392 137.444H68.464V125.364H67.648C67.504 127.124 67.168 127.412 64.912 127.38V128.164H67.392V137.444ZM71.21 138.484H72.01L75.21 125.444H74.41L71.21 138.484ZM76.9154 136.468V137.444H84.4354V136.468H78.1794L81.7154 132.884C83.2354 131.348 84.0514 129.988 84.0514 128.42C84.0514 126.516 82.6434 125.364 80.6754 125.364C79.3314 125.364 77.2354 126.1 77.1074 128.612H78.0994C78.2434 126.964 79.4754 126.292 80.6754 126.292C82.0514 126.292 83.0274 127.028 83.0274 128.5C83.0274 129.668 82.3394 130.916 81.0434 132.244L76.9154 136.468ZM92.3173 136.836C91.0213 136.836 90.4293 136.116 90.4293 135.156C90.4293 133.908 91.3893 133.38 93.0052 133.38H95.0533V134.308C95.0533 136.004 93.4852 136.836 92.3173 136.836ZM97.1973 136.612C97.0533 136.628 96.9413 136.644 96.8133 136.644C96.3173 136.644 96.0453 136.404 96.0453 135.94V131.22C96.0453 129.604 94.8933 128.612 92.9093 128.612C91.3733 128.612 89.9973 129.46 89.8053 131.204H90.6853C90.8453 130.18 91.6453 129.492 92.8773 129.492C94.2053 129.492 95.0533 130.084 95.0533 131.412V132.564H92.9573C91.0693 132.564 89.4533 133.188 89.4533 135.204C89.4533 136.484 90.2373 137.684 92.2213 137.684C93.4693 137.684 94.5893 136.9 95.0533 135.892V136.116C95.0533 137.044 95.6613 137.508 96.5893 137.508C96.8773 137.508 97.0213 137.476 97.1973 137.428V136.612ZM100.925 137.444H101.837L105.117 128.852H104.077L101.405 136.212L98.6848 128.852H97.6608L100.925 137.444ZM110.66 137.444H111.668V132.004C111.668 130.34 113.108 129.492 114.484 129.492C115.7 129.492 116.692 129.924 116.692 131.684V137.444H117.684V131.7C117.684 129.348 116.26 128.612 114.788 128.612C113.412 128.612 112.196 129.332 111.668 130.468V125.124H110.66V137.444ZM119.909 137.684H120.869L121.509 136.884C122.213 137.412 123.077 137.7 123.989 137.7C126.165 137.7 128.149 136.004 128.149 133.172C128.149 131.796 127.701 130.692 126.981 129.924L128.053 128.564H127.093L126.421 129.412C125.717 128.9 124.869 128.628 123.989 128.628C121.797 128.628 119.829 130.308 119.829 133.172C119.829 134.516 120.261 135.604 120.949 136.372L119.909 137.684ZM120.821 133.172C120.821 130.836 122.229 129.54 123.989 129.54C124.677 129.54 125.333 129.748 125.845 130.148L121.541 135.604C121.093 135.012 120.821 134.196 120.821 133.172ZM123.989 136.772C123.285 136.772 122.613 136.564 122.085 136.148L126.389 130.676C126.869 131.284 127.157 132.116 127.157 133.172C127.157 135.524 125.733 136.772 123.989 136.772ZM132.045 140.644L136.429 128.852H135.421L132.797 136.132L129.981 128.852H128.973L132.333 137.3L131.069 140.644H132.045ZM144.195 137.444H145.187V125.124H144.195V130.356C143.747 129.412 142.595 128.612 141.187 128.612C139.171 128.612 137.267 130.276 137.267 132.916C137.267 135.844 139.075 137.684 141.331 137.684C142.595 137.684 143.651 136.948 144.195 135.892V137.444ZM141.331 136.772C139.667 136.772 138.259 135.508 138.259 132.98C138.259 130.644 139.667 129.524 141.347 129.524C142.467 129.524 144.195 130.356 144.195 132.18V133.764C144.195 135.652 142.771 136.772 141.331 136.772ZM151.552 137.684C153.296 137.684 154.88 136.436 155.136 134.596H154.24C154 135.796 152.864 136.772 151.552 136.772C149.856 136.772 148.432 135.764 148.384 133.3H155.168V132.996C155.168 130.164 153.424 128.612 151.424 128.612C149.296 128.612 147.376 130.292 147.376 133.076C147.376 136.052 149.088 137.684 151.552 137.684ZM151.424 129.524C152.896 129.524 154.048 130.452 154.192 132.5H148.448C148.608 130.468 150.048 129.524 151.424 129.524ZM163.349 137.444H164.341V131.7C164.341 129.348 162.917 128.612 161.445 128.612C160.069 128.612 158.853 129.332 158.325 130.468V128.852H157.317V137.444H158.325V132.004C158.325 130.34 159.765 129.492 161.141 129.492C162.357 129.492 163.349 129.924 163.349 131.684V137.444Z" fill="black"/>
<path d="M67.216 256.384V257.312H68.448C70.112 257.312 71.328 258.08 71.328 259.76C71.328 261.312 70.288 262.368 68.8 262.368C66.992 262.368 66.224 261.424 65.904 260.224H64.88C65.328 262.064 66.656 263.296 68.8 263.296C70.8 263.296 72.352 261.968 72.352 259.76C72.352 258.128 71.344 257.152 70.096 256.8C71.2 256.352 71.888 255.344 71.888 254.112C71.888 252.304 70.464 250.976 68.592 250.976C67.2 250.976 65.488 251.712 65.312 253.904H66.304C66.464 252.4 67.472 251.904 68.592 251.904C69.92 251.904 70.896 252.784 70.896 254.112C70.896 255.536 69.952 256.384 68.336 256.384H67.216ZM74.2413 264.096H75.0413L78.2413 251.056H77.4413L74.2413 264.096ZM79.0265 259.28H85.0425V263.056H86.0665V259.28H87.8425V258.336H86.0665V251.056H84.5465L79.0265 258.128V259.28ZM79.9705 258.336L85.0425 251.84V258.336H79.9705ZM95.5048 262.448C94.2088 262.448 93.6168 261.728 93.6168 260.768C93.6168 259.52 94.5768 258.992 96.1927 258.992H98.2408V259.92C98.2408 261.616 96.6727 262.448 95.5048 262.448ZM100.385 262.224C100.241 262.24 100.129 262.256 100.001 262.256C99.5048 262.256 99.2328 262.016 99.2328 261.552V256.832C99.2328 255.216 98.0808 254.224 96.0968 254.224C94.5608 254.224 93.1848 255.072 92.9928 256.816H93.8728C94.0328 255.792 94.8328 255.104 96.0648 255.104C97.3928 255.104 98.2408 255.696 98.2408 257.024V258.176H96.1448C94.2568 258.176 92.6408 258.8 92.6408 260.816C92.6408 262.096 93.4248 263.296 95.4088 263.296C96.6568 263.296 97.7768 262.512 98.2408 261.504V261.728C98.2408 262.656 98.8488 263.12 99.7768 263.12C100.065 263.12 100.209 263.088 100.385 263.04V262.224ZM104.112 263.056H105.024L108.304 254.464H107.264L104.592 261.824L101.872 254.464H100.848L104.112 263.056ZM113.848 263.056H114.856V257.616C114.856 255.952 116.296 255.104 117.672 255.104C118.888 255.104 119.88 255.536 119.88 257.296V263.056H120.872V257.312C120.872 254.96 119.448 254.224 117.976 254.224C116.6 254.224 115.384 254.944 114.856 256.08V250.736H113.848V263.056ZM123.097 263.296H124.057L124.697 262.496C125.401 263.024 126.265 263.312 127.177 263.312C129.353 263.312 131.337 261.616 131.337 258.784C131.337 257.408 130.889 256.304 130.169 255.536L131.241 254.176H130.281L129.609 255.024C128.905 254.512 128.057 254.24 127.177 254.24C124.985 254.24 123.017 255.92 123.017 258.784C123.017 260.128 123.449 261.216 124.137 261.984L123.097 263.296ZM124.009 258.784C124.009 256.448 125.417 255.152 127.177 255.152C127.865 255.152 128.521 255.36 129.033 255.76L124.729 261.216C124.281 260.624 124.009 259.808 124.009 258.784ZM127.177 262.384C126.473 262.384 125.801 262.176 125.273 261.76L129.577 256.288C130.057 256.896 130.345 257.728 130.345 258.784C130.345 261.136 128.921 262.384 127.177 262.384ZM135.233 266.256L139.617 254.464H138.609L135.985 261.744L133.169 254.464H132.161L135.521 262.912L134.257 266.256H135.233ZM147.382 263.056H148.374V250.736H147.382V255.968C146.934 255.024 145.782 254.224 144.374 254.224C142.358 254.224 140.454 255.888 140.454 258.528C140.454 261.456 142.262 263.296 144.518 263.296C145.782 263.296 146.838 262.56 147.382 261.504V263.056ZM144.518 262.384C142.854 262.384 141.446 261.12 141.446 258.592C141.446 256.256 142.854 255.136 144.534 255.136C145.654 255.136 147.382 255.968 147.382 257.792V259.376C147.382 261.264 145.958 262.384 144.518 262.384ZM154.74 263.296C156.484 263.296 158.068 262.048 158.324 260.208H157.428C157.188 261.408 156.052 262.384 154.74 262.384C153.044 262.384 151.62 261.376 151.572 258.912H158.356V258.608C158.356 255.776 156.612 254.224 154.612 254.224C152.484 254.224 150.564 255.904 150.564 258.688C150.564 261.664 152.276 263.296 154.74 263.296ZM154.612 255.136C156.084 255.136 157.236 256.064 157.38 258.112H151.636C151.796 256.08 153.236 255.136 154.612 255.136ZM166.536 263.056H167.528V257.312C167.528 254.96 166.104 254.224 164.632 254.224C163.256 254.224 162.04 254.944 161.512 256.08V254.464H160.504V263.056H161.512V257.616C161.512 255.952 162.952 255.104 164.328 255.104C165.544 255.104 166.536 255.536 166.536 257.296V263.056Z" fill="black"/>
<path d="M100.76 149.033H51V223.916H57.1341V188.762H94.4273V183.19H57.1341V154.6H100.76V149.033Z" fill="#020203"/>
<path d="M135.823 170.604C128.068 170.604 120.476 175.51 117.751 182.157L117.632 171.288V171.127H112.383V223.916H118.292V198.572C118.292 190.128 120.569 175.963 135.823 175.963C138.016 175.963 139.737 176.129 141.23 176.482L141.446 176.532V170.944L141.305 170.919C139.508 170.604 137.632 170.604 135.823 170.604Z" fill="#020203"/>
<path d="M173.435 169.761C165.667 169.761 159.075 172.941 154.377 178.956C150.634 183.755 148.895 189.721 148.895 197.729C148.895 205.666 151.374 212.599 156.059 217.772C160.691 222.753 166.689 225.277 173.88 225.277C180.032 225.277 185.725 223.102 189.918 219.15C193.352 216.024 195.466 212.288 196.197 208.041L196.232 207.854H190.098L190.072 207.983C189.486 210.76 188.156 213.101 185.893 215.351C182.876 218.295 178.614 219.918 173.88 219.918C168.31 219.918 163.827 218.066 160.546 214.417C157.037 210.494 154.949 204.865 154.8 198.949H197.311V198.787C197.311 198.16 197.342 197.6 197.368 197.056C197.395 196.512 197.425 195.952 197.425 195.321C197.425 188.558 195.184 182.252 191.111 177.565C186.681 172.459 180.569 169.761 173.435 169.761ZM154.91 193.789C154.985 182.904 162.752 175.021 173.435 175.021C184.889 175.021 191.124 184.436 191.406 193.789H154.91Z" fill="#020203"/>
<path d="M271.805 169.761C263.58 169.761 257.239 173.676 253.914 180.795C252.109 175.664 247.582 169.761 236.304 169.761C229.008 169.761 222.777 173.46 219.51 179.687L218.893 171.276L218.88 171.127H213.648V223.916H219.558V197.517C219.558 188.795 221.786 182.41 226.181 178.541C228.783 176.204 232.077 175.016 235.97 175.016C244.966 175.016 249.158 179.6 249.158 189.438V223.912H255.178V194.055C255.178 187.716 257.432 182.352 261.691 178.541C264.487 176.137 267.596 175.016 271.48 175.016C280.397 175.016 284.554 179.6 284.554 189.438V223.912H290.463V189.127C290.459 176.64 283.836 169.761 271.805 169.761Z" fill="#020203"/>
<path d="M319.143 155.343L313.234 156.684V171.126H302.102V176.278H313.234V209.17C313.234 219.299 318.258 224.65 327.765 224.65C330.777 224.65 333.635 224.073 336.669 223.463L337.175 223.359V218.411L336.973 218.448C334.234 218.926 331.301 219.391 328.21 219.391C321.856 219.391 319.148 216.269 319.148 208.958V176.278H352.213V223.916H358.458V171.126H319.148V155.343H319.143Z" fill="#020203"/>
<path d="M404.702 169.761C396.828 169.761 389.254 174.024 386.018 180.197L385.388 171.127H380.152V223.916H386.062V197.517C386.062 193.183 386.771 186.993 390.139 182.132C393.314 177.553 398.105 175.232 404.372 175.232C413.914 175.232 418.555 179.882 418.555 189.447V223.92H424.465V189.127C424.465 176.818 417.261 169.761 404.702 169.761Z" fill="#020203"/>
<path d="M355.271 148.812C352.801 148.812 350.793 150.706 350.793 153.034C350.793 155.363 352.801 157.256 355.271 157.256C357.742 157.256 359.75 155.363 359.75 153.034C359.75 150.706 357.742 148.812 355.271 148.812Z" fill="#020203"/>
<path d="M482.425 147.833V179.421C479.184 173.7 471.734 169.761 464.01 169.761C457.88 169.761 452.746 171.612 448.756 175.261C443.203 180.201 440.02 188.351 440.02 197.625C440.02 207.364 443.283 215.418 449.205 220.304C453.182 223.6 458.197 225.273 464.124 225.273C471.808 225.273 479.4 221.055 482.469 215.156L483.103 223.912H488.335V147.833H482.425ZM475.468 215.659C472.425 218.415 468.642 219.814 464.23 219.814C459.844 219.814 456.277 218.627 453.327 216.186C448.628 212.234 446.039 205.608 446.039 197.521C446.039 190.14 448.236 183.842 452.222 179.799C455.361 176.727 459.219 175.232 464.01 175.232C468.722 175.232 472.61 176.594 475.578 179.28C480.325 183.465 482.54 189.264 482.54 197.521C482.54 205.23 480.162 211.333 475.468 215.659Z" fill="#020203"/>
</svg>
