<svg width="395" height="350" viewBox="0 0 395 350" fill="none" xmlns="http://www.w3.org/2000/svg">
<rect width="395" height="350" fill="white"/>
<path d="M46.88 283.3C49.02 283.3 50.96 282.08 51.78 279.92L52.06 283H53.04V275.18H47.08V276.34H51.76V276.92C51.76 280.38 49.38 282.1 46.92 282.1C43.5 282.1 41.1 279.7 41.1 275.62C41.1 271.34 43.86 269.1 46.98 269.1C49.16 269.1 50.8 270.06 51.46 271.92H52.66C52.06 269.3 49.56 267.9 46.98 267.9C42.82 267.9 39.8 270.98 39.8 275.62C39.8 280.22 42.88 283.3 46.88 283.3ZM58.9473 282.24C57.3273 282.24 56.5873 281.34 56.5873 280.14C56.5873 278.58 57.7873 277.92 59.8073 277.92H62.3673V279.08C62.3673 281.2 60.4073 282.24 58.9473 282.24ZM65.0473 281.96C64.8673 281.98 64.7273 282 64.5673 282C63.9473 282 63.6073 281.7 63.6073 281.12V275.22C63.6073 273.2 62.1673 271.96 59.6873 271.96C57.7673 271.96 56.0473 273.02 55.8073 275.2H56.9073C57.1073 273.92 58.1073 273.06 59.6473 273.06C61.3073 273.06 62.3673 273.8 62.3673 275.46V276.9H59.7473C57.3873 276.9 55.3673 277.68 55.3673 280.2C55.3673 281.8 56.3473 283.3 58.8273 283.3C60.3873 283.3 61.7873 282.32 62.3673 281.06V281.34C62.3673 282.5 63.1273 283.08 64.2873 283.08C64.6473 283.08 64.8273 283.04 65.0473 282.98V281.96ZM59.8273 269.94C59.0073 269.94 58.3873 269.38 58.3873 268.48C58.3873 267.48 59.0273 267.02 59.8273 267.02C60.6473 267.02 61.2873 267.5 61.2873 268.48C61.2873 269.4 60.6273 269.94 59.8273 269.94ZM59.8273 270.74C61.1273 270.74 62.1273 269.92 62.1273 268.48C62.1273 267.12 61.1273 266.22 59.8273 266.22C58.5873 266.22 57.5473 267.02 57.5473 268.48C57.5473 269.82 58.5873 270.74 59.8273 270.74ZM76.1314 282.98V281.98C75.8914 282.06 75.4514 282.12 75.1114 282.12C74.2114 282.12 73.4714 281.82 73.4714 280.92V273.34H75.8314V272.26H73.4714V269.56H72.2714V272.26H70.4314V273.34H72.2314V281.1C72.2314 282.58 73.3714 283.2 74.8314 283.2C75.3114 283.2 75.8314 283.12 76.1314 282.98ZM78.9986 269.66C79.5386 269.66 79.9186 269.34 79.9186 268.78C79.9186 268.24 79.5386 267.9 78.9986 267.9C78.4786 267.9 78.1186 268.24 78.1186 268.78C78.1186 269.34 78.4786 269.66 78.9986 269.66ZM78.4386 283H79.6986V272.26H78.4386V283ZM83.4581 283H84.7181V267.6H83.4581V283ZM96.7623 283.3C98.3823 283.3 99.8023 282.34 100.482 280.88V283H101.722V272.26H100.482V278.88C100.482 281.12 98.7023 282.18 97.1223 282.18C95.5023 282.18 94.4423 281.54 94.4423 279.26V272.26H93.1823V279.3C93.1823 282.28 94.8223 283.3 96.7623 283.3ZM109.549 282.98V281.98C109.309 282.06 108.869 282.12 108.529 282.12C107.629 282.12 106.889 281.82 106.889 280.92V273.34H109.249V272.26H106.889V269.56H105.689V272.26H103.849V273.34H105.649V281.1C105.649 282.58 106.789 283.2 108.249 283.2C108.729 283.2 109.249 283.12 109.549 282.98ZM112.217 283H113.457V273.34H115.797V272.26H113.457V270.14C113.457 269.22 113.917 268.74 114.857 268.74C115.297 268.74 115.597 268.82 115.797 268.86V267.68C115.577 267.62 115.277 267.58 114.897 267.58C113.377 267.58 112.217 268.38 112.217 270.04V272.26H110.417V273.34H112.217V283ZM120.111 287L125.591 272.26H124.331L121.051 281.36L117.531 272.26H116.271L120.471 282.82L118.891 287H120.111ZM127.716 283H128.976V267.6H127.716V283ZM132.735 283H133.995V267.6H132.735V283ZM138.315 269.66C138.855 269.66 139.235 269.34 139.235 268.78C139.235 268.24 138.855 267.9 138.315 267.9C137.795 267.9 137.435 268.24 137.435 268.78C137.435 269.34 137.795 269.66 138.315 269.66ZM137.755 283H139.015V272.26H137.755V283ZM150.315 283H151.555V275.82C151.555 272.88 149.775 271.96 147.935 271.96C146.215 271.96 144.695 272.86 144.035 274.28V272.26H142.775V283H144.035V276.2C144.035 274.12 145.835 273.06 147.555 273.06C149.075 273.06 150.315 273.6 150.315 275.8V283ZM158.416 278.06C156.776 278.06 155.736 277.08 155.736 275.54C155.736 273.98 156.756 273 158.376 273C160.016 273 161.056 273.98 161.056 275.54C161.056 277.08 159.996 278.06 158.416 278.06ZM155.236 283.82C155.236 282.72 156.016 281.96 157.996 281.96H159.776C161.256 281.96 162.156 282.56 162.156 283.52C162.156 284.94 160.696 285.7 158.656 285.7C156.396 285.7 155.236 284.96 155.236 283.82ZM158.456 279.1C160.796 279.1 162.236 277.6 162.236 275.54C162.236 274.54 161.716 273.66 161.196 273.18L163.076 272L162.556 271.16L160.356 272.5C159.856 272.18 159.216 271.96 158.376 271.96C156.336 271.96 154.556 273.28 154.556 275.54C154.556 276.56 154.956 277.44 155.636 278.08C154.996 278.4 154.436 278.98 154.436 279.8C154.436 280.5 154.896 281.24 155.876 281.58C154.816 281.88 153.956 282.66 153.956 283.86C153.956 285.86 155.996 286.74 158.616 286.74C161.416 286.74 163.336 285.5 163.336 283.38C163.336 281.66 161.716 280.88 159.976 280.88H157.156C156.016 280.88 155.496 280.36 155.496 279.72C155.496 279.18 155.756 278.8 156.236 278.54C156.856 278.9 157.596 279.1 158.456 279.1Z" fill="black"/>
<path d="M175.62 272.06L174.84 272.86L178.68 276.66H167.8V277.78H178.66L174.84 281.54L175.62 282.34L180.64 277.2L175.62 272.06Z" fill="black"/>
<rect x="39" y="57" width="317" height="180" fill="#EBEBEB"/>
<rect x="57" y="73" width="186" height="14" fill="#C4C4C4"/>
<rect x="57" y="111" width="272" height="48" fill="#C4C4C4"/>
<rect x="57" y="167" width="272" height="48" fill="#C4C4C4"/>
</svg>
