<svg width="395" height="350" viewBox="0 0 395 350" fill="none" xmlns="http://www.w3.org/2000/svg">
<rect width="395" height="350" fill="white"/>
<path d="M30.96 90H35.82C40.04 90 42.64 87.16 42.64 82.5C42.64 77.98 39.96 75 35.82 75H30.96V90ZM35.54 76.16C39.1 76.16 41.34 78.24 41.34 82.5C41.34 86.62 39.24 88.84 35.66 88.84H32.24V76.16H35.54ZM49.6708 90.3C51.8508 90.3 53.8308 88.74 54.1508 86.44H53.0308C52.7308 87.94 51.3108 89.16 49.6708 89.16C47.5508 89.16 45.7708 87.9 45.7108 84.82H54.1908V84.44C54.1908 80.9 52.0108 78.96 49.5108 78.96C46.8508 78.96 44.4508 81.06 44.4508 84.54C44.4508 88.26 46.5908 90.3 49.6708 90.3ZM49.5108 80.1C51.3508 80.1 52.7908 81.26 52.9708 83.82H45.7908C45.9908 81.28 47.7908 80.1 49.5108 80.1ZM59.9161 90.3C62.1761 90.3 63.7961 88.96 63.7961 87.16C63.7961 85.64 62.9761 84.76 61.3761 84.34L59.2361 83.78C58.0161 83.44 57.5561 82.82 57.5561 81.9C57.5561 80.76 58.4961 80.08 59.8361 80.08C61.1361 80.08 62.3161 80.8 62.4761 82.42H63.5761C63.4361 79.94 61.5361 78.96 59.8961 78.96C58.1161 78.96 56.3361 79.92 56.3361 81.96C56.3361 83.38 57.1361 84.4 58.5761 84.8L60.8161 85.4C62.2561 85.8 62.5761 86.4 62.5761 87.22C62.5761 88.46 61.5161 89.18 60.0361 89.18C58.6561 89.18 57.3361 88.74 57.0361 86.96H55.8761C56.1361 89.32 57.9961 90.3 59.9161 90.3ZM67.1236 76.66C67.6636 76.66 68.0436 76.34 68.0436 75.78C68.0436 75.24 67.6636 74.9 67.1236 74.9C66.6036 74.9 66.2436 75.24 66.2436 75.78C66.2436 76.34 66.6036 76.66 67.1236 76.66ZM66.5636 90H67.8236V79.26H66.5636V90ZM74.7831 85.06C73.1431 85.06 72.1031 84.08 72.1031 82.54C72.1031 80.98 73.1231 80 74.7431 80C76.3831 80 77.4231 80.98 77.4231 82.54C77.4231 84.08 76.3631 85.06 74.7831 85.06ZM71.6031 90.82C71.6031 89.72 72.3831 88.96 74.3631 88.96H76.1431C77.6231 88.96 78.5231 89.56 78.5231 90.52C78.5231 91.94 77.0631 92.7 75.0231 92.7C72.7631 92.7 71.6031 91.96 71.6031 90.82ZM74.8231 86.1C77.1631 86.1 78.6031 84.6 78.6031 82.54C78.6031 81.54 78.0831 80.66 77.5631 80.18L79.4431 79L78.9231 78.16L76.7231 79.5C76.2231 79.18 75.5831 78.96 74.7431 78.96C72.7031 78.96 70.9231 80.28 70.9231 82.54C70.9231 83.56 71.3231 84.44 72.0031 85.08C71.3631 85.4 70.8031 85.98 70.8031 86.8C70.8031 87.5 71.2631 88.24 72.2431 88.58C71.1831 88.88 70.3231 89.66 70.3231 90.86C70.3231 92.86 72.3631 93.74 74.9831 93.74C77.7831 93.74 79.7031 92.5 79.7031 90.38C79.7031 88.66 78.0831 87.88 76.3431 87.88H73.5231C72.3831 87.88 71.8631 87.36 71.8631 86.72C71.8631 86.18 72.1231 85.8 72.6031 85.54C73.2231 85.9 73.9631 86.1 74.8231 86.1ZM89.6309 90H90.8709V82.82C90.8709 79.88 89.0909 78.96 87.2509 78.96C85.5309 78.96 84.0109 79.86 83.3509 81.28V79.26H82.0909V90H83.3509V83.2C83.3509 81.12 85.1509 80.06 86.8709 80.06C88.3909 80.06 89.6309 80.6 89.6309 82.8V90ZM99.2923 89.16C97.5323 89.16 95.7123 87.88 95.7123 85.4V83.54C95.7123 81.24 97.7523 80.1 99.3123 80.1C101.412 80.1 103.152 81.42 103.152 84.38C103.152 87.58 101.432 89.16 99.2923 89.16ZM99.4323 90.3C102.152 90.3 104.392 88 104.392 84.32C104.392 80.98 102.032 78.96 99.5723 78.96C97.6323 78.96 96.2323 80.06 95.7123 81.22V79.26H94.4723V94H95.7123V88.04C96.3323 89.36 97.7523 90.3 99.4323 90.3ZM108.429 84.14C108.429 82 109.669 80.36 111.749 80.36C112.029 80.36 112.309 80.38 112.589 80.44V79.16C112.349 79.1 112.049 79.08 111.829 79.08C109.889 79.08 108.809 80.58 108.429 81.84V79.26H107.169V90H108.429V84.14ZM115.385 76.66C115.925 76.66 116.305 76.34 116.305 75.78C116.305 75.24 115.925 74.9 115.385 74.9C114.865 74.9 114.505 75.24 114.505 75.78C114.505 76.34 114.865 76.66 115.385 76.66ZM114.825 90H116.085V79.26H114.825V90ZM127.385 90H128.625V82.82C128.625 79.88 126.845 78.96 125.005 78.96C123.285 78.96 121.765 79.86 121.105 81.28V79.26H119.845V90H121.105V83.2C121.105 81.12 122.905 80.06 124.625 80.06C126.145 80.06 127.385 80.6 127.385 82.8V90ZM135.326 90.3C137.586 90.3 139.206 88.96 139.206 87.16C139.206 85.64 138.386 84.76 136.786 84.34L134.646 83.78C133.426 83.44 132.966 82.82 132.966 81.9C132.966 80.76 133.906 80.08 135.246 80.08C136.546 80.08 137.726 80.8 137.886 82.42H138.986C138.846 79.94 136.946 78.96 135.306 78.96C133.526 78.96 131.746 79.92 131.746 81.96C131.746 83.38 132.546 84.4 133.986 84.8L136.226 85.4C137.666 85.8 137.986 86.4 137.986 87.22C137.986 88.46 136.926 89.18 135.446 89.18C134.066 89.18 132.746 88.74 132.446 86.96H131.286C131.546 89.32 133.406 90.3 135.326 90.3ZM142.534 76.66C143.074 76.66 143.454 76.34 143.454 75.78C143.454 75.24 143.074 74.9 142.534 74.9C142.014 74.9 141.654 75.24 141.654 75.78C141.654 76.34 142.014 76.66 142.534 76.66ZM141.974 90H143.234V79.26H141.974V90ZM151.753 89.16C149.993 89.16 148.173 87.88 148.173 85.4V83.54C148.173 81.24 150.213 80.1 151.773 80.1C153.873 80.1 155.613 81.42 155.613 84.38C155.613 87.58 153.893 89.16 151.753 89.16ZM151.893 90.3C154.613 90.3 156.853 88 156.853 84.32C156.853 80.98 154.493 78.96 152.033 78.96C150.093 78.96 148.693 80.06 148.173 81.22V79.26H146.933V94H148.173V88.04C148.793 89.36 150.213 90.3 151.893 90.3ZM164.39 89.16C162.63 89.16 160.81 87.88 160.81 85.4V83.54C160.81 81.24 162.85 80.1 164.41 80.1C166.51 80.1 168.25 81.42 168.25 84.38C168.25 87.58 166.53 89.16 164.39 89.16ZM164.53 90.3C167.25 90.3 169.49 88 169.49 84.32C169.49 80.98 167.13 78.96 164.67 78.96C162.73 78.96 161.33 80.06 160.81 81.22V79.26H159.57V94H160.81V88.04C161.43 89.36 162.85 90.3 164.53 90.3ZM176.507 90.3C178.687 90.3 180.667 88.74 180.987 86.44H179.867C179.567 87.94 178.147 89.16 176.507 89.16C174.387 89.16 172.607 87.9 172.547 84.82H181.027V84.44C181.027 80.9 178.847 78.96 176.347 78.96C173.687 78.96 171.287 81.06 171.287 84.54C171.287 88.26 173.427 90.3 176.507 90.3ZM176.347 80.1C178.187 80.1 179.627 81.26 179.807 83.82H172.627C172.827 81.28 174.627 80.1 176.347 80.1ZM184.972 84.14C184.972 82 186.212 80.36 188.292 80.36C188.572 80.36 188.852 80.38 189.132 80.44V79.16C188.892 79.1 188.592 79.08 188.372 79.08C186.432 79.08 185.352 80.58 184.972 81.84V79.26H183.712V90H184.972V84.14Z" fill="black"/>
<path d="M201.62 79.06L200.84 79.86L204.68 83.66H193.8V84.78H204.66L200.84 88.54L201.62 89.34L206.64 84.2L201.62 79.06Z" fill="black"/>
<path d="M29.5 108.16H34.5V122H35.78V108.16H40.78V107H29.5V108.16ZM43.7252 108.66C44.2652 108.66 44.6452 108.34 44.6452 107.78C44.6452 107.24 44.2652 106.9 43.7252 106.9C43.2052 106.9 42.8452 107.24 42.8452 107.78C42.8452 108.34 43.2052 108.66 43.7252 108.66ZM43.1652 122H44.4252V111.26H43.1652V122ZM48.1847 122H49.4447V106.6H48.1847V122ZM56.4042 117.06C54.7642 117.06 53.7242 116.08 53.7242 114.54C53.7242 112.98 54.7442 112 56.3642 112C58.0042 112 59.0442 112.98 59.0442 114.54C59.0442 116.08 57.9842 117.06 56.4042 117.06ZM53.2242 122.82C53.2242 121.72 54.0042 120.96 55.9842 120.96H57.7642C59.2442 120.96 60.1442 121.56 60.1442 122.52C60.1442 123.94 58.6842 124.7 56.6442 124.7C54.3842 124.7 53.2242 123.96 53.2242 122.82ZM56.4442 118.1C58.7842 118.1 60.2242 116.6 60.2242 114.54C60.2242 113.54 59.7042 112.66 59.1842 112.18L61.0642 111L60.5442 110.16L58.3442 111.5C57.8442 111.18 57.2042 110.96 56.3642 110.96C54.3242 110.96 52.5442 112.28 52.5442 114.54C52.5442 115.56 52.9442 116.44 53.6242 117.08C52.9842 117.4 52.4242 117.98 52.4242 118.8C52.4242 119.5 52.8842 120.24 53.8642 120.58C52.8042 120.88 51.9442 121.66 51.9442 122.86C51.9442 124.86 53.9842 125.74 56.6042 125.74C59.4042 125.74 61.3242 124.5 61.3242 122.38C61.3242 120.66 59.7042 119.88 57.9642 119.88H55.1442C54.0042 119.88 53.4842 119.36 53.4842 118.72C53.4842 118.18 53.7442 117.8 54.2242 117.54C54.8442 117.9 55.5842 118.1 56.4442 118.1ZM62.232 126H62.672C64.272 126 64.912 124.98 64.912 123.66V111.26H63.672V123.7C63.672 124.44 63.272 124.84 62.592 124.84H62.232V126ZM64.412 108.66C64.972 108.66 65.352 108.34 65.352 107.78C65.352 107.2 64.972 106.88 64.412 106.88C63.872 106.88 63.492 107.2 63.492 107.78C63.492 108.34 63.872 108.66 64.412 108.66ZM72.8739 122.3C75.0539 122.3 77.0339 120.74 77.3539 118.44H76.2339C75.9339 119.94 74.5139 121.16 72.8739 121.16C70.7539 121.16 68.9739 119.9 68.9139 116.82H77.3939V116.44C77.3939 112.9 75.2139 110.96 72.7139 110.96C70.0539 110.96 67.6539 113.06 67.6539 116.54C67.6539 120.26 69.7939 122.3 72.8739 122.3ZM72.7139 112.1C74.5539 112.1 75.9939 113.26 76.1739 115.82H68.9939C69.1939 113.28 70.9939 112.1 72.7139 112.1ZM87.6192 122H88.8592V114.82C88.8592 111.88 87.0792 110.96 85.2392 110.96C83.5192 110.96 81.9992 111.86 81.3392 113.28V111.26H80.0792V122H81.3392V115.2C81.3392 113.12 83.1392 112.06 84.8592 112.06C86.3792 112.06 87.6192 112.6 87.6192 114.8V122ZM95.7206 117.06C94.0806 117.06 93.0406 116.08 93.0406 114.54C93.0406 112.98 94.0606 112 95.6806 112C97.3206 112 98.3606 112.98 98.3606 114.54C98.3606 116.08 97.3006 117.06 95.7206 117.06ZM92.5406 122.82C92.5406 121.72 93.3206 120.96 95.3006 120.96H97.0806C98.5606 120.96 99.4606 121.56 99.4606 122.52C99.4606 123.94 98.0006 124.7 95.9606 124.7C93.7006 124.7 92.5406 123.96 92.5406 122.82ZM95.7606 118.1C98.1006 118.1 99.5406 116.6 99.5406 114.54C99.5406 113.54 99.0206 112.66 98.5006 112.18L100.381 111L99.8606 110.16L97.6606 111.5C97.1606 111.18 96.5206 110.96 95.6806 110.96C93.6406 110.96 91.8606 112.28 91.8606 114.54C91.8606 115.56 92.2606 116.44 92.9406 117.08C92.3006 117.4 91.7406 117.98 91.7406 118.8C91.7406 119.5 92.2006 120.24 93.1806 120.58C92.1206 120.88 91.2606 121.66 91.2606 122.86C91.2606 124.86 93.3006 125.74 95.9206 125.74C98.7206 125.74 100.641 124.5 100.641 122.38C100.641 120.66 99.0206 119.88 97.2806 119.88H94.4606C93.3206 119.88 92.8006 119.36 92.8006 118.72C92.8006 118.18 93.0606 117.8 93.5406 117.54C94.1606 117.9 94.9006 118.1 95.7606 118.1ZM107.268 122.3C109.448 122.3 111.428 120.74 111.748 118.44H110.628C110.328 119.94 108.908 121.16 107.268 121.16C105.148 121.16 103.368 119.9 103.308 116.82H111.788V116.44C111.788 112.9 109.608 110.96 107.108 110.96C104.448 110.96 102.048 113.06 102.048 116.54C102.048 120.26 104.188 122.3 107.268 122.3ZM107.108 112.1C108.948 112.1 110.388 113.26 110.568 115.82H103.388C103.588 113.28 105.388 112.1 107.108 112.1ZM114.474 122H115.734V106.6H114.474V122ZM120.053 108.66C120.593 108.66 120.973 108.34 120.973 107.78C120.973 107.24 120.593 106.9 120.053 106.9C119.533 106.9 119.173 107.24 119.173 107.78C119.173 108.34 119.533 108.66 120.053 108.66ZM119.493 122H120.753V111.26H119.493V122ZM127.713 117.06C126.073 117.06 125.033 116.08 125.033 114.54C125.033 112.98 126.053 112 127.673 112C129.313 112 130.353 112.98 130.353 114.54C130.353 116.08 129.293 117.06 127.713 117.06ZM124.533 122.82C124.533 121.72 125.313 120.96 127.293 120.96H129.073C130.553 120.96 131.453 121.56 131.453 122.52C131.453 123.94 129.993 124.7 127.953 124.7C125.693 124.7 124.533 123.96 124.533 122.82ZM127.753 118.1C130.093 118.1 131.533 116.6 131.533 114.54C131.533 113.54 131.013 112.66 130.493 112.18L132.373 111L131.853 110.16L129.653 111.5C129.153 111.18 128.513 110.96 127.673 110.96C125.633 110.96 123.853 112.28 123.853 114.54C123.853 115.56 124.253 116.44 124.933 117.08C124.293 117.4 123.733 117.98 123.733 118.8C123.733 119.5 124.193 120.24 125.173 120.58C124.113 120.88 123.253 121.66 123.253 122.86C123.253 124.86 125.293 125.74 127.913 125.74C130.713 125.74 132.633 124.5 132.633 122.38C132.633 120.66 131.013 119.88 129.273 119.88H126.453C125.313 119.88 124.793 119.36 124.793 118.72C124.793 118.18 125.053 117.8 125.533 117.54C126.153 117.9 126.893 118.1 127.753 118.1ZM135.021 122H136.281V115.2C136.281 113.12 138.081 112.06 139.801 112.06C141.321 112.06 142.561 112.6 142.561 114.8V122H143.801V114.82C143.801 111.88 142.021 110.96 140.181 110.96C138.461 110.96 136.941 111.86 136.281 113.28V106.6H135.021V122ZM151.702 122.3C153.882 122.3 155.862 120.74 156.182 118.44H155.062C154.762 119.94 153.342 121.16 151.702 121.16C149.582 121.16 147.802 119.9 147.742 116.82H156.222V116.44C156.222 112.9 154.042 110.96 151.542 110.96C148.882 110.96 146.482 113.06 146.482 116.54C146.482 120.26 148.622 122.3 151.702 122.3ZM151.542 112.1C153.382 112.1 154.822 113.26 155.002 115.82H147.822C148.022 113.28 149.822 112.1 151.542 112.1ZM162.967 121.98V120.98C162.727 121.06 162.287 121.12 161.947 121.12C161.047 121.12 160.307 120.82 160.307 119.92V112.34H162.667V111.26H160.307V108.56H159.107V111.26H157.267V112.34H159.067V120.1C159.067 121.58 160.207 122.2 161.667 122.2C162.147 122.2 162.667 122.12 162.967 121.98Z" fill="black"/>
<path d="M175.62 111.06L174.84 111.86L178.68 115.66H167.8V116.78H178.66L174.84 120.54L175.62 121.34L180.64 116.2L175.62 111.06Z" fill="black"/>
<path d="M30.96 154H32.24V147.18H38.4V146.02H32.24V140.16H39.12V139H30.96V154ZM44.1817 153.24C42.5617 153.24 41.8217 152.34 41.8217 151.14C41.8217 149.58 43.0217 148.92 45.0417 148.92H47.6017V150.08C47.6017 152.2 45.6417 153.24 44.1817 153.24ZM50.2817 152.96C50.1017 152.98 49.9617 153 49.8017 153C49.1817 153 48.8417 152.7 48.8417 152.12V146.22C48.8417 144.2 47.4017 142.96 44.9217 142.96C43.0017 142.96 41.2817 144.02 41.0417 146.2H42.1417C42.3417 144.92 43.3417 144.06 44.8817 144.06C46.5417 144.06 47.6017 144.8 47.6017 146.46V147.9H44.9817C42.6217 147.9 40.6017 148.68 40.6017 151.2C40.6017 152.8 41.5817 154.3 44.0617 154.3C45.6217 154.3 47.0217 153.32 47.6017 152.06V152.34C47.6017 153.5 48.3617 154.08 49.5217 154.08C49.8817 154.08 50.0617 154.04 50.2817 153.98V152.96ZM53.7611 148.14C53.7611 146 55.0011 144.36 57.0811 144.36C57.3611 144.36 57.6411 144.38 57.9211 144.44V143.16C57.6811 143.1 57.3811 143.08 57.1611 143.08C55.2211 143.08 54.1411 144.58 53.7611 145.84V143.26H52.5011V154H53.7611V148.14ZM63.2597 149.06C61.6197 149.06 60.5797 148.08 60.5797 146.54C60.5797 144.98 61.5997 144 63.2197 144C64.8597 144 65.8997 144.98 65.8997 146.54C65.8997 148.08 64.8397 149.06 63.2597 149.06ZM60.0797 154.82C60.0797 153.72 60.8597 152.96 62.8397 152.96H64.6197C66.0997 152.96 66.9997 153.56 66.9997 154.52C66.9997 155.94 65.5397 156.7 63.4997 156.7C61.2397 156.7 60.0797 155.96 60.0797 154.82ZM63.2997 150.1C65.6397 150.1 67.0797 148.6 67.0797 146.54C67.0797 145.54 66.5597 144.66 66.0397 144.18L67.9197 143L67.3997 142.16L65.1997 143.5C64.6997 143.18 64.0597 142.96 63.2197 142.96C61.1797 142.96 59.3997 144.28 59.3997 146.54C59.3997 147.56 59.7997 148.44 60.4797 149.08C59.8397 149.4 59.2797 149.98 59.2797 150.8C59.2797 151.5 59.7397 152.24 60.7197 152.58C59.6597 152.88 58.7997 153.66 58.7997 154.86C58.7997 156.86 60.8397 157.74 63.4597 157.74C66.2597 157.74 68.1797 156.5 68.1797 154.38C68.1797 152.66 66.5597 151.88 64.8197 151.88H61.9997C60.8597 151.88 60.3397 151.36 60.3397 150.72C60.3397 150.18 60.5997 149.8 61.0797 149.54C61.6997 149.9 62.4397 150.1 63.2997 150.1ZM74.8075 154.3C76.9875 154.3 78.9675 152.74 79.2875 150.44H78.1675C77.8675 151.94 76.4475 153.16 74.8075 153.16C72.6875 153.16 70.9075 151.9 70.8475 148.82H79.3275V148.44C79.3275 144.9 77.1475 142.96 74.6475 142.96C71.9875 142.96 69.5875 145.06 69.5875 148.54C69.5875 152.26 71.7275 154.3 74.8075 154.3ZM74.6475 144.1C76.4875 144.1 77.9275 145.26 78.1075 147.82H70.9275C71.1275 145.28 72.9275 144.1 74.6475 144.1ZM83.2728 148.14C83.2728 146 84.5128 144.36 86.5928 144.36C86.8728 144.36 87.1528 144.38 87.4328 144.44V143.16C87.1928 143.1 86.8928 143.08 86.6728 143.08C84.7328 143.08 83.6528 144.58 83.2728 145.84V143.26H82.0128V154H83.2728V148.14Z" fill="black"/>
<path d="M99.62 143.06L98.84 143.86L102.68 147.66H91.8V148.78H102.66L98.84 152.54L99.62 153.34L104.64 148.2L99.62 143.06Z" fill="black"/>
<path d="M34.72 186.3C37.62 186.3 39.66 184.74 39.66 182.14C39.66 179.88 38.04 178.74 36.38 178.32L33.88 177.66C32.2 177.22 31.46 176.28 31.46 174.92C31.46 173.1 32.8 172.1 34.7 172.1C36.4 172.1 37.82 173 38.16 175.1H39.36C39.06 172.32 36.96 170.9 34.7 170.9C32.36 170.9 30.16 172.36 30.16 174.96C30.16 176.76 31.24 178.26 33.52 178.88L35.74 179.48C37.48 179.96 38.36 180.62 38.36 182.32C38.36 184.12 36.82 185.08 34.76 185.12C32.78 185.14 31.34 184.38 30.72 182.06H29.52C30.06 185 32.08 186.3 34.72 186.3ZM46.3463 185.98V184.98C46.1063 185.06 45.6663 185.12 45.3263 185.12C44.4263 185.12 43.6863 184.82 43.6863 183.92V176.34H46.0463V175.26H43.6863V172.56H42.4863V175.26H40.6463V176.34H42.4463V184.1C42.4463 185.58 43.5863 186.2 45.0463 186.2C45.5263 186.2 46.0463 186.12 46.3463 185.98ZM52.8934 186.3C55.0734 186.3 57.0534 184.74 57.3734 182.44H56.2534C55.9534 183.94 54.5334 185.16 52.8934 185.16C50.7734 185.16 48.9934 183.9 48.9334 180.82H57.4134V180.44C57.4134 176.9 55.2334 174.96 52.7334 174.96C50.0734 174.96 47.6734 177.06 47.6734 180.54C47.6734 184.26 49.8134 186.3 52.8934 186.3ZM52.7334 176.1C54.5734 176.1 56.0134 177.26 56.1934 179.82H49.0134C49.2134 177.28 51.0134 176.1 52.7334 176.1ZM73.5588 186H74.7988V178.88C74.7988 175.92 73.2788 174.96 71.6188 174.96C69.9787 174.96 68.6588 175.92 67.9188 177.42C67.4988 175.6 66.2388 174.96 64.8788 174.96C63.3188 174.96 62.0788 175.82 61.3588 177.26V175.26H60.0988V186H61.3588V179.18C61.3588 177.12 62.9988 176.06 64.4788 176.06C65.9388 176.06 66.8388 176.74 66.8388 178.8V186H68.0788V179.26C68.0788 177.1 69.6788 176.06 71.2188 176.06C72.6388 176.06 73.5588 176.74 73.5588 178.78V186ZM91.9181 186H93.1581V178.88C93.1581 175.92 91.6381 174.96 89.9781 174.96C88.3381 174.96 87.0181 175.92 86.2781 177.42C85.8581 175.6 84.5981 174.96 83.2381 174.96C81.6781 174.96 80.4381 175.82 79.7181 177.26V175.26H78.4581V186H79.7181V179.18C79.7181 177.12 81.3581 176.06 82.8381 176.06C84.2981 176.06 85.1981 176.74 85.1981 178.8V186H86.4381V179.26C86.4381 177.1 88.0381 176.06 89.5781 176.06C90.9981 176.06 91.9181 176.74 91.9181 178.78V186ZM101.058 186.3C103.238 186.3 105.217 184.74 105.538 182.44H104.418C104.118 183.94 102.698 185.16 101.058 185.16C98.9375 185.16 97.1575 183.9 97.0975 180.82H105.578V180.44C105.578 176.9 103.398 174.96 100.898 174.96C98.2375 174.96 95.8375 177.06 95.8375 180.54C95.8375 184.26 97.9775 186.3 101.058 186.3ZM100.898 176.1C102.738 176.1 104.178 177.26 104.358 179.82H97.1775C97.3775 177.28 99.1775 176.1 100.898 176.1ZM115.803 186H117.043V178.82C117.043 175.88 115.263 174.96 113.423 174.96C111.703 174.96 110.183 175.86 109.523 177.28V175.26H108.263V186H109.523V179.2C109.523 177.12 111.323 176.06 113.043 176.06C114.563 176.06 115.803 176.6 115.803 178.8V186ZM127.949 186H129.089L133.189 175.26H131.889L128.549 184.46L125.149 175.26H123.869L127.949 186ZM137.854 185.24C136.234 185.24 135.494 184.34 135.494 183.14C135.494 181.58 136.694 180.92 138.714 180.92H141.274V182.08C141.274 184.2 139.314 185.24 137.854 185.24ZM143.954 184.96C143.774 184.98 143.634 185 143.474 185C142.854 185 142.514 184.7 142.514 184.12V178.22C142.514 176.2 141.074 174.96 138.594 174.96C136.674 174.96 134.954 176.02 134.714 178.2H135.814C136.014 176.92 137.014 176.06 138.554 176.06C140.214 176.06 141.274 176.8 141.274 178.46V179.9H138.654C136.294 179.9 134.274 180.68 134.274 183.2C134.274 184.8 135.254 186.3 137.734 186.3C139.294 186.3 140.694 185.32 141.274 184.06V184.34C141.274 185.5 142.034 186.08 143.194 186.08C143.554 186.08 143.734 186.04 143.954 185.98V184.96ZM138.734 172.94C137.914 172.94 137.294 172.38 137.294 171.48C137.294 170.48 137.934 170.02 138.734 170.02C139.554 170.02 140.194 170.5 140.194 171.48C140.194 172.4 139.534 172.94 138.734 172.94ZM138.734 173.74C140.034 173.74 141.034 172.92 141.034 171.48C141.034 170.12 140.034 169.22 138.734 169.22C137.494 169.22 136.454 170.02 136.454 171.48C136.454 172.82 137.494 173.74 138.734 173.74ZM147.433 180.14C147.433 178 148.673 176.36 150.753 176.36C151.033 176.36 151.313 176.38 151.593 176.44V175.16C151.353 175.1 151.053 175.08 150.833 175.08C148.893 175.08 147.813 176.58 147.433 177.84V175.26H146.173V186H147.433V180.14Z" fill="black"/>
<path d="M169.62 175.06L168.84 175.86L172.68 179.66H161.8V180.78H172.66L168.84 184.54L169.62 185.34L174.64 180.2L169.62 175.06Z" fill="black"/>
<path d="M34.72 218.3C37.62 218.3 39.66 216.74 39.66 214.14C39.66 211.88 38.04 210.74 36.38 210.32L33.88 209.66C32.2 209.22 31.46 208.28 31.46 206.92C31.46 205.1 32.8 204.1 34.7 204.1C36.4 204.1 37.82 205 38.16 207.1H39.36C39.06 204.32 36.96 202.9 34.7 202.9C32.36 202.9 30.16 204.36 30.16 206.96C30.16 208.76 31.24 210.26 33.52 210.88L35.74 211.48C37.48 211.96 38.36 212.62 38.36 214.32C38.36 216.12 36.82 217.08 34.76 217.12C32.78 217.14 31.34 216.38 30.72 214.06H29.52C30.06 217 32.08 218.3 34.72 218.3ZM42.2863 218H43.5463V214.26L45.2263 212.62L49.4063 218H50.9063L46.0663 211.8L50.7063 207.26H49.1863L43.5463 212.78V202.6H42.2863V218ZM53.5103 204.66C54.0503 204.66 54.4303 204.34 54.4303 203.78C54.4303 203.24 54.0503 202.9 53.5103 202.9C52.9903 202.9 52.6303 203.24 52.6303 203.78C52.6303 204.34 52.9903 204.66 53.5103 204.66ZM50.8103 221.94C51.1503 221.98 51.4503 222 51.6703 222C53.4303 222 54.2103 220.96 54.2103 219.52V207.26H52.9503V219.5C52.9503 220.4 52.4903 220.84 51.5703 220.84C51.3703 220.84 51.1303 220.82 50.8103 220.76V221.94ZM62.2098 218.3C64.3898 218.3 66.3698 216.74 66.6898 214.44H65.5698C65.2698 215.94 63.8498 217.16 62.2098 217.16C60.0898 217.16 58.3098 215.9 58.2498 212.82H66.7298V212.44C66.7298 208.9 64.5498 206.96 62.0498 206.96C59.3898 206.96 56.9898 209.06 56.9898 212.54C56.9898 216.26 59.1298 218.3 62.2098 218.3ZM62.0498 208.1C63.8898 208.1 65.3298 209.26 65.5098 211.82H58.3298C58.5298 209.28 60.3298 208.1 62.0498 208.1ZM82.8752 218H84.1152V210.88C84.1152 207.92 82.5952 206.96 80.9352 206.96C79.2952 206.96 77.9752 207.92 77.2352 209.42C76.8152 207.6 75.5552 206.96 74.1952 206.96C72.6352 206.96 71.3952 207.82 70.6752 209.26V207.26H69.4152V218H70.6752V211.18C70.6752 209.12 72.3152 208.06 73.7952 208.06C75.2552 208.06 76.1552 208.74 76.1552 210.8V218H77.3952V211.26C77.3952 209.1 78.9952 208.06 80.5352 208.06C81.9552 208.06 82.8752 208.74 82.8752 210.78V218ZM90.3145 217.24C88.6945 217.24 87.9545 216.34 87.9545 215.14C87.9545 213.58 89.1545 212.92 91.1745 212.92H93.7345V214.08C93.7345 216.2 91.7745 217.24 90.3145 217.24ZM96.4145 216.96C96.2345 216.98 96.0945 217 95.9345 217C95.3145 217 94.9745 216.7 94.9745 216.12V210.22C94.9745 208.2 93.5345 206.96 91.0545 206.96C89.1345 206.96 87.4145 208.02 87.1745 210.2H88.2745C88.4745 208.92 89.4745 208.06 91.0145 208.06C92.6745 208.06 93.7345 208.8 93.7345 210.46V211.9H91.1145C88.7545 211.9 86.7345 212.68 86.7345 215.2C86.7345 216.8 87.7145 218.3 90.1945 218.3C91.7545 218.3 93.1545 217.32 93.7345 216.06V216.34C93.7345 217.5 94.4945 218.08 95.6545 218.08C96.0145 218.08 96.1945 218.04 96.4145 217.98V216.96ZM106.314 218H107.554V202.6H106.314V209.14C105.754 207.96 104.314 206.96 102.554 206.96C100.034 206.96 97.6539 209.04 97.6539 212.34C97.6539 216 99.9139 218.3 102.734 218.3C104.314 218.3 105.634 217.38 106.314 216.06V218ZM102.734 217.16C100.654 217.16 98.8939 215.58 98.8939 212.42C98.8939 209.5 100.654 208.1 102.754 208.1C104.154 208.1 106.314 209.14 106.314 211.42V213.4C106.314 215.76 104.534 217.16 102.734 217.16ZM115.511 218.3C117.691 218.3 119.671 216.74 119.991 214.44H118.871C118.571 215.94 117.151 217.16 115.511 217.16C113.391 217.16 111.611 215.9 111.551 212.82H120.031V212.44C120.031 208.9 117.851 206.96 115.351 206.96C112.691 206.96 110.291 209.06 110.291 212.54C110.291 216.26 112.431 218.3 115.511 218.3ZM115.351 208.1C117.191 208.1 118.631 209.26 118.811 211.82H111.631C111.831 209.28 113.631 208.1 115.351 208.1ZM125.756 218.3C128.016 218.3 129.636 216.96 129.636 215.16C129.636 213.64 128.816 212.76 127.216 212.34L125.076 211.78C123.856 211.44 123.396 210.82 123.396 209.9C123.396 208.76 124.336 208.08 125.676 208.08C126.976 208.08 128.156 208.8 128.316 210.42H129.416C129.276 207.94 127.376 206.96 125.736 206.96C123.956 206.96 122.176 207.92 122.176 209.96C122.176 211.38 122.976 212.4 124.416 212.8L126.656 213.4C128.096 213.8 128.416 214.4 128.416 215.22C128.416 216.46 127.356 217.18 125.876 217.18C124.496 217.18 123.176 216.74 122.876 214.96H121.716C121.976 217.32 123.836 218.3 125.756 218.3ZM132.963 204.66C133.503 204.66 133.883 204.34 133.883 203.78C133.883 203.24 133.503 202.9 132.963 202.9C132.443 202.9 132.083 203.24 132.083 203.78C132.083 204.34 132.443 204.66 132.963 204.66ZM132.403 218H133.663V207.26H132.403V218ZM140.623 213.06C138.983 213.06 137.943 212.08 137.943 210.54C137.943 208.98 138.963 208 140.583 208C142.223 208 143.263 208.98 143.263 210.54C143.263 212.08 142.203 213.06 140.623 213.06ZM137.443 218.82C137.443 217.72 138.223 216.96 140.203 216.96H141.983C143.463 216.96 144.363 217.56 144.363 218.52C144.363 219.94 142.903 220.7 140.863 220.7C138.603 220.7 137.443 219.96 137.443 218.82ZM140.663 214.1C143.003 214.1 144.443 212.6 144.443 210.54C144.443 209.54 143.923 208.66 143.403 208.18L145.283 207L144.763 206.16L142.563 207.5C142.063 207.18 141.423 206.96 140.583 206.96C138.543 206.96 136.763 208.28 136.763 210.54C136.763 211.56 137.163 212.44 137.843 213.08C137.203 213.4 136.643 213.98 136.643 214.8C136.643 215.5 137.103 216.24 138.083 216.58C137.023 216.88 136.163 217.66 136.163 218.86C136.163 220.86 138.203 221.74 140.823 221.74C143.623 221.74 145.543 220.5 145.543 218.38C145.543 216.66 143.923 215.88 142.183 215.88H139.363C138.223 215.88 137.703 215.36 137.703 214.72C137.703 214.18 137.963 213.8 138.443 213.54C139.063 213.9 139.803 214.1 140.663 214.1ZM155.471 218H156.711V210.82C156.711 207.88 154.931 206.96 153.091 206.96C151.371 206.96 149.851 207.86 149.191 209.28V207.26H147.931V218H149.191V211.2C149.191 209.12 150.991 208.06 152.711 208.06C154.231 208.06 155.471 208.6 155.471 210.8V218Z" fill="black"/>
<path d="M170.62 207.06L169.84 207.86L173.68 211.66H162.8V212.78H173.66L169.84 216.54L170.62 217.34L175.64 212.2L170.62 207.06Z" fill="black"/>
</svg>
