<svg width="395" height="350" viewBox="0 0 395 350" fill="none" xmlns="http://www.w3.org/2000/svg">
<rect width="395" height="350" fill="#DED4C7"/>
<path d="M78.9303 148.836H44V201.05H48.306V176.538H74.4852V172.654H48.306V152.718H78.9303V148.836Z" fill="#A92127"/>
<path d="M103.544 163.877C98.1006 163.877 92.7714 167.299 90.858 171.933L90.7745 164.355V164.242H87.0898V201.051H91.2382V183.379C91.2382 177.491 92.8363 167.614 103.544 167.614C105.084 167.614 106.292 167.73 107.34 167.976L107.492 168.011V164.115L107.393 164.097C106.131 163.877 104.815 163.877 103.544 163.877Z" fill="#A92127"/>
<path d="M129.946 163.29C124.493 163.29 119.866 165.507 116.567 169.701C113.94 173.047 112.719 177.207 112.719 182.791C112.719 188.326 114.459 193.16 117.748 196.766C121 200.24 125.21 202 130.258 202C134.576 202 138.573 200.483 141.516 197.727C143.927 195.548 145.411 192.943 145.924 189.981L145.949 189.851H141.643L141.624 189.941C141.213 191.877 140.28 193.51 138.691 195.079C136.573 197.131 133.581 198.263 130.258 198.263C126.348 198.263 123.201 196.972 120.898 194.427C118.434 191.692 116.969 187.767 116.864 183.642H146.706V183.529C146.706 183.092 146.728 182.701 146.746 182.322C146.765 181.943 146.787 181.552 146.787 181.112C146.787 176.397 145.213 172 142.354 168.732C139.244 165.171 134.954 163.29 129.946 163.29ZM116.941 180.044C116.994 172.454 122.447 166.957 129.946 166.957C137.986 166.957 142.363 173.522 142.561 180.044H116.941Z" fill="#A92127"/>
<path d="M199.001 163.29C193.227 163.29 188.775 166.019 186.441 170.984C185.174 167.406 181.996 163.29 174.08 163.29C168.958 163.29 164.584 165.869 162.29 170.211L161.857 164.346L161.848 164.242H158.176V201.05H162.324V182.643C162.324 176.562 163.888 172.11 166.973 169.412C168.8 167.782 171.112 166.954 173.845 166.954C180.16 166.954 183.103 170.15 183.103 177.01V201.048H187.329V180.229C187.329 175.809 188.911 172.069 191.9 169.412C193.863 167.736 196.046 166.954 198.772 166.954C205.032 166.954 207.95 170.15 207.95 177.01V201.048H212.098V176.793C212.095 168.086 207.446 163.29 199.001 163.29Z" fill="#A92127"/>
<path d="M232.232 153.236L228.084 154.171V164.242H220.27V167.834H228.084V190.769C228.084 197.832 231.611 201.563 238.285 201.563C240.399 201.563 242.405 201.16 244.535 200.735L244.891 200.663V197.212L244.749 197.238C242.826 197.571 240.767 197.895 238.597 197.895C234.137 197.895 232.235 195.718 232.235 190.621V167.834H255.447V201.05H259.83V164.242H232.235V153.236H232.232Z" fill="#A92127"/>
<path d="M292.292 163.29C286.765 163.29 281.448 166.262 279.176 170.567L278.734 164.242H275.059V201.05H279.207V182.643C279.207 179.621 279.705 175.305 282.069 171.916C284.298 168.723 287.661 167.105 292.06 167.105C298.759 167.105 302.017 170.347 302.017 177.016V201.053H306.165V176.793C306.165 168.21 301.108 163.29 292.292 163.29Z" fill="#A92127"/>
<path d="M257.593 148.683C255.859 148.683 254.449 150.003 254.449 151.627C254.449 153.251 255.859 154.571 257.593 154.571C259.327 154.571 260.737 153.251 260.737 151.627C260.737 150.003 259.327 148.683 257.593 148.683Z" fill="#A92127"/>
<path d="M346.85 148V170.026C344.575 166.037 339.345 163.29 333.923 163.29C329.62 163.29 326.016 164.581 323.215 167.125C319.317 170.57 317.082 176.252 317.082 182.719C317.082 189.51 319.373 195.125 323.53 198.532C326.322 200.831 329.842 201.997 334.003 201.997C339.397 201.997 344.726 199.056 346.881 194.943L347.326 201.048H350.998V148H346.85ZM341.966 195.293C339.83 197.215 337.175 198.191 334.077 198.191C330.998 198.191 328.495 197.363 326.424 195.661C323.125 192.905 321.308 188.285 321.308 182.646C321.308 177.5 322.85 173.108 325.648 170.289C327.852 168.147 330.56 167.105 333.923 167.105C337.23 167.105 339.96 168.054 342.043 169.927C345.376 172.845 346.93 176.889 346.93 182.646C346.93 188.022 345.261 192.277 341.966 195.293Z" fill="#A92127"/>
</svg>
